<svg width="199" height="164" viewBox="0 0 199 164" fill="none" xmlns="http://www.w3.org/2000/svg">
<path d="M91.6719 3.51537V15.1517H89.7969L84.3139 7.2256H84.2174V15.1517H82.1094V3.51537H83.9958L89.473 11.4472H89.5753V3.51537H91.6719ZM93.9688 15.1517V3.51537H101.537V5.28242H96.0767V8.44151H101.145V10.2086H96.0767V13.3847H101.582V15.1517H93.9688ZM106.136 15.1517L102.852 3.51537H105.119L107.216 12.0665H107.324L109.563 3.51537H111.625L113.869 12.0722H113.972L116.068 3.51537H118.335L115.051 15.1517H112.972L110.642 6.98696H110.551L108.216 15.1517H106.136ZM11.1968 49.1517V28.7881H18.9922C20.4638 28.7881 21.6868 29.0201 22.6612 29.4841C23.6423 29.9415 24.3748 30.5679 24.8587 31.3634C25.3492 32.1588 25.5945 33.0604 25.5945 34.0679C25.5945 34.8965 25.4354 35.6058 25.1172 36.1958C24.799 36.7791 24.3715 37.2531 23.8345 37.6176C23.2976 37.9822 22.6977 38.2441 22.0348 38.4032V38.602C22.7574 38.6418 23.4501 38.8639 24.1129 39.2682C24.7825 39.6659 25.3293 40.2294 25.7536 40.9586C26.1778 41.6877 26.3899 42.5693 26.3899 43.6034C26.3899 44.6574 26.1347 45.6053 25.6243 46.4472C25.1139 47.2824 24.345 47.942 23.3175 48.4259C22.29 48.9098 20.9974 49.1517 19.4397 49.1517H11.1968ZM14.8857 46.0693H18.853C20.192 46.0693 21.1565 45.8141 21.7465 45.3037C22.3431 44.7867 22.6414 44.1238 22.6414 43.3151C22.6414 42.7119 22.4922 42.1683 22.1939 41.6844C21.8956 41.1939 21.4714 40.8094 20.9212 40.531C20.371 40.246 19.7147 40.1034 18.9524 40.1034H14.8857V46.0693ZM14.8857 37.4486H18.5348C19.1712 37.4486 19.7446 37.3326 20.255 37.1006C20.7654 36.862 21.1665 36.5272 21.4581 36.0963C21.7564 35.6588 21.9056 35.1418 21.9056 34.5452C21.9056 33.7564 21.6272 33.1068 21.0703 32.5963C20.5201 32.0859 19.7015 31.8307 18.6144 31.8307H14.8857V37.4486ZM36.2014 49.45C34.6701 49.45 33.3477 49.1318 32.234 48.4955C31.127 47.8525 30.2752 46.9443 29.6786 45.7711C29.0821 44.5911 28.7838 43.2024 28.7838 41.6049C28.7838 40.0338 29.0821 38.655 29.6786 37.4685C30.2819 36.2753 31.1237 35.3473 32.2042 34.6844C33.2847 34.0149 34.5541 33.6801 36.0125 33.6801C36.9537 33.6801 37.842 33.8326 38.6772 34.1375C39.5191 34.4358 40.2615 34.8998 40.9045 35.5296C41.5541 36.1593 42.0645 36.9614 42.4357 37.9358C42.807 38.9036 42.9926 40.057 42.9926 41.3961V42.4997H30.4741V40.0736H39.5423C39.5357 39.3842 39.3865 38.7711 39.0948 38.2341C38.8032 37.6906 38.3955 37.263 37.8718 36.9514C37.3548 36.6399 36.7516 36.4841 36.0622 36.4841C35.3264 36.4841 34.6801 36.6631 34.1232 37.0211C33.5664 37.3724 33.1322 37.8364 32.8207 38.4131C32.5158 38.9832 32.36 39.6096 32.3534 40.2924V42.4103C32.3534 43.2985 32.5158 44.0608 32.8406 44.6972C33.1654 45.3269 33.6195 45.8108 34.2028 46.1489C34.7861 46.4803 35.4689 46.6461 36.2511 46.6461C36.7748 46.6461 37.2487 46.5731 37.673 46.4273C38.0972 46.2748 38.4651 46.0528 38.7767 45.7611C39.0882 45.4694 39.3235 45.1082 39.4826 44.6773L42.8434 45.0551C42.6313 45.9434 42.2269 46.719 41.6304 47.3818C41.0404 48.0381 40.2847 48.5485 39.3633 48.9131C38.4419 49.2711 37.3879 49.45 36.2014 49.45ZM50.4326 49.46C49.4647 49.46 48.5931 49.2876 47.8175 48.9429C47.0486 48.5916 46.4387 48.0746 45.9879 47.3918C45.5438 46.709 45.3218 45.8672 45.3218 44.8662C45.3218 44.0045 45.4808 43.2919 45.799 42.7284C46.1172 42.165 46.5514 41.7142 47.1016 41.3762C47.6518 41.0381 48.2716 40.7829 48.961 40.6105C49.657 40.4316 50.3762 40.3023 51.1186 40.2228C52.0135 40.13 52.7394 40.0471 53.2962 39.9742C53.853 39.8946 54.2574 39.7753 54.5093 39.6162C54.7678 39.4505 54.897 39.1953 54.897 38.8506V38.7909C54.897 38.0419 54.675 37.4619 54.2308 37.0509C53.7867 36.6399 53.147 36.4344 52.3118 36.4344C51.4302 36.4344 50.7308 36.6266 50.2138 37.0111C49.7034 37.3956 49.3587 37.8496 49.1797 38.3733L45.8189 37.8961C46.0841 36.968 46.5216 36.1925 47.1314 35.5693C47.7413 34.9396 48.487 34.469 49.3686 34.1574C50.2503 33.8392 51.2247 33.6801 52.2919 33.6801C53.0277 33.6801 53.7602 33.7663 54.4894 33.9387C55.2185 34.111 55.8847 34.3961 56.4879 34.7938C57.0912 35.1849 57.5751 35.7185 57.9397 36.3946C58.3109 37.0708 58.4965 37.9159 58.4965 38.9301V49.1517H55.0362V47.0537H54.9169C54.6982 47.478 54.3899 47.8757 53.9922 48.2469C53.6011 48.6115 53.1073 48.9065 52.5107 49.1318C51.9207 49.3506 51.228 49.46 50.4326 49.46ZM51.3672 46.8151C52.0897 46.8151 52.7162 46.6726 53.2465 46.3875C53.7768 46.0959 54.1844 45.7114 54.4695 45.2341C54.7611 44.7568 54.907 44.2365 54.907 43.673V41.8733C54.7943 41.9661 54.6021 42.0523 54.3303 42.1318C54.0651 42.2114 53.7668 42.281 53.4354 42.3407C53.104 42.4003 52.7758 42.4533 52.451 42.4997C52.1262 42.5461 51.8445 42.5859 51.6058 42.6191C51.0689 42.692 50.5883 42.8113 50.1641 42.977C49.7398 43.1427 49.4051 43.3747 49.1598 43.673C48.9146 43.9647 48.7919 44.3425 48.7919 44.8066C48.7919 45.4694 49.0339 45.9699 49.5178 46.308C50.0017 46.6461 50.6182 46.8151 51.3672 46.8151ZM68.7777 49.45C67.2531 49.45 65.9439 49.1153 64.8502 48.4458C63.763 47.7763 62.9245 46.8515 62.3345 45.6716C61.7512 44.4851 61.4595 43.1195 61.4595 41.575C61.4595 40.0239 61.7578 38.655 62.3544 37.4685C62.951 36.2753 63.7929 35.3473 64.88 34.6844C65.9737 34.0149 67.2664 33.6801 68.7578 33.6801C69.9974 33.6801 71.0945 33.9088 72.049 34.3662C73.0102 34.817 73.7758 35.4567 74.3459 36.2853C74.916 37.1072 75.2408 38.0684 75.3203 39.1688H71.88C71.7408 38.433 71.4093 37.8198 70.8857 37.3293C70.3686 36.8321 69.6759 36.5836 68.8076 36.5836C68.0718 36.5836 67.4254 36.7824 66.8686 37.1801C66.3118 37.5712 65.8776 38.1347 65.5661 38.8705C65.2611 39.6063 65.1087 40.4879 65.1087 41.5154C65.1087 42.5561 65.2611 43.451 65.5661 44.2C65.871 44.9425 66.2986 45.5158 66.8487 45.9202C67.4056 46.3179 68.0585 46.5168 68.8076 46.5168C69.3379 46.5168 69.8118 46.4174 70.2294 46.2185C70.6537 46.013 71.0083 45.718 71.2933 45.3336C71.5784 44.9491 71.7739 44.4818 71.88 43.9316H75.3203C75.2342 45.0121 74.916 45.9699 74.3658 46.8051C73.8156 47.6337 73.0665 48.2834 72.1186 48.754C71.1707 49.218 70.0571 49.45 68.7777 49.45ZM81.8754 40.2029V49.1517H78.2759V28.7881H81.7958V36.4742H81.9748C82.3328 35.6124 82.8863 34.933 83.6353 34.4358C84.391 33.932 85.3522 33.6801 86.5188 33.6801C87.5794 33.6801 88.5042 33.9022 89.293 34.3463C90.0818 34.7905 90.6917 35.4401 91.1225 36.2952C91.56 37.1503 91.7788 38.1943 91.7788 39.4273V49.1517H88.1794V39.9841C88.1794 38.9567 87.9142 38.1579 87.3839 37.5878C86.8602 37.0111 86.1244 36.7228 85.1765 36.7228C84.5402 36.7228 83.9701 36.862 83.4663 37.1404C82.9691 37.4121 82.578 37.8066 82.293 38.3236C82.0146 38.8407 81.8754 39.4671 81.8754 40.2029ZM102.209 49.45C100.678 49.45 99.3555 49.1318 98.2419 48.4955C97.1348 47.8525 96.283 46.9443 95.6865 45.7711C95.0899 44.5911 94.7916 43.2024 94.7916 41.6049C94.7916 40.0338 95.0899 38.655 95.6865 37.4685C96.2897 36.2753 97.1315 35.3473 98.212 34.6844C99.2925 34.0149 100.562 33.6801 102.02 33.6801C102.962 33.6801 103.85 33.8326 104.685 34.1375C105.527 34.4358 106.269 34.8998 106.912 35.5296C107.562 36.1593 108.072 36.9614 108.444 37.9358C108.815 38.9036 109 40.057 109 41.3961V42.4997H96.4819V40.0736H105.55C105.543 39.3842 105.394 38.7711 105.103 38.2341C104.811 37.6906 104.403 37.263 103.88 36.9514C103.363 36.6399 102.759 36.4841 102.07 36.4841C101.334 36.4841 100.688 36.6631 100.131 37.0211C99.5742 37.3724 99.1401 37.8364 98.8285 38.4131C98.5236 38.9832 98.3678 39.6096 98.3612 40.2924V42.4103C98.3612 43.2985 98.5236 44.0608 98.8484 44.6972C99.1732 45.3269 99.6273 45.8108 100.211 46.1489C100.794 46.4803 101.477 46.6461 102.259 46.6461C102.783 46.6461 103.257 46.5731 103.681 46.4273C104.105 46.2748 104.473 46.0528 104.784 45.7611C105.096 45.4694 105.331 45.1082 105.49 44.6773L108.851 45.0551C108.639 45.9434 108.235 46.719 107.638 47.3818C107.048 48.0381 106.293 48.5485 105.371 48.9131C104.45 49.2711 103.396 49.45 102.209 49.45ZM124.116 37.9159L120.835 38.2739C120.742 37.9425 120.58 37.6309 120.348 37.3392C120.123 37.0476 119.818 36.8122 119.433 36.6333C119.049 36.4543 118.578 36.3648 118.021 36.3648C117.272 36.3648 116.643 36.5272 116.132 36.852C115.628 37.1768 115.38 37.5978 115.386 38.1148C115.38 38.5589 115.542 38.9202 115.874 39.1986C116.212 39.477 116.768 39.7057 117.544 39.8847L120.149 40.4415C121.594 40.7531 122.668 41.2469 123.371 41.923C124.08 42.5992 124.438 43.4841 124.445 44.5779C124.438 45.539 124.156 46.3875 123.599 47.1233C123.049 47.8525 122.284 48.4226 121.303 48.8336C120.322 49.2445 119.195 49.45 117.922 49.45C116.053 49.45 114.548 49.0589 113.408 48.2767C112.268 47.4879 111.588 46.3908 111.369 44.9855L114.879 44.6475C115.038 45.3369 115.376 45.8572 115.893 46.2086C116.411 46.5599 117.083 46.7355 117.912 46.7355C118.767 46.7355 119.453 46.5599 119.97 46.2086C120.494 45.8572 120.756 45.423 120.756 44.906C120.756 44.4685 120.587 44.1072 120.249 43.8222C119.917 43.5371 119.4 43.3184 118.697 43.1659L116.092 42.6191C114.627 42.3141 113.544 41.8004 112.841 41.0779C112.138 40.3487 111.79 39.4273 111.797 38.3137C111.79 37.3724 112.045 36.557 112.563 35.8676C113.086 35.1716 113.812 34.6347 114.74 34.2568C115.675 33.8724 116.752 33.6801 117.972 33.6801C119.761 33.6801 121.17 34.0613 122.197 34.8236C123.232 35.5859 123.871 36.6167 124.116 37.9159ZM134.517 49.1517V28.7881H142.153C143.718 28.7881 145.03 29.0798 146.091 29.6631C147.158 30.2464 147.964 31.0485 148.507 32.0693C149.057 33.0836 149.332 34.237 149.332 35.5296C149.332 36.8354 149.057 37.9955 148.507 39.0097C147.957 40.0239 147.145 40.8227 146.071 41.406C144.997 41.9827 143.675 42.2711 142.104 42.2711H137.043V39.2384H141.607C142.521 39.2384 143.27 39.0793 143.854 38.7611C144.437 38.4429 144.868 38.0054 145.146 37.4486C145.431 36.8918 145.574 36.2521 145.574 35.5296C145.574 34.807 145.431 34.1707 145.146 33.6205C144.868 33.0703 144.434 32.6427 143.844 32.3378C143.26 32.0263 142.508 31.8705 141.587 31.8705H138.206V49.1517H134.517ZM152.537 49.1517V28.7881H160.173C161.737 28.7881 163.05 29.0599 164.11 29.6034C165.178 30.147 165.983 30.9093 166.527 31.8904C167.077 32.8648 167.352 34.0016 167.352 35.3009C167.352 36.6068 167.074 37.7403 166.517 38.7014C165.967 39.656 165.154 40.3951 164.081 40.9188C163.007 41.4358 161.688 41.6943 160.123 41.6943H154.684V38.6318H159.626C160.541 38.6318 161.29 38.5059 161.873 38.254C162.457 37.9955 162.887 37.621 163.166 37.1304C163.451 36.6333 163.593 36.0234 163.593 35.3009C163.593 34.5783 163.451 33.9619 163.166 33.4514C162.881 32.9344 162.447 32.5433 161.863 32.2782C161.28 32.0064 160.528 31.8705 159.606 31.8705H156.226V49.1517H152.537ZM163.056 39.9245L168.098 49.1517H163.981L159.029 39.9245H163.056ZM188.944 38.9699C188.944 41.164 188.533 43.0433 187.711 44.6077C186.895 46.1655 185.782 47.3586 184.37 48.1872C182.964 49.0158 181.37 49.4301 179.587 49.4301C177.804 49.4301 176.206 49.0158 174.794 48.1872C173.389 47.352 172.275 46.1555 171.454 44.5978C170.638 43.0334 170.23 41.1574 170.23 38.9699C170.23 36.7758 170.638 34.8998 171.454 33.3421C172.275 31.7777 173.389 30.5812 174.794 29.7526C176.206 28.924 177.804 28.5097 179.587 28.5097C181.37 28.5097 182.964 28.924 184.37 29.7526C185.782 30.5812 186.895 31.7777 187.711 33.3421C188.533 34.8998 188.944 36.7758 188.944 38.9699ZM185.235 38.9699C185.235 37.4254 184.993 36.1229 184.509 35.0622C184.032 33.995 183.369 33.1896 182.52 32.6461C181.672 32.0959 180.694 31.8208 179.587 31.8208C178.48 31.8208 177.502 32.0959 176.654 32.6461C175.805 33.1896 175.139 33.995 174.655 35.0622C174.178 36.1229 173.939 37.4254 173.939 38.9699C173.939 40.5144 174.178 41.8203 174.655 42.8875C175.139 43.9481 175.805 44.7535 176.654 45.3037C177.502 45.8473 178.48 46.1191 179.587 46.1191C180.694 46.1191 181.672 45.8473 182.52 45.3037C183.369 44.7535 184.032 43.9481 184.509 42.8875C184.993 41.8203 185.235 40.5144 185.235 38.9699ZM22.5703 62.0117H24.6103V65.1317C24.6103 69.3317 23.4303 73.4117 20.4503 75.2117L18.8103 73.2517C21.5703 71.5917 22.5703 68.2717 22.5703 65.1317V62.0117ZM23.0903 62.0117H25.1503V64.9317C25.1503 68.1317 25.9903 71.1517 28.5703 72.5717L27.0303 74.6717C24.0303 72.9917 23.0903 69.1717 23.0903 64.9317V62.0117ZM32.5303 60.4117H35.0703V78.9317H32.5303V60.4117ZM30.3103 67.6117H33.3703V69.7517H30.3103V67.6117ZM28.5303 60.6917H31.0303V78.0917H28.5303V60.6917ZM37.5688 74.7317H54.3288V76.8917H37.5688V74.7317ZM44.5888 71.2317H47.2488V75.6117H44.5888V71.2317ZM39.4488 61.6117H52.4488V67.7717H42.1288V70.8917H39.4888V65.6917H49.8088V63.7117H39.4488V61.6117ZM39.4888 69.8317H52.8688V71.9717H39.4888V69.8317ZM55.9472 69.4117H72.7272V71.5117H55.9472V69.4117ZM63.1272 70.7917H65.8272V74.6917H63.1272V70.7917ZM57.9072 76.4717H70.8872V78.6117H57.9072V76.4717ZM57.9072 73.0717H60.5872V77.0117H57.9072V73.0717ZM64.3272 60.7517C68.3072 60.7517 70.9872 62.2517 70.9872 64.5917C70.9872 66.9517 68.3072 68.4317 64.3272 68.4317C60.3272 68.4317 57.6672 66.9517 57.6672 64.5917C57.6672 62.2517 60.3272 60.7517 64.3272 60.7517ZM64.3272 62.8517C61.9872 62.8517 60.5272 63.4517 60.5272 64.5917C60.5272 65.7317 61.9872 66.3117 64.3272 66.3117C66.6672 66.3117 68.1272 65.7317 68.1272 64.5917C68.1272 63.4517 66.6672 62.8517 64.3272 62.8517ZM88.2266 63.3317H92.5666V65.4517H88.2266V63.3317ZM88.0866 67.1717H92.4266V69.2917H88.0866V67.1717ZM92.1466 60.4117H94.8066V71.0717H92.1466V60.4117ZM86.1066 61.6717H88.9466C88.9466 66.7117 86.1066 69.9517 80.4866 71.4917L79.4466 69.3917C84.1466 68.1717 86.1066 65.8517 86.1066 62.9517V61.6717ZM80.4666 61.6717H87.9666V63.7917H80.4666V61.6717ZM88.6666 71.3117C92.4266 71.3117 94.9266 72.7517 94.9266 75.0717C94.9266 77.3917 92.4266 78.8517 88.6666 78.8517C84.9066 78.8517 82.4066 77.3917 82.4066 75.0717C82.4066 72.7517 84.9066 71.3117 88.6666 71.3117ZM88.6666 73.3517C86.4066 73.3517 85.0466 73.9317 85.0466 75.0717C85.0466 76.2117 86.4066 76.7717 88.6666 76.7717C90.9466 76.7717 92.3066 76.2117 92.3066 75.0717C92.3066 73.9317 90.9466 73.3517 88.6666 73.3517ZM110.545 60.4117H113.205V71.5917H110.545V60.4117ZM108.225 65.8317H111.625V67.9917H108.225V65.8317ZM100.865 72.3717H113.205V78.7317H100.865V72.3717ZM110.605 74.4717H103.485V76.6317H110.605V74.4717ZM97.765 62.0117H108.585V64.1117H97.765V62.0117ZM103.185 64.7117C105.765 64.7117 107.605 66.0917 107.605 68.0517C107.605 70.0317 105.765 71.3717 103.185 71.3717C100.605 71.3717 98.745 70.0317 98.745 68.0517C98.745 66.0917 100.605 64.7117 103.185 64.7117ZM103.185 66.6917C102.045 66.6917 101.285 67.1517 101.285 68.0517C101.285 68.9517 102.045 69.4317 103.185 69.4317C104.305 69.4317 105.065 68.9517 105.065 68.0517C105.065 67.1517 104.305 66.6917 103.185 66.6917ZM101.845 60.2517H104.505V63.5117H101.845V60.2517ZM128.803 60.3917H131.483V78.9717H128.803V60.3917ZM121.503 61.6917C124.303 61.6917 126.363 64.2517 126.363 68.2917C126.363 72.3717 124.303 74.9317 121.503 74.9317C118.703 74.9317 116.643 72.3717 116.643 68.2917C116.643 64.2517 118.703 61.6917 121.503 61.6917ZM121.503 64.1117C120.123 64.1117 119.183 65.5717 119.183 68.2917C119.183 71.0517 120.123 72.5317 121.503 72.5317C122.883 72.5317 123.803 71.0517 123.803 68.2917C123.803 65.5717 122.883 64.1117 121.503 64.1117ZM140.723 67.9117H150.403V70.0317H140.723V67.9117ZM144.203 69.6317H146.883V73.5317H144.203V69.6317ZM140.723 62.0517H150.283V64.1517H143.383V68.5717H140.723V62.0517ZM152.263 60.3917H154.923V78.9717H152.263V60.3917ZM139.863 75.3117L139.543 73.1717C143.083 73.1717 147.443 73.1517 151.243 72.7317L151.443 74.6717C147.443 75.2917 143.303 75.3317 139.863 75.3117ZM169.701 60.3917H172.381V78.9717H169.701V60.3917ZM171.781 67.2517H175.061V69.4317H171.781V67.2517ZM158.581 72.3117H160.141C163.261 72.3117 165.721 72.2117 168.441 71.7317L168.701 73.9317C165.901 74.4317 163.361 74.5117 160.141 74.5117H158.581V72.3117ZM158.581 62.1117H167.221V64.2517H161.221V73.3717H158.581V62.1117ZM178.365 77.308C177.934 77.308 177.564 77.1565 177.257 76.8534C176.949 76.5504 176.797 76.1811 176.802 75.7455C176.797 75.3193 176.949 74.9548 177.257 74.6517C177.564 74.3487 177.934 74.1972 178.365 74.1972C178.781 74.1972 179.143 74.3487 179.451 74.6517C179.764 74.9548 179.922 75.3193 179.927 75.7455C179.922 76.0343 179.847 76.2971 179.7 76.5338C179.558 76.7706 179.368 76.96 179.132 77.102C178.9 77.2393 178.644 77.308 178.365 77.308ZM3.89706 91.8917H12.2771V92.9717H3.89706V91.8917ZM7.40706 89.8417H8.73706V92.1417H7.40706V89.8417ZM4.76706 85.4617H11.3571V90.0117H4.76706V85.4617ZM10.0571 86.5217H6.07706V88.9617H10.0571V86.5217ZM16.0663 85.3917C17.5263 85.3917 18.6163 86.3417 18.6163 87.6717C18.6163 89.0117 17.5263 89.9617 16.0663 89.9617C14.6163 89.9617 13.5063 89.0117 13.5063 87.6717C13.5063 86.3417 14.6163 85.3917 16.0663 85.3917ZM16.0663 86.5317C15.3563 86.5317 14.8163 86.9517 14.8163 87.6717C14.8163 88.4017 15.3563 88.8217 16.0663 88.8217C16.7763 88.8217 17.3163 88.4017 17.3163 87.6717C17.3163 86.9517 16.7763 86.5317 16.0663 86.5317ZM19.4863 84.7717H20.8163V94.0617H19.4863V84.7717ZM13.2863 92.1817L13.1263 91.1117C14.7563 91.1117 17.0263 91.0917 18.9763 90.8017L19.0763 91.7617C17.0663 92.1617 14.8863 92.1817 13.2863 92.1817ZM22.2755 86.1717H26.7055V87.2317H22.2755V86.1717ZM24.5055 87.6417C25.6855 87.6417 26.5355 88.5517 26.5355 89.8517C26.5355 91.1417 25.6855 92.0517 24.5055 92.0517C23.3355 92.0517 22.4755 91.1417 22.4755 89.8517C22.4755 88.5517 23.3355 87.6417 24.5055 87.6417ZM24.5055 88.7517C24.0055 88.7517 23.6555 89.1517 23.6555 89.8517C23.6555 90.5517 24.0055 90.9417 24.5055 90.9417C25.0055 90.9417 25.3655 90.5517 25.3655 89.8517C25.3655 89.1517 25.0055 88.7517 24.5055 88.7517ZM28.9755 84.7817H30.2455V94.0417H28.9755V84.7817ZM27.8655 88.5417H29.3955V89.6117H27.8655V88.5417ZM27.0355 84.9517H28.2755V93.6517H27.0355V84.9517ZM23.8555 85.0317H25.1655V86.8417H23.8555V85.0317ZM35.0647 85.3317H36.4447C36.4447 87.9117 35.2447 89.6017 32.1347 90.4917L31.6347 89.4417C34.2547 88.7317 35.0647 87.5017 35.0647 85.9117V85.3317ZM32.1047 85.3317H35.8447V86.3817H32.1047V85.3317ZM35.1247 87.0617V87.9717L31.8247 88.2117L31.6347 87.1817L35.1247 87.0617ZM37.8447 84.7917H39.1847V90.2417H37.8447V84.7917ZM36.0547 90.3917C37.9947 90.3917 39.2247 91.0717 39.2247 92.2217C39.2247 93.3717 37.9947 94.0417 36.0547 94.0417C34.1047 94.0417 32.8847 93.3717 32.8847 92.2217C32.8847 91.0717 34.1047 90.3917 36.0547 90.3917ZM36.0547 91.4317C34.8447 91.4317 34.2147 91.6817 34.2147 92.2217C34.2147 92.7517 34.8447 93.0217 36.0547 93.0217C37.2547 93.0217 37.8947 92.7517 37.8947 92.2217C37.8947 91.6817 37.2547 91.4317 36.0547 91.4317ZM42.4537 92.1574L42.4075 92.548C42.3744 92.8463 42.3152 93.1494 42.23 93.4571C42.1471 93.7673 42.0595 94.0525 41.9672 94.313C41.8748 94.5734 41.8003 94.7782 41.7435 94.9273H40.877C40.9101 94.7829 40.9551 94.5864 41.0119 94.3378C41.0711 94.0892 41.1279 93.8099 41.1824 93.4997C41.2368 93.1896 41.2735 92.8747 41.2925 92.5551L41.3173 92.1574H42.4537ZM50.679 87.5817H52.469V88.6517H50.679V87.5817ZM49.369 85.4817H50.739C50.739 88.0917 49.649 89.8317 46.539 90.8417L46.019 89.8017C48.639 88.9817 49.369 87.7217 49.369 86.0217V85.4817ZM46.509 85.4817H50.229V86.5417H46.509V85.4817ZM49.529 87.2817V88.1917L46.229 88.4417L46.039 87.4017L49.529 87.2817ZM52.309 84.7817H53.639V91.6217H52.309V84.7817ZM47.589 92.8217H53.889V93.8817H47.589V92.8217ZM47.589 90.9617H48.919V93.5117H47.589V90.9617ZM59.8182 86.1317H62.0982V87.1917H59.8182V86.1317ZM61.5082 84.7817H62.8382V89.4817H61.5082V84.7817ZM56.7182 89.8717H62.8382V92.3617H58.0482V93.5217H56.7382V91.4017H61.5182V90.8917H56.7182V89.8717ZM56.7382 92.9117H63.0982V93.9417H56.7382V92.9117ZM57.2082 85.0817H58.2882V85.7417C58.2882 87.4917 57.4682 89.0017 55.6982 89.5617L55.0182 88.5117C56.5582 88.0517 57.2082 86.9217 57.2082 85.7417V85.0817ZM57.4682 85.0817H58.5482V85.7417C58.5482 86.8417 59.1682 87.9117 60.6282 88.3517L59.9482 89.3817C58.2582 88.8317 57.4682 87.4017 57.4682 85.7417V85.0817ZM64.7975 88.9317H65.5875C67.4975 88.9317 68.6075 88.9117 69.8775 88.7117L70.0075 89.7417C68.7075 89.9617 67.5375 89.9817 65.5875 89.9817H64.7975V88.9317ZM64.7975 85.4217H69.2475V86.4717H66.1175V89.3617H64.7975V85.4217ZM65.7075 87.1817H68.9775V88.2017H65.7075V87.1817ZM70.6475 84.7917H71.9875V90.3817H70.6475V84.7917ZM68.8575 90.5217C70.8075 90.5217 72.0275 91.1717 72.0275 92.2817C72.0275 93.4017 70.8075 94.0417 68.8575 94.0417C66.8975 94.0417 65.6875 93.4017 65.6875 92.2817C65.6875 91.1717 66.8975 90.5217 68.8575 90.5217ZM68.8575 91.5417C67.6475 91.5417 67.0175 91.7817 67.0175 92.2817C67.0175 92.7917 67.6475 93.0317 68.8575 93.0317C70.0575 93.0317 70.6975 92.7917 70.6975 92.2817C70.6975 91.7817 70.0575 91.5417 68.8575 91.5417ZM73.8767 85.7017H77.8667V86.7517H73.8767V85.7017ZM75.0667 88.3517H76.3767V91.4917H75.0667V88.3517ZM77.3367 85.7017H78.6467V86.4517C78.6467 87.3517 78.6467 88.4717 78.3967 90.0117L77.0967 89.8917C77.3367 88.4117 77.3367 87.3417 77.3367 86.4517V85.7017ZM79.4367 84.7817H80.7667V94.0417H79.4367V84.7817ZM80.3767 88.5017H82.0067V89.6017H80.3767V88.5017ZM73.5267 92.1717L73.4067 91.1017C75.0367 91.1017 77.1967 91.0717 79.0167 90.8417L79.0867 91.8117C77.2167 92.1317 75.1367 92.1717 73.5267 92.1717ZM85.9864 85.5617H91.8464V86.6317H85.9864V85.5617ZM85.1764 91.8517H93.5464V92.9317H85.1764V91.8517ZM86.9264 88.9317H88.2464V92.1917H86.9264V88.9317ZM91.4564 85.5617H92.7964V86.4717C92.7964 87.5917 92.7964 88.8717 92.4664 90.7517L91.1464 90.6217C91.4564 88.8617 91.4564 87.5617 91.4564 86.4717V85.5617ZM89.2164 88.9317H90.5264V92.1917H89.2164V88.9317ZM96.3356 89.6217H97.6656V91.4417H96.3356V89.6217ZM99.4256 89.6117H100.746V91.4317H99.4256V89.6117ZM94.3656 89.1017H102.736V90.1517H94.3656V89.1017ZM95.2956 91.0017H101.726V94.0417H100.396V92.0417H95.2956V91.0017ZM98.5556 84.9617C100.586 84.9617 101.906 85.6617 101.906 86.7817C101.906 87.9117 100.586 88.6117 98.5556 88.6117C96.5156 88.6117 95.2056 87.9117 95.2056 86.7817C95.2056 85.6617 96.5156 84.9617 98.5556 84.9617ZM98.5556 85.9917C97.2856 85.9917 96.5756 86.2517 96.5756 86.7817C96.5756 87.3217 97.2856 87.5817 98.5556 87.5817C99.8156 87.5817 100.536 87.3217 100.536 86.7817C100.536 86.2517 99.8156 85.9917 98.5556 85.9917ZM105.335 92.1574L105.288 92.548C105.255 92.8463 105.196 93.1494 105.111 93.4571C105.028 93.7673 104.94 94.0525 104.848 94.313C104.756 94.5734 104.681 94.7782 104.624 94.9273H103.758C103.791 94.7829 103.836 94.5864 103.893 94.3378C103.952 94.0892 104.009 93.8099 104.063 93.4997C104.118 93.1896 104.154 92.8747 104.173 92.5551L104.198 92.1574H105.335ZM109.63 85.6317H115.5V86.6817H109.63V85.6317ZM108.78 91.7517H117.15V92.8317H108.78V91.7517ZM114.8 85.6317H116.12V86.7317C116.12 88.0317 116.12 89.2917 115.79 91.1917L114.46 91.0817C114.8 89.3017 114.8 87.9817 114.8 86.7317V85.6317ZM124.349 84.7717H125.679V94.0617H124.349V84.7717ZM118.469 90.8217H119.289C120.929 90.8217 122.239 90.7617 123.709 90.5117L123.839 91.5817C122.339 91.8517 120.979 91.9017 119.289 91.9017H118.469V90.8217ZM118.459 85.5617H122.829V89.1417H119.819V91.2217H118.469V88.0917H121.469V86.6217H118.459V85.5617ZM128.028 85.5617H133.898V86.6317H128.028V85.5617ZM127.178 91.8517H135.548V92.9317H127.178V91.8517ZM130.138 88.6717H131.468V92.3817H130.138V88.6717ZM133.418 85.5617H134.748V86.4517C134.748 87.6117 134.748 88.9117 134.378 90.8917L133.048 90.7417C133.418 88.9017 133.418 87.5617 133.418 86.4517V85.5617ZM139.258 85.4517H143.218V86.5217H139.258V85.4517ZM140.398 87.6117H141.718V89.9317H140.398V87.6117ZM142.698 85.4517H144.008V86.0317C144.008 86.6817 144.008 87.6017 143.788 88.7517L142.498 88.6117C142.698 87.4717 142.698 86.6717 142.698 86.0317V85.4517ZM144.908 84.7817H146.248V91.7117H144.908V84.7817ZM145.718 87.6017H147.348V88.6917H145.718V87.6017ZM140.068 92.8217H146.538V93.8817H140.068V92.8217ZM140.068 91.0917H141.398V93.1517H140.068V91.0917ZM138.838 90.4717L138.718 89.4217C140.318 89.4217 142.548 89.3917 144.408 89.1317L144.488 90.0717C142.578 90.4317 140.428 90.4717 138.838 90.4717ZM154.427 84.7717H155.757V94.0617H154.427V84.7717ZM148.547 90.8217H149.367C151.007 90.8217 152.317 90.7617 153.787 90.5117L153.917 91.5817C152.417 91.8517 151.057 91.9017 149.367 91.9017H148.547V90.8217ZM148.537 85.5617H152.907V89.1417H149.897V91.2217H148.547V88.0917H151.547V86.6217H148.537V85.5617ZM157.246 88.9317H165.636V89.9017H157.246V88.9317ZM158.186 90.3617H164.636V92.5617H159.526V93.3517H158.206V91.7217H163.326V91.2617H158.186V90.3617ZM158.206 93.0717H164.896V93.9717H158.206V93.0717ZM158.276 84.9417H164.616V87.1217H159.606V87.8817H158.286V86.2917H163.306V85.8317H158.276V84.9417ZM158.286 87.6017H164.786V88.5017H158.286V87.6017ZM174.886 84.7917H176.216V91.7117H174.886V84.7917ZM175.836 87.6117H177.446V88.7017H175.836V87.6117ZM168.926 85.7517H174.376V86.7917H168.926V85.7517ZM171.656 87.1217C172.986 87.1217 173.926 87.8517 173.926 88.9117C173.926 89.9717 172.986 90.6917 171.656 90.6917C170.316 90.6917 169.376 89.9717 169.376 88.9117C169.376 87.8517 170.316 87.1217 171.656 87.1217ZM171.656 88.1317C171.066 88.1317 170.656 88.4117 170.656 88.9117C170.656 89.4117 171.066 89.6817 171.656 89.6817C172.246 89.6817 172.656 89.4117 172.656 88.9117C172.656 88.4117 172.246 88.1317 171.656 88.1317ZM170.986 84.7717H172.316V86.2617H170.986V84.7717ZM170.246 92.8217H176.546V93.8817H170.246V92.8217ZM170.246 91.1917H171.576V93.2817H170.246V91.1917ZM182.505 87.2417H184.885V88.3017H182.505V87.2417ZM184.545 84.7917H185.875V91.6217H184.545V84.7917ZM179.745 92.8217H186.075V93.8817H179.745V92.8217ZM179.745 90.9517H181.085V93.4317H179.745V90.9517ZM178.515 85.3917H179.835V86.8017H181.595V85.3917H182.895V90.1717H178.515V85.3917ZM179.835 87.8117V89.1217H181.595V87.8117H179.835ZM191.025 88.1917H192.545V89.2617H191.025V88.1917ZM194.015 84.7817H195.285V94.0417H194.015V84.7817ZM192.125 84.9217H193.375V93.6217H192.125V84.9217ZM189.405 85.4317C190.635 85.4317 191.425 86.7017 191.425 88.7917C191.425 90.8917 190.635 92.1617 189.405 92.1617C188.185 92.1617 187.405 90.8917 187.405 88.7917C187.405 86.7017 188.185 85.4317 189.405 85.4317ZM189.405 86.6817C188.905 86.6817 188.615 87.3817 188.615 88.7917C188.615 90.2117 188.905 90.9017 189.405 90.9017C189.925 90.9017 190.215 90.2117 190.215 88.7917C190.215 87.3817 189.925 86.6817 189.405 86.6817ZM53.772 107.817C53.4856 107.817 53.224 107.747 52.9872 107.607C52.7505 107.465 52.5611 107.276 52.4191 107.039C52.2794 106.802 52.2095 106.54 52.2095 106.254C52.2095 105.965 52.2794 105.704 52.4191 105.469C52.5611 105.232 52.7505 105.044 52.9872 104.905C53.224 104.763 53.4856 104.692 53.772 104.692C54.0609 104.692 54.3225 104.763 54.5568 104.905C54.7936 105.044 54.9818 105.232 55.1215 105.469C55.2635 105.704 55.3345 105.965 55.3345 106.254C55.3345 106.54 55.2635 106.802 55.1215 107.039C54.9818 107.276 54.7936 107.465 54.5568 107.607C54.3225 107.747 54.0609 107.817 53.772 107.817ZM65.94 103.878C65.9069 103.568 65.7672 103.327 65.521 103.154C65.2771 102.981 64.9599 102.895 64.5693 102.895C64.2946 102.895 64.0591 102.936 63.8626 103.019C63.6661 103.102 63.5158 103.214 63.4116 103.356C63.3074 103.498 63.2542 103.66 63.2518 103.843C63.2518 103.994 63.2861 104.126 63.3548 104.237C63.4258 104.348 63.5217 104.443 63.6424 104.521C63.7632 104.597 63.8969 104.661 64.0437 104.713C64.1905 104.765 64.3384 104.809 64.4876 104.844L65.1694 105.015C65.444 105.079 65.708 105.165 65.9613 105.274C66.217 105.383 66.4455 105.52 66.6467 105.686C66.8503 105.852 67.0113 106.052 67.1296 106.286C67.248 106.52 67.3072 106.795 67.3072 107.11C67.3072 107.536 67.1983 107.911 66.9805 108.236C66.7627 108.558 66.4478 108.81 66.0359 108.992C65.6263 109.172 65.1303 109.262 64.548 109.262C63.9821 109.262 63.4909 109.174 63.0742 108.999C62.6599 108.824 62.3356 108.568 62.1012 108.232C61.8692 107.896 61.7437 107.486 61.7248 107.003H63.021C63.0399 107.257 63.118 107.467 63.2553 107.635C63.3927 107.803 63.5714 107.929 63.7916 108.012C64.0141 108.095 64.2627 108.136 64.5373 108.136C64.8238 108.136 65.0747 108.093 65.2902 108.008C65.508 107.921 65.6784 107.8 65.8015 107.646C65.9246 107.49 65.9874 107.308 65.9897 107.099C65.9874 106.91 65.9317 106.754 65.8228 106.63C65.7139 106.505 65.5612 106.401 65.3647 106.318C65.1706 106.233 64.9433 106.157 64.6829 106.091L63.8555 105.878C63.2565 105.724 62.783 105.491 62.435 105.178C62.0894 104.863 61.9166 104.445 61.9166 103.924C61.9166 103.496 62.0326 103.121 62.2646 102.799C62.499 102.477 62.8174 102.227 63.2198 102.049C63.6223 101.87 64.078 101.78 64.587 101.78C65.1031 101.78 65.5553 101.87 65.9436 102.049C66.3342 102.227 66.6408 102.474 66.8633 102.792C67.0858 103.107 67.2007 103.469 67.2078 103.878H65.94ZM70.8397 109.258C70.2928 109.258 69.8205 109.145 69.4228 108.917C69.0274 108.688 68.7232 108.363 68.5101 107.944C68.2971 107.523 68.1905 107.027 68.1905 106.456C68.1905 105.895 68.2971 105.403 68.5101 104.979C68.7256 104.553 69.0262 104.222 69.4121 103.985C69.798 103.746 70.2514 103.626 70.7722 103.626C71.1084 103.626 71.4256 103.681 71.7239 103.79C72.0246 103.896 72.2897 104.062 72.5194 104.287C72.7514 104.512 72.9337 104.798 73.0663 105.146C73.1988 105.492 73.2651 105.904 73.2651 106.382V106.776H68.7942V105.91H72.0329C72.0305 105.663 71.9772 105.444 71.8731 105.253C71.7689 105.058 71.6233 104.906 71.4363 104.794C71.2516 104.683 71.0362 104.628 70.79 104.628C70.5272 104.628 70.2964 104.692 70.0975 104.819C69.8986 104.945 69.7436 105.111 69.6323 105.317C69.5234 105.52 69.4678 105.744 69.4654 105.988V106.744C69.4654 107.061 69.5234 107.334 69.6394 107.561C69.7554 107.786 69.9176 107.959 70.1259 108.079C70.3342 108.198 70.5781 108.257 70.8574 108.257C71.0445 108.257 71.2137 108.231 71.3653 108.179C71.5168 108.124 71.6482 108.045 71.7594 107.941C71.8707 107.837 71.9547 107.708 72.0116 107.554L73.2118 107.689C73.1361 108.006 72.9917 108.283 72.7786 108.52C72.5679 108.754 72.298 108.936 71.9689 109.067C71.6399 109.194 71.2635 109.258 70.8397 109.258ZM76.7319 109.258C76.1874 109.258 75.7198 109.139 75.3292 108.9C74.941 108.66 74.6415 108.33 74.4308 107.909C74.2224 107.485 74.1183 106.997 74.1183 106.446C74.1183 105.892 74.2248 105.403 74.4379 104.979C74.6509 104.553 74.9516 104.222 75.3399 103.985C75.7305 103.746 76.1921 103.626 76.7248 103.626C77.1675 103.626 77.5593 103.708 77.9002 103.871C78.2435 104.032 78.5169 104.261 78.7205 104.557C78.9241 104.85 79.0402 105.193 79.0686 105.586H77.8399C77.7902 105.324 77.6718 105.105 77.4848 104.929C77.3001 104.752 77.0527 104.663 76.7426 104.663C76.4798 104.663 76.249 104.734 76.0501 104.876C75.8512 105.016 75.6962 105.217 75.5849 105.48C75.476 105.743 75.4215 106.058 75.4215 106.424C75.4215 106.796 75.476 107.116 75.5849 107.383C75.6938 107.648 75.8465 107.853 76.043 107.998C76.2419 108.14 76.475 108.211 76.7426 108.211C76.932 108.211 77.1012 108.175 77.2504 108.104C77.4019 108.031 77.5285 107.925 77.6303 107.788C77.7321 107.651 77.802 107.484 77.8399 107.287H79.0686C79.0378 107.673 78.9241 108.015 78.7276 108.314C78.5312 108.61 78.2636 108.842 77.9251 109.01C77.5866 109.175 77.1888 109.258 76.7319 109.258ZM83.6007 106.858V103.697H84.8862V109.152H83.6398V108.182H83.5829C83.4598 108.488 83.2574 108.737 82.9757 108.932C82.6963 109.126 82.3519 109.223 81.9423 109.223C81.5848 109.223 81.2688 109.143 80.9942 108.985C80.7219 108.824 80.5088 108.591 80.355 108.285C80.2011 107.977 80.1241 107.606 80.1241 107.17V103.697H81.4096V106.971C81.4096 107.317 81.5043 107.592 81.6937 107.795C81.8831 107.999 82.1317 108.101 82.4395 108.101C82.6289 108.101 82.8123 108.054 82.9899 107.962C83.1675 107.87 83.3131 107.732 83.4267 107.55C83.5427 107.366 83.6007 107.135 83.6007 106.858ZM86.2081 109.152V103.697H87.4546V104.606H87.5114C87.6108 104.291 87.7813 104.049 88.0227 103.878C88.2666 103.705 88.5448 103.619 88.8573 103.619C88.9283 103.619 89.0076 103.623 89.0952 103.63C89.1852 103.634 89.2597 103.643 89.3189 103.655V104.837C89.2645 104.818 89.1781 104.802 89.0597 104.787C88.9437 104.771 88.8312 104.763 88.7223 104.763C88.4879 104.763 88.2772 104.813 88.0902 104.915C87.9056 105.015 87.76 105.153 87.6534 105.331C87.5469 105.508 87.4936 105.713 87.4936 105.945V109.152H86.2081ZM92.3631 109.258C91.8163 109.258 91.3439 109.145 90.9462 108.917C90.5509 108.688 90.2466 108.363 90.0336 107.944C89.8205 107.523 89.714 107.027 89.714 106.456C89.714 105.895 89.8205 105.403 90.0336 104.979C90.249 104.553 90.5497 104.222 90.9356 103.985C91.3215 103.746 91.7748 103.626 92.2957 103.626C92.6318 103.626 92.9491 103.681 93.2474 103.79C93.548 103.896 93.8132 104.062 94.0428 104.287C94.2748 104.512 94.4571 104.798 94.5897 105.146C94.7223 105.492 94.7886 105.904 94.7886 106.382V106.776H90.3177V105.91H93.5563C93.5539 105.663 93.5007 105.444 93.3965 105.253C93.2923 105.058 93.1467 104.906 92.9597 104.794C92.7751 104.683 92.5596 104.628 92.3134 104.628C92.0506 104.628 91.8198 104.692 91.6209 104.819C91.4221 104.945 91.267 105.111 91.1557 105.317C91.0468 105.52 90.9912 105.744 90.9888 105.988V106.744C90.9888 107.061 91.0468 107.334 91.1628 107.561C91.2788 107.786 91.441 107.959 91.6493 108.079C91.8577 108.198 92.1015 108.257 92.3809 108.257C92.5679 108.257 92.7372 108.231 92.8887 108.179C93.0402 108.124 93.1716 108.045 93.2829 107.941C93.3941 107.837 93.4782 107.708 93.535 107.554L94.7353 107.689C94.6595 108.006 94.5151 108.283 94.302 108.52C94.0913 108.754 93.8215 108.936 93.4924 109.067C93.1633 109.194 92.7869 109.258 92.3631 109.258ZM104.639 104.333H103.31C103.273 104.115 103.203 103.922 103.101 103.754C102.999 103.584 102.872 103.439 102.721 103.321C102.569 103.202 102.397 103.114 102.202 103.054C102.011 102.993 101.804 102.962 101.581 102.962C101.186 102.962 100.835 103.062 100.53 103.26C100.224 103.457 99.9853 103.746 99.8125 104.127C99.6397 104.506 99.5533 104.968 99.5533 105.515C99.5533 106.072 99.6397 106.54 99.8125 106.922C99.9877 107.3 100.227 107.587 100.53 107.781C100.835 107.973 101.184 108.069 101.577 108.069C101.795 108.069 101.999 108.04 102.188 107.983C102.38 107.924 102.552 107.838 102.703 107.724C102.857 107.611 102.986 107.471 103.09 107.305C103.197 107.139 103.27 106.95 103.31 106.737L104.639 106.744C104.589 107.09 104.481 107.414 104.315 107.717C104.152 108.02 103.938 108.288 103.673 108.52C103.407 108.749 103.097 108.929 102.742 109.059C102.387 109.187 101.993 109.251 101.56 109.251C100.92 109.251 100.35 109.103 99.848 108.807C99.3461 108.511 98.9508 108.084 98.662 107.525C98.3731 106.967 98.2287 106.297 98.2287 105.515C98.2287 104.732 98.3743 104.062 98.6655 103.505C98.9567 102.947 99.3532 102.519 99.8551 102.223C100.357 101.928 100.925 101.78 101.56 101.78C101.965 101.78 102.341 101.836 102.689 101.95C103.037 102.064 103.347 102.231 103.619 102.451C103.892 102.669 104.115 102.936 104.291 103.253C104.468 103.568 104.584 103.928 104.639 104.333ZM108.167 109.258C107.635 109.258 107.173 109.141 106.783 108.907C106.392 108.672 106.089 108.344 105.873 107.923C105.66 107.502 105.554 107.009 105.554 106.446C105.554 105.882 105.66 105.389 105.873 104.965C106.089 104.541 106.392 104.212 106.783 103.978C107.173 103.743 107.635 103.626 108.167 103.626C108.7 103.626 109.162 103.743 109.552 103.978C109.943 104.212 110.245 104.541 110.458 104.965C110.673 105.389 110.781 105.882 110.781 106.446C110.781 107.009 110.673 107.502 110.458 107.923C110.245 108.344 109.943 108.672 109.552 108.907C109.162 109.141 108.7 109.258 108.167 109.258ZM108.175 108.228C108.463 108.228 108.705 108.149 108.899 107.991C109.093 107.83 109.238 107.614 109.332 107.344C109.429 107.074 109.478 106.774 109.478 106.442C109.478 106.108 109.429 105.807 109.332 105.537C109.238 105.264 109.093 105.048 108.899 104.887C108.705 104.726 108.463 104.645 108.175 104.645C107.879 104.645 107.632 104.726 107.436 104.887C107.242 105.048 107.096 105.264 106.999 105.537C106.904 105.807 106.857 106.108 106.857 106.442C106.857 106.774 106.904 107.074 106.999 107.344C107.096 107.614 107.242 107.83 107.436 107.991C107.632 108.149 107.879 108.228 108.175 108.228ZM113.896 109.248C113.468 109.248 113.084 109.138 112.746 108.917C112.407 108.697 112.14 108.378 111.943 107.959C111.747 107.54 111.648 107.031 111.648 106.432C111.648 105.826 111.748 105.314 111.947 104.897C112.148 104.478 112.419 104.162 112.76 103.949C113.101 103.734 113.481 103.626 113.9 103.626C114.219 103.626 114.482 103.681 114.688 103.79C114.894 103.896 115.058 104.025 115.178 104.177C115.299 104.326 115.393 104.467 115.459 104.599H115.512V101.879H116.801V109.152H115.537V108.292H115.459C115.393 108.425 115.297 108.566 115.171 108.715C115.046 108.862 114.88 108.987 114.674 109.091C114.468 109.196 114.209 109.248 113.896 109.248ZM114.255 108.193C114.527 108.193 114.759 108.12 114.951 107.973C115.143 107.824 115.288 107.616 115.388 107.351C115.487 107.086 115.537 106.777 115.537 106.424C115.537 106.072 115.487 105.765 115.388 105.505C115.291 105.244 115.146 105.042 114.955 104.897C114.765 104.753 114.532 104.681 114.255 104.681C113.969 104.681 113.729 104.755 113.538 104.905C113.346 105.054 113.201 105.26 113.104 105.522C113.007 105.785 112.959 106.086 112.959 106.424C112.959 106.765 113.007 107.07 113.104 107.337C113.204 107.602 113.349 107.812 113.541 107.966C113.735 108.117 113.973 108.193 114.255 108.193ZM118.171 109.152V103.697H119.457V109.152H118.171ZM118.817 102.923C118.614 102.923 118.439 102.856 118.292 102.721C118.145 102.583 118.072 102.419 118.072 102.227C118.072 102.033 118.145 101.868 118.292 101.733C118.439 101.596 118.614 101.527 118.817 101.527C119.023 101.527 119.198 101.596 119.343 101.733C119.49 101.868 119.563 102.033 119.563 102.227C119.563 102.419 119.49 102.583 119.343 102.721C119.198 102.856 119.023 102.923 118.817 102.923ZM122.064 105.956V109.152H120.778V103.697H122.007V104.624H122.071C122.197 104.319 122.397 104.076 122.671 103.896C122.948 103.716 123.29 103.626 123.697 103.626C124.074 103.626 124.402 103.707 124.681 103.868C124.963 104.029 125.181 104.262 125.335 104.567C125.491 104.873 125.568 105.243 125.565 105.679V109.152H124.28V105.878C124.28 105.513 124.185 105.228 123.996 105.022C123.809 104.816 123.55 104.713 123.218 104.713C122.993 104.713 122.793 104.763 122.618 104.862C122.445 104.959 122.309 105.1 122.21 105.285C122.112 105.469 122.064 105.693 122.064 105.956ZM129.244 111.311C128.783 111.311 128.386 111.248 128.055 111.123C127.723 111 127.457 110.834 127.256 110.625C127.054 110.417 126.915 110.186 126.837 109.933L127.994 109.652C128.046 109.759 128.122 109.864 128.222 109.968C128.321 110.075 128.455 110.163 128.623 110.231C128.793 110.302 129.008 110.338 129.266 110.338C129.63 110.338 129.932 110.249 130.171 110.071C130.41 109.896 130.53 109.607 130.53 109.205V108.172H130.466C130.4 108.304 130.303 108.44 130.175 108.58C130.049 108.72 129.882 108.837 129.674 108.932C129.468 109.026 129.209 109.074 128.896 109.074C128.477 109.074 128.097 108.975 127.756 108.779C127.418 108.58 127.148 108.284 126.947 107.891C126.748 107.496 126.648 107.001 126.648 106.407C126.648 105.808 126.748 105.302 126.947 104.89C127.148 104.476 127.419 104.162 127.76 103.949C128.101 103.734 128.481 103.626 128.9 103.626C129.219 103.626 129.482 103.681 129.688 103.79C129.897 103.896 130.062 104.025 130.185 104.177C130.308 104.326 130.402 104.467 130.466 104.599H130.537V103.697H131.805V109.241C131.805 109.707 131.693 110.093 131.471 110.398C131.248 110.704 130.944 110.932 130.558 111.084C130.172 111.235 129.734 111.311 129.244 111.311ZM129.255 108.065C129.527 108.065 129.759 107.999 129.951 107.866C130.143 107.734 130.288 107.543 130.388 107.294C130.487 107.046 130.537 106.748 130.537 106.4C130.537 106.056 130.487 105.756 130.388 105.498C130.291 105.24 130.146 105.04 129.955 104.897C129.765 104.753 129.532 104.681 129.255 104.681C128.969 104.681 128.729 104.755 128.538 104.905C128.346 105.054 128.201 105.259 128.104 105.519C128.007 105.777 127.959 106.071 127.959 106.4C127.959 106.733 128.007 107.026 128.104 107.277C128.204 107.525 128.349 107.719 128.541 107.859C128.735 107.996 128.973 108.065 129.255 108.065ZM136.162 101.562H142.022V102.632H136.162V101.562ZM135.352 107.852H143.722V108.932H135.352V107.852ZM137.102 104.932H138.422V108.192H137.102V104.932ZM141.632 101.562H142.972V102.472C142.972 103.592 142.972 104.872 142.642 106.752L141.322 106.622C141.632 104.862 141.632 103.562 141.632 102.472V101.562ZM139.392 104.932H140.702V108.192H139.392V104.932ZM146.511 105.622H147.841V107.442H146.511V105.622ZM149.601 105.612H150.921V107.432H149.601V105.612ZM144.541 105.102H152.911V106.152H144.541V105.102ZM145.471 107.002H151.901V110.042H150.571V108.042H145.471V107.002ZM148.731 100.962C150.761 100.962 152.081 101.662 152.081 102.782C152.081 103.912 150.761 104.612 148.731 104.612C146.691 104.612 145.381 103.912 145.381 102.782C145.381 101.662 146.691 100.962 148.731 100.962ZM148.731 101.992C147.461 101.992 146.751 102.252 146.751 102.782C146.751 103.322 147.461 103.582 148.731 103.582C149.991 103.582 150.711 103.322 150.711 102.782C150.711 102.252 149.991 101.992 148.731 101.992ZM36.2916 119.817C36.0051 119.817 35.7435 119.747 35.5068 119.607C35.27 119.465 35.0806 119.276 34.9386 119.039C34.7989 118.802 34.7291 118.54 34.7291 118.254C34.7291 117.965 34.7989 117.704 34.9386 117.469C35.0806 117.232 35.27 117.044 35.5068 116.905C35.7435 116.763 36.0051 116.692 36.2916 116.692C36.5804 116.692 36.842 116.763 37.0764 116.905C37.3131 117.044 37.5013 117.232 37.641 117.469C37.783 117.704 37.8541 117.965 37.8541 118.254C37.8541 118.54 37.783 118.802 37.641 119.039C37.5013 119.276 37.3131 119.465 37.0764 119.607C36.842 119.747 36.5804 119.817 36.2916 119.817ZM46.5798 114.542H47.6498V114.652C47.6498 116.022 46.8298 117.142 45.0498 117.502L44.5198 116.472C45.9498 116.212 46.5798 115.452 46.5798 114.652V114.542ZM46.8498 114.542H47.9198V114.652C47.9198 115.402 48.5398 116.092 49.9398 116.342L49.4198 117.362C47.6698 117.032 46.8498 115.962 46.8498 114.652V114.542ZM44.7698 113.702H49.7198V114.722H44.7698V113.702ZM46.5798 112.802H47.9198V114.432H46.5798V112.802ZM46.5698 118.042H47.8998V121.762H46.5698V118.042ZM50.6198 112.782H51.9398V122.042H50.6198V112.782ZM44.3798 118.972L44.2198 117.892C45.8998 117.892 48.1498 117.882 50.0898 117.622L50.1798 118.582C48.1798 118.942 46.0298 118.972 44.3798 118.972ZM60.269 113.982H61.869V115.072H60.269V113.982ZM60.269 115.992H61.869V117.082H60.269V115.992ZM59.349 112.782H60.679V118.242H59.349V112.782ZM54.499 118.622H60.679V122.042H59.349V119.682H54.499V118.622ZM55.969 113.282C57.399 113.282 58.489 114.232 58.489 115.552C58.489 116.872 57.399 117.812 55.969 117.812C54.539 117.812 53.449 116.872 53.449 115.552C53.449 114.232 54.539 113.282 55.969 113.282ZM55.969 114.412C55.269 114.412 54.749 114.822 54.749 115.552C54.749 116.282 55.269 116.702 55.969 116.702C56.669 116.702 57.189 116.282 57.189 115.552C57.189 114.822 56.669 114.412 55.969 114.412ZM67.5982 114.912H69.3582V115.992H67.5982V114.912ZM69.0082 112.782H70.3382V118.132H69.0082V112.782ZM64.1682 118.512H70.3382V121.942H64.1682V118.512ZM69.0382 119.552H65.4782V120.892H69.0382V119.552ZM64.7282 113.642H65.8082V114.222C65.8082 115.972 64.9882 117.572 63.2082 118.152L62.5382 117.102C64.0682 116.602 64.7282 115.392 64.7282 114.222V113.642ZM65.0082 113.642H66.0782V114.222C66.0782 115.302 66.7082 116.442 68.1682 116.932L67.5182 117.982C65.7982 117.412 65.0082 115.872 65.0082 114.222V113.642ZM62.8982 113.252H67.8782V114.302H62.8982V113.252ZM74.6079 116.842H75.3779C77.1779 116.842 78.2379 116.812 79.4479 116.592L79.5879 117.632C78.3479 117.852 77.2279 117.892 75.3779 117.892H74.6079V116.842ZM74.6079 113.312H78.9579V114.362H75.9379V117.252H74.6079V113.312ZM75.5279 115.072H78.7579V116.112H75.5279V115.072ZM75.5379 118.602H81.5579V121.942H75.5379V118.602ZM80.2579 119.642H76.8479V120.892H80.2579V119.642ZM80.2279 112.782H81.5579V118.192H80.2279V112.782ZM81.1879 114.942H82.7879V116.042H81.1879V114.942ZM85.6971 114.242H86.7571V115.282C86.7571 117.422 85.8871 119.512 84.1471 120.302L83.3971 119.252C84.9471 118.562 85.6971 116.852 85.6971 115.282V114.242ZM85.9971 114.242H87.0471V115.282C87.0471 116.782 87.7871 118.382 89.3371 119.022L88.6171 120.072C86.8571 119.312 85.9971 117.342 85.9971 115.282V114.242ZM83.7671 113.672H88.9571V114.762H83.7671V113.672ZM89.8171 112.782H91.1571V122.042H89.8171V112.782ZM94.7464 117.472H96.0764V119.662H94.7464V117.472ZM95.3964 113.322C96.8264 113.322 97.9164 114.272 97.9164 115.602C97.9164 116.932 96.8264 117.882 95.3964 117.882C93.9564 117.882 92.8764 116.932 92.8764 115.602C92.8764 114.272 93.9564 113.322 95.3964 113.322ZM95.3964 114.452C94.6964 114.452 94.1764 114.872 94.1764 115.602C94.1764 116.322 94.6964 116.752 95.3964 116.752C96.0964 116.752 96.6164 116.322 96.6164 115.602C96.6164 114.872 96.0964 114.452 95.3964 114.452ZM98.6464 112.782H99.9764V122.042H98.6464V112.782ZM99.5664 116.402H101.196V117.512H99.5664V116.402ZM92.7264 120.202L92.5664 119.132C94.1664 119.122 96.3264 119.132 98.1664 118.882L98.2664 119.852C96.3464 120.212 94.2864 120.212 92.7264 120.202ZM109.136 115.582H110.926V116.652H109.136V115.582ZM107.826 113.482H109.196C109.196 116.092 108.106 117.832 104.996 118.842L104.476 117.802C107.096 116.982 107.826 115.722 107.826 114.022V113.482ZM104.966 113.482H108.686V114.542H104.966V113.482ZM107.986 115.282V116.192L104.686 116.442L104.496 115.402L107.986 115.282ZM110.766 112.782H112.096V119.622H110.766V112.782ZM106.046 120.822H112.346V121.882H106.046V120.822ZM106.046 118.962H107.376V121.512H106.046V118.962ZM118.275 114.132H120.555V115.192H118.275V114.132ZM119.965 112.782H121.295V117.482H119.965V112.782ZM115.175 117.872H121.295V120.362H116.505V121.522H115.195V119.402H119.975V118.892H115.175V117.872ZM115.195 120.912H121.555V121.942H115.195V120.912ZM115.665 113.082H116.745V113.742C116.745 115.492 115.925 117.002 114.155 117.562L113.475 116.512C115.015 116.052 115.665 114.922 115.665 113.742V113.082ZM115.925 113.082H117.005V113.742C117.005 114.842 117.625 115.912 119.085 116.352L118.405 117.382C116.715 116.832 115.925 115.402 115.925 113.742V113.082ZM123.254 116.932H124.044C125.954 116.932 127.064 116.912 128.334 116.712L128.464 117.742C127.164 117.962 125.994 117.982 124.044 117.982H123.254V116.932ZM123.254 113.422H127.704V114.472H124.574V117.362H123.254V113.422ZM124.164 115.182H127.434V116.202H124.164V115.182ZM129.104 112.792H130.444V118.382H129.104V112.792ZM127.314 118.522C129.264 118.522 130.484 119.172 130.484 120.282C130.484 121.402 129.264 122.042 127.314 122.042C125.354 122.042 124.144 121.402 124.144 120.282C124.144 119.172 125.354 118.522 127.314 118.522ZM127.314 119.542C126.104 119.542 125.474 119.782 125.474 120.282C125.474 120.792 126.104 121.032 127.314 121.032C128.514 121.032 129.154 120.792 129.154 120.282C129.154 119.782 128.514 119.542 127.314 119.542ZM136.134 112.912C138.244 112.912 139.484 113.472 139.484 114.492C139.484 115.512 138.244 116.072 136.134 116.072C134.014 116.072 132.784 115.512 132.784 114.492C132.784 113.472 134.014 112.912 136.134 112.912ZM136.134 113.882C134.794 113.882 134.164 114.082 134.164 114.492C134.164 114.922 134.794 115.102 136.134 115.102C137.474 115.102 138.104 114.922 138.104 114.492C138.104 114.082 137.474 113.882 136.134 113.882ZM131.944 116.502H140.314V117.552H131.944V116.502ZM132.904 118.072H139.304V120.452H134.224V121.272H132.914V119.532H137.994V119.062H132.904V118.072ZM132.914 120.982H139.544V121.982H132.914V120.982ZM143.633 117.132H152.013V118.192H143.633V117.132ZM147.163 115.742H148.483V117.542H147.163V115.742ZM144.643 115.322H151.063V116.372H144.643V115.322ZM144.643 113.182H151.013V114.222H145.963V115.992H144.643V113.182ZM147.793 118.652C149.793 118.652 151.003 119.262 151.003 120.352C151.003 121.442 149.793 122.052 147.793 122.052C145.793 122.052 144.573 121.442 144.573 120.352C144.573 119.262 145.793 118.652 147.793 118.652ZM147.793 119.652C146.553 119.652 145.923 119.882 145.923 120.352C145.923 120.832 146.553 121.042 147.793 121.042C149.033 121.042 149.663 120.832 149.663 120.352C149.663 119.882 149.033 119.652 147.793 119.652ZM155.083 113.492H156.163V114.842C156.163 117.222 155.343 119.372 153.503 120.222L152.713 119.122C154.323 118.422 155.083 116.642 155.083 114.842V113.492ZM155.343 113.492H156.423V114.842C156.423 116.552 157.153 118.252 158.733 118.932L157.953 120.002C156.163 119.182 155.343 117.122 155.343 114.842V113.492ZM159.173 112.772H160.513V122.062H159.173V112.772ZM165.722 116.192H167.242V117.262H165.722V116.192ZM168.712 112.782H169.982V122.042H168.712V112.782ZM166.822 112.922H168.072V121.622H166.822V112.922ZM164.102 113.432C165.332 113.432 166.122 114.702 166.122 116.792C166.122 118.892 165.332 120.162 164.102 120.162C162.882 120.162 162.102 118.892 162.102 116.792C162.102 114.702 162.882 113.432 164.102 113.432ZM164.102 114.682C163.602 114.682 163.312 115.382 163.312 116.792C163.312 118.212 163.602 118.902 164.102 118.902C164.622 118.902 164.912 118.212 164.912 116.792C164.912 115.382 164.622 114.682 164.102 114.682ZM33.8111 131.817C33.5246 131.817 33.263 131.747 33.0263 131.607C32.7896 131.465 32.6002 131.276 32.4581 131.039C32.3184 130.802 32.2486 130.54 32.2486 130.254C32.2486 129.965 32.3184 129.704 32.4581 129.469C32.6002 129.232 32.7896 129.044 33.0263 128.905C33.263 128.763 33.5246 128.692 33.8111 128.692C34.0999 128.692 34.3615 128.763 34.5959 128.905C34.8326 129.044 35.0209 129.232 35.1605 129.469C35.3026 129.704 35.3736 129.965 35.3736 130.254C35.3736 130.54 35.3026 130.802 35.1605 131.039C35.0209 131.276 34.8326 131.465 34.5959 131.607C34.3615 131.747 34.0999 131.817 33.8111 131.817ZM41.7193 131.892H50.0993V132.972H41.7193V131.892ZM45.2293 129.912H46.5593V132.152H45.2293V129.912ZM42.5993 125.372H43.9193V126.792H47.8693V125.372H49.1893V130.192H42.5993V125.372ZM43.9193 127.832V129.132H47.8693V127.832H43.9193ZM56.8685 124.782H58.1985V131.512H56.8685V124.782ZM57.8185 127.432H59.4285V128.522H57.8185V127.432ZM52.2285 132.822H58.5285V133.882H52.2285V132.822ZM52.2285 130.812H53.5585V133.292H52.2285V130.812ZM53.4885 125.372C54.9085 125.372 56.0085 126.362 56.0085 127.732C56.0085 129.092 54.9085 130.082 53.4885 130.082C52.0685 130.082 50.9685 129.092 50.9685 127.732C50.9685 126.362 52.0685 125.372 53.4885 125.372ZM53.4885 126.532C52.8085 126.532 52.2685 126.972 52.2685 127.732C52.2685 128.482 52.8085 128.922 53.4885 128.922C54.1785 128.922 54.7085 128.482 54.7085 127.732C54.7085 126.972 54.1785 126.532 53.4885 126.532ZM64.4782 130.632H65.8382V134.042H64.4782V130.632ZM67.6782 130.632H69.0382V134.042H67.6782V130.632ZM62.5882 129.932H70.9782V131.002H62.5882V129.932ZM66.7582 125.092C68.7382 125.092 70.1082 125.902 70.1082 127.172C70.1082 128.422 68.7382 129.232 66.7582 129.232C64.7882 129.232 63.4182 128.422 63.4182 127.172C63.4182 125.902 64.7882 125.092 66.7582 125.092ZM66.7582 126.152C65.5482 126.152 64.7782 126.512 64.7782 127.172C64.7782 127.822 65.5482 128.182 66.7582 128.182C67.9782 128.182 68.7382 127.822 68.7382 127.172C68.7382 126.512 67.9782 126.152 66.7582 126.152ZM74.0175 126.242H75.0775V127.282C75.0775 129.422 74.2075 131.512 72.4675 132.302L71.7175 131.252C73.2675 130.562 74.0175 128.852 74.0175 127.282V126.242ZM74.3175 126.242H75.3675V127.282C75.3675 128.782 76.1075 130.382 77.6575 131.022L76.9375 132.072C75.1775 131.312 74.3175 129.342 74.3175 127.282V126.242ZM72.0875 125.672H77.2775V126.762H72.0875V125.672ZM78.1375 124.782H79.4775V134.042H78.1375V124.782ZM80.9867 128.932H89.3767V129.902H80.9867V128.932ZM81.9267 130.362H88.3767V132.562H83.2667V133.352H81.9467V131.722H87.0667V131.262H81.9267V130.362ZM81.9467 133.072H88.6367V133.972H81.9467V133.072ZM82.0167 124.942H88.3567V127.122H83.3467V127.882H82.0267V126.292H87.0467V125.832H82.0167V124.942ZM82.0267 127.602H88.5267V128.502H82.0267V127.602ZM95.6664 125.152C97.0764 125.152 98.0964 125.962 98.0964 127.132C98.0964 128.282 97.0764 129.112 95.6664 129.112C94.2664 129.112 93.2464 128.282 93.2464 127.132C93.2464 125.962 94.2664 125.152 95.6664 125.152ZM95.6664 126.232C94.9964 126.232 94.5164 126.552 94.5164 127.132C94.5164 127.702 94.9964 128.022 95.6664 128.022C96.3464 128.022 96.8264 127.702 96.8264 127.132C96.8264 126.552 96.3464 126.232 95.6664 126.232ZM95.0464 130.032H96.3764V133.762H95.0464V130.032ZM99.0964 124.782H100.416V134.042H99.0964V124.782ZM92.8564 130.732L92.6964 129.652C94.3164 129.652 96.6064 129.632 98.5664 129.332L98.6564 130.302C96.6464 130.702 94.4564 130.722 92.8564 130.732ZM107.826 124.792H109.156V131.712H107.826V124.792ZM108.776 127.612H110.386V128.702H108.776V127.612ZM101.866 125.752H107.316V126.792H101.866V125.752ZM104.596 127.122C105.926 127.122 106.866 127.852 106.866 128.912C106.866 129.972 105.926 130.692 104.596 130.692C103.256 130.692 102.316 129.972 102.316 128.912C102.316 127.852 103.256 127.122 104.596 127.122ZM104.596 128.132C104.006 128.132 103.596 128.412 103.596 128.912C103.596 129.412 104.006 129.682 104.596 129.682C105.186 129.682 105.596 129.412 105.596 128.912C105.596 128.412 105.186 128.132 104.596 128.132ZM103.926 124.772H105.256V126.262H103.926V124.772ZM103.186 132.822H109.486V133.882H103.186V132.822ZM103.186 131.192H104.516V133.282H103.186V131.192ZM113.555 131.942H121.935V133.022H113.555V131.942ZM117.065 130.192H118.395V132.382H117.065V130.192ZM114.495 125.382H120.995V128.462H115.835V130.022H114.515V127.422H119.675V126.432H114.495V125.382ZM114.515 129.492H121.205V130.562H114.515V129.492ZM123.604 125.632H129.474V126.682H123.604V125.632ZM122.754 131.752H131.124V132.832H122.754V131.752ZM128.774 125.632H130.094V126.732C130.094 128.032 130.094 129.292 129.764 131.192L128.434 131.082C128.774 129.302 128.774 127.982 128.774 126.732V125.632ZM134.834 125.452H138.794V126.522H134.834V125.452ZM135.974 127.612H137.294V129.932H135.974V127.612ZM138.274 125.452H139.584V126.032C139.584 126.682 139.584 127.602 139.364 128.752L138.074 128.612C138.274 127.472 138.274 126.672 138.274 126.032V125.452ZM140.484 124.782H141.824V131.712H140.484V124.782ZM141.294 127.602H142.924V128.692H141.294V127.602ZM135.644 132.822H142.114V133.882H135.644V132.822ZM135.644 131.092H136.974V133.152H135.644V131.092ZM134.414 130.472L134.294 129.422C135.894 129.422 138.124 129.392 139.984 129.132L140.064 130.072C138.154 130.432 136.004 130.472 134.414 130.472ZM150.003 124.772H151.333V134.062H150.003V124.772ZM144.123 130.822H144.943C146.583 130.822 147.893 130.762 149.363 130.512L149.493 131.582C147.993 131.852 146.633 131.902 144.943 131.902H144.123V130.822ZM144.113 125.562H148.483V129.142H145.473V131.222H144.123V128.092H147.123V126.622H144.113V125.562ZM156.283 128.912H162.793V129.972H156.283V128.912ZM155.313 131.912H163.693V133.002H155.313V131.912ZM158.823 129.392H160.153V132.262H158.823V129.392ZM156.283 125.412H162.723V126.482H157.613V129.372H156.283V125.412ZM168.022 129.602H169.352V131.072H168.022V129.602ZM168.692 124.912C170.732 124.912 172.042 125.582 172.042 126.702C172.042 127.812 170.732 128.472 168.692 128.472C166.652 128.472 165.342 127.812 165.342 126.702C165.342 125.582 166.652 124.912 168.692 124.912ZM168.692 125.922C167.422 125.922 166.712 126.182 166.712 126.702C166.712 127.212 167.422 127.462 168.692 127.462C169.952 127.462 170.672 127.212 170.672 126.702C170.672 126.182 169.952 125.922 168.692 125.922ZM165.472 130.782H171.872V133.942H165.472V130.782ZM170.572 131.832H166.782V132.892H170.572V131.832ZM164.502 128.942H172.872V130.002H164.502V128.942ZM50.0904 143.817C49.8039 143.817 49.5423 143.747 49.3056 143.607C49.0689 143.465 48.8795 143.276 48.7374 143.039C48.5977 142.802 48.5279 142.54 48.5279 142.254C48.5279 141.965 48.5977 141.704 48.7374 141.469C48.8795 141.232 49.0689 141.044 49.3056 140.905C49.5423 140.763 49.8039 140.692 50.0904 140.692C50.3792 140.692 50.6408 140.763 50.8752 140.905C51.1119 141.044 51.3002 141.232 51.4398 141.469C51.5819 141.704 51.6529 141.965 51.6529 142.254C51.6529 142.54 51.5819 142.802 51.4398 143.039C51.3002 143.276 51.1119 143.465 50.8752 143.607C50.6408 143.747 50.3792 143.817 50.0904 143.817ZM62.6586 139.672H65.0986V140.742H62.6586V139.672ZM60.1386 137.492H61.2186V138.832C61.2186 141.162 60.4286 143.312 58.6886 144.182L57.8586 143.112C59.4386 142.382 60.1386 140.592 60.1386 138.832V137.492ZM60.4186 137.492H61.4786V138.832C61.4786 140.592 62.1486 142.282 63.6786 142.962L62.8886 144.022C61.1486 143.182 60.4186 141.142 60.4186 138.832V137.492ZM64.4386 136.772H65.7586V146.062H64.4386V136.772ZM73.5378 136.772H74.8778V146.062H73.5378V136.772ZM67.6478 137.512H68.9678V139.762H70.8778V137.512H72.1978V143.902H67.6478V137.512ZM68.9678 140.792V142.832H70.8778V140.792H68.9678ZM79.8271 137.312H80.9871V137.982C80.9871 139.992 79.5571 141.772 77.1571 142.242L76.5871 141.142C78.6771 140.782 79.8271 139.312 79.8271 137.982V137.312ZM80.0971 137.312H81.2471V137.982C81.2471 139.342 82.3871 140.782 84.4871 141.142L83.9171 142.242C81.5171 141.772 80.0971 140.022 80.0971 137.982V137.312ZM76.3971 143.832H84.7771V144.912H76.3971V143.832ZM90.3267 138.292H91.4167V138.632C91.4167 140.252 90.5567 141.692 88.7667 142.192L88.1467 141.162C89.6667 140.732 90.3267 139.672 90.3267 138.632V138.292ZM90.5767 138.292H91.6567V138.632C91.6567 139.602 92.3367 140.602 93.8467 140.992L93.2467 142.032C91.4467 141.562 90.5767 140.182 90.5767 138.632V138.292ZM88.4567 137.702H93.5167V138.742H88.4567V137.702ZM90.3267 136.752H91.6567V138.162H90.3267V136.752ZM94.4267 136.792H95.7667V142.212H94.4267V136.792ZM89.6067 142.612H95.7667V145.942H89.6067V142.612ZM94.4567 143.652H90.9067V144.892H94.4567V143.652ZM103.626 136.782H104.966V141.762H103.626V136.782ZM98.806 142.162H100.116V143.022H103.646V142.162H104.966V145.942H98.806V142.162ZM100.116 144.042V144.882H103.646V144.042H100.116ZM99.926 137.162C101.366 137.162 102.436 138.072 102.436 139.352C102.436 140.632 101.366 141.542 99.926 141.542C98.486 141.542 97.406 140.632 97.406 139.352C97.406 138.072 98.486 137.162 99.926 137.162ZM99.926 138.262C99.216 138.262 98.706 138.672 98.706 139.352C98.706 140.042 99.216 140.442 99.926 140.442C100.626 140.442 101.136 140.042 101.136 139.352C101.136 138.672 100.626 138.262 99.926 138.262ZM108.545 138.242H109.595V139.282C109.595 141.372 108.715 143.502 107.015 144.302L106.265 143.252C107.795 142.532 108.545 140.802 108.545 139.282V138.242ZM108.825 138.242H109.875V139.282C109.875 140.682 110.595 142.322 112.115 143.022L111.385 144.072C109.685 143.282 108.825 141.252 108.825 139.282V138.242ZM106.625 137.672H111.705V138.762H106.625V137.672ZM112.385 136.782H113.725V146.042H112.385V136.782ZM113.425 140.312H115.065V141.412H113.425V140.312ZM118.135 141.592H126.515V142.642H118.135V141.592ZM119.075 143.232H125.495V146.042H124.165V144.282H119.075V143.232ZM119.175 140.022H125.625V141.032H119.175V140.022ZM119.175 136.992H125.555V138.002H120.495V140.532H119.175V136.992ZM120.125 138.512H125.345V139.482H120.125V138.512ZM132.364 139.022H134.124V140.102H132.364V139.022ZM133.764 136.782H135.094V142.282H133.764V136.782ZM131.954 142.482C133.914 142.482 135.124 143.152 135.124 144.272C135.124 145.402 133.914 146.052 131.954 146.052C129.994 146.052 128.784 145.402 128.784 144.272C128.784 143.152 129.994 142.482 131.954 142.482ZM131.954 143.492C130.754 143.492 130.114 143.742 130.114 144.272C130.114 144.792 130.754 145.042 131.954 145.042C133.164 145.042 133.804 144.792 133.804 144.272C133.804 143.742 133.164 143.492 131.954 143.492ZM129.484 137.712H130.564V138.292C130.564 140.062 129.744 141.682 127.974 142.282L127.294 141.232C128.824 140.712 129.484 139.482 129.484 138.292V137.712ZM129.764 137.712H130.834V138.292C130.834 139.382 131.464 140.512 132.924 141.002L132.274 142.052C130.554 141.482 129.764 139.942 129.764 138.292V137.712ZM127.654 137.342H132.634V138.402H127.654V137.342ZM140.004 140.912H146.514V141.972H140.004V140.912ZM139.034 143.912H147.414V145.002H139.034V143.912ZM142.544 141.392H143.874V144.262H142.544V141.392ZM140.004 137.412H146.444V138.482H141.334V141.372H140.004V137.412ZM151.743 141.602H153.073V143.072H151.743V141.602ZM152.413 136.912C154.453 136.912 155.763 137.582 155.763 138.702C155.763 139.812 154.453 140.472 152.413 140.472C150.373 140.472 149.063 139.812 149.063 138.702C149.063 137.582 150.373 136.912 152.413 136.912ZM152.413 137.922C151.143 137.922 150.433 138.182 150.433 138.702C150.433 139.212 151.143 139.462 152.413 139.462C153.673 139.462 154.393 139.212 154.393 138.702C154.393 138.182 153.673 137.922 152.413 137.922ZM149.193 142.782H155.593V145.942H149.193V142.782ZM154.293 143.832H150.503V144.892H154.293V143.832ZM148.223 140.942H156.593V142.002H148.223V140.942Z" fill="white"/>
</svg>
