<svg width="36" height="14" viewBox="0 0 36 14" fill="none" xmlns="http://www.w3.org/2000/svg">
<path d="M0 0H14V14H0V0Z" fill="#D9D9D9"/>
<path d="M18.5739 10V4.18182H20.8011C21.2216 4.18182 21.571 4.24811 21.8494 4.38068C22.1297 4.51136 22.339 4.69034 22.4773 4.91761C22.6174 5.14489 22.6875 5.40246 22.6875 5.69034C22.6875 5.92708 22.642 6.12973 22.5511 6.2983C22.4602 6.46496 22.3381 6.60038 22.1847 6.70455C22.0312 6.80871 21.8598 6.88352 21.6705 6.92898V6.9858C21.8769 6.99716 22.0748 7.06061 22.2642 7.17614C22.4555 7.28977 22.6117 7.45076 22.733 7.65909C22.8542 7.86742 22.9148 8.11932 22.9148 8.41477C22.9148 8.71591 22.8419 8.98674 22.696 9.22727C22.5502 9.46591 22.3305 9.65436 22.0369 9.79261C21.7434 9.93087 21.3741 10 20.929 10H18.5739ZM19.6278 9.11932H20.7614C21.1439 9.11932 21.4195 9.0464 21.5881 8.90057C21.7585 8.75284 21.8438 8.56345 21.8438 8.33239C21.8438 8.16004 21.8011 8.00473 21.7159 7.86648C21.6307 7.72633 21.5095 7.61648 21.3523 7.53693C21.1951 7.45549 21.0076 7.41477 20.7898 7.41477H19.6278V9.11932ZM19.6278 6.65625H20.6705C20.8523 6.65625 21.0161 6.62311 21.1619 6.55682C21.3078 6.48864 21.4223 6.39299 21.5057 6.26989C21.5909 6.14489 21.6335 5.99716 21.6335 5.8267C21.6335 5.60133 21.554 5.41572 21.3949 5.26989C21.2377 5.12405 21.0038 5.05114 20.6932 5.05114H19.6278V6.65625ZM26.9936 5.78125C26.9671 5.53314 26.8554 5.33996 26.6584 5.2017C26.4633 5.06345 26.2095 4.99432 25.897 4.99432C25.6773 4.99432 25.4889 5.02746 25.3317 5.09375C25.1745 5.16004 25.0542 5.25 24.9709 5.36364C24.8875 5.47727 24.8449 5.60701 24.843 5.75284C24.843 5.87405 24.8705 5.97917 24.9254 6.06818C24.9822 6.1572 25.0589 6.23295 25.1555 6.29545C25.2521 6.35606 25.3591 6.4072 25.4766 6.44886C25.594 6.49053 25.7124 6.52557 25.8317 6.55398L26.3771 6.69034C26.5968 6.74148 26.808 6.81061 27.0107 6.89773C27.2152 6.98485 27.398 7.0947 27.5589 7.22727C27.7218 7.35985 27.8506 7.51989 27.9453 7.70739C28.04 7.89489 28.0874 8.11458 28.0874 8.36648C28.0874 8.70739 28.0002 9.00758 27.826 9.26705C27.6518 9.52462 27.3999 9.72633 27.0703 9.87216C26.7427 10.0161 26.3459 10.0881 25.88 10.0881C25.4273 10.0881 25.0343 10.018 24.701 9.87784C24.3696 9.73769 24.1101 9.53314 23.9226 9.2642C23.737 8.99527 23.6366 8.66761 23.6214 8.28125H24.6584C24.6735 8.4839 24.736 8.65246 24.8459 8.78693C24.9557 8.9214 25.0987 9.02178 25.2749 9.08807C25.4529 9.15436 25.6518 9.1875 25.8714 9.1875C26.1006 9.1875 26.3014 9.15341 26.4737 9.08523C26.648 9.01515 26.7843 8.91856 26.8828 8.79545C26.9813 8.67045 27.0315 8.52462 27.0334 8.35795C27.0315 8.20644 26.987 8.08144 26.8999 7.98295C26.8127 7.88258 26.6906 7.79924 26.5334 7.73295C26.3781 7.66477 26.1963 7.60417 25.9879 7.55114L25.326 7.38068C24.8468 7.25758 24.468 7.07102 24.1896 6.82102C23.9131 6.56913 23.7749 6.23485 23.7749 5.81818C23.7749 5.47538 23.8677 5.17519 24.0533 4.91761C24.2408 4.66004 24.4955 4.46023 24.8175 4.31818C25.1394 4.17424 25.504 4.10227 25.9112 4.10227C26.3241 4.10227 26.6858 4.17424 26.9964 4.31818C27.3089 4.46023 27.5542 4.65814 27.7322 4.91193C27.9103 5.16383 28.0021 5.4536 28.0078 5.78125H26.9936ZM34.0071 6.14489H32.9446C32.9143 5.97064 32.8584 5.81629 32.777 5.68182C32.6955 5.54545 32.5942 5.42992 32.473 5.33523C32.3518 5.24053 32.2135 5.16951 32.0582 5.12216C31.9048 5.07292 31.7391 5.0483 31.5611 5.0483C31.2448 5.0483 30.9645 5.12784 30.7202 5.28693C30.4759 5.44413 30.2846 5.67519 30.1463 5.98011C30.008 6.28314 29.9389 6.65341 29.9389 7.09091C29.9389 7.53598 30.008 7.91098 30.1463 8.21591C30.2865 8.51894 30.4777 8.74811 30.7202 8.90341C30.9645 9.05682 31.2438 9.13352 31.5582 9.13352C31.7325 9.13352 31.8954 9.1108 32.0469 9.06534C32.2003 9.01799 32.3376 8.94886 32.4588 8.85795C32.5819 8.76705 32.6851 8.6553 32.7685 8.52273C32.8537 8.39015 32.9124 8.23864 32.9446 8.06818L34.0071 8.07386C33.9673 8.35038 33.8812 8.60985 33.7486 8.85227C33.6179 9.0947 33.4465 9.30871 33.2344 9.49432C33.0223 9.67803 32.7741 9.82197 32.4901 9.92614C32.206 10.0284 31.8906 10.0795 31.544 10.0795C31.0327 10.0795 30.5762 9.96117 30.1747 9.72443C29.7732 9.48769 29.4569 9.14583 29.2259 8.69886C28.9948 8.25189 28.8793 7.71591 28.8793 7.09091C28.8793 6.46402 28.9957 5.92803 29.2287 5.48295C29.4616 5.03598 29.7789 4.69413 30.1804 4.45739C30.5819 4.22064 31.0365 4.10227 31.544 4.10227C31.8679 4.10227 32.169 4.14773 32.4474 4.23864C32.7259 4.32955 32.974 4.46307 33.1918 4.6392C33.4096 4.81345 33.5885 5.02746 33.7287 5.28125C33.8707 5.53314 33.9635 5.82102 34.0071 6.14489Z" fill="black"/>
</svg>
