<svg width="182" height="94" viewBox="0 0 182 94" fill="none" xmlns="http://www.w3.org/2000/svg">
<g filter="url(#filter0_b_113_7)">
<path d="M1.07457 17V4.63636H3.68857V9.73757H8.99503V4.63636H11.603V17H8.99503V11.8928H3.68857V17H1.07457ZM13.7099 17V7.72727H16.2816V17H13.7099ZM15.0018 6.53196C14.6194 6.53196 14.2914 6.40518 14.0178 6.15163C13.7481 5.89406 13.6133 5.58617 13.6133 5.22798C13.6133 4.87382 13.7481 4.56996 14.0178 4.31641C14.2914 4.05883 14.6194 3.93004 15.0018 3.93004C15.3841 3.93004 15.7101 4.05883 15.9798 4.31641C16.2534 4.56996 16.3903 4.87382 16.3903 5.22798C16.3903 5.58617 16.2534 5.89406 15.9798 6.15163C15.7101 6.40518 15.3841 6.53196 15.0018 6.53196ZM22.5193 20.6705C21.6862 20.6705 20.9718 20.5558 20.3762 20.3263C19.7845 20.101 19.3137 19.7931 18.9635 19.4027C18.6134 19.0123 18.386 18.5736 18.2813 18.0866L20.6599 17.7667C20.7323 17.9518 20.847 18.1249 21.004 18.2859C21.161 18.4469 21.3682 18.5756 21.6258 18.6722C21.8874 18.7728 22.2053 18.8232 22.5796 18.8232C23.1391 18.8232 23.5999 18.6863 23.9621 18.4126C24.3283 18.143 24.5115 17.6902 24.5115 17.0543V15.358H24.4028C24.2901 15.6155 24.1211 15.859 23.8957 16.0884C23.6703 16.3178 23.3805 16.505 23.0264 16.6499C22.6722 16.7947 22.2496 16.8672 21.7586 16.8672C21.0624 16.8672 20.4285 16.7062 19.857 16.3842C19.2895 16.0582 18.8367 15.5612 18.4987 14.8931C18.1646 14.221 17.9976 13.3718 17.9976 12.3455C17.9976 11.2951 18.1686 10.4177 18.5107 9.71342C18.8528 9.00911 19.3076 8.48189 19.8751 8.13175C20.4466 7.78161 21.0724 7.60653 21.7526 7.60653C22.2718 7.60653 22.7064 7.69508 23.0566 7.87216C23.4067 8.04522 23.6884 8.26255 23.9017 8.52415C24.1191 8.78172 24.2861 9.03527 24.4028 9.2848H24.4994V7.72727H27.053V17.0906C27.053 17.8794 26.8598 18.5394 26.4735 19.0707C26.0871 19.6019 25.5518 20.0004 24.8676 20.266C24.1875 20.5356 23.4047 20.6705 22.5193 20.6705ZM22.5736 14.9354C22.9881 14.9354 23.3383 14.8327 23.624 14.6275C23.9138 14.4182 24.1352 14.1204 24.2881 13.734C24.445 13.3436 24.5235 12.8768 24.5235 12.3335C24.5235 11.7901 24.4471 11.3192 24.2941 10.9208C24.1412 10.5183 23.9198 10.2064 23.6301 9.98508C23.3403 9.76373 22.9881 9.65305 22.5736 9.65305C22.151 9.65305 21.7948 9.76776 21.5051 9.99716C21.2153 10.2225 20.9959 10.5365 20.847 10.9389C20.6981 11.3414 20.6237 11.8062 20.6237 12.3335C20.6237 12.8687 20.6981 13.3316 20.847 13.7219C21 14.1083 21.2193 14.4081 21.5051 14.6214C21.7948 14.8307 22.151 14.9354 22.5736 14.9354ZM31.6713 11.6392V17H29.0995V4.63636H31.5988V9.36328H31.7075C31.9168 8.81593 32.2548 8.38731 32.7217 8.07741C33.1885 7.76349 33.7741 7.60653 34.4784 7.60653C35.1224 7.60653 35.6838 7.7474 36.1627 8.02912C36.6457 8.30682 37.02 8.70727 37.2856 9.23047C37.5553 9.74964 37.6881 10.3714 37.684 11.0959V17H35.1123V11.5547C35.1163 10.9832 34.9714 10.5385 34.6776 10.2205C34.3879 9.90258 33.9814 9.74361 33.4582 9.74361C33.108 9.74361 32.7981 9.81806 32.5285 9.96697C32.2629 10.1159 32.0536 10.3332 31.9007 10.619C31.7517 10.9007 31.6753 11.2408 31.6713 11.6392ZM46.2142 4.63636V17H43.6425V4.63636H46.2142ZM52.5002 17.1811C51.5463 17.1811 50.7253 16.9879 50.0371 16.6016C49.3529 16.2112 48.8257 15.6598 48.4554 14.9474C48.0852 14.2311 47.9 13.3839 47.9 12.4059C47.9 11.4521 48.0852 10.6149 48.4554 9.89453C48.8257 9.17412 49.3469 8.61269 50.019 8.21023C50.6951 7.80776 51.488 7.60653 52.3975 7.60653C53.0093 7.60653 53.5788 7.70514 54.106 7.90234C54.6373 8.09553 55.1001 8.38731 55.4945 8.7777C55.8929 9.16809 56.2028 9.65909 56.4242 10.2507C56.6455 10.8383 56.7562 11.5265 56.7562 12.3153V13.0217H48.9263V11.4279H54.3354C54.3354 11.0576 54.2549 10.7296 54.0939 10.4439C53.9329 10.1581 53.7096 9.93478 53.4238 9.77379C53.1421 9.60878 52.8141 9.52628 52.4398 9.52628C52.0494 9.52628 51.7033 9.61683 51.4015 9.79794C51.1036 9.97502 50.8702 10.2145 50.7012 10.5163C50.5321 10.8142 50.4456 11.1462 50.4416 11.5124V13.0277C50.4416 13.4865 50.5261 13.8829 50.6951 14.217C50.8682 14.551 51.1117 14.8086 51.4256 14.9897C51.7395 15.1708 52.1118 15.2614 52.5424 15.2614C52.8282 15.2614 53.0898 15.2211 53.3272 15.1406C53.5647 15.0601 53.7679 14.9394 53.937 14.7784C54.106 14.6174 54.2348 14.4202 54.3233 14.1868L56.7019 14.3438C56.5811 14.9152 56.3336 15.4143 55.9593 15.8409C55.5891 16.2635 55.1101 16.5935 54.5225 16.831C53.939 17.0644 53.2649 17.1811 52.5002 17.1811ZM66.8303 7.72727L63.5885 17H60.6908L57.449 7.72727H60.1656L62.0914 14.3619H62.1879L64.1077 7.72727H66.8303ZM72.0734 17.1811C71.1196 17.1811 70.2986 16.9879 69.6104 16.6016C68.9262 16.2112 68.3989 15.6598 68.0287 14.9474C67.6584 14.2311 67.4733 13.3839 67.4733 12.4059C67.4733 11.4521 67.6584 10.6149 68.0287 9.89453C68.3989 9.17412 68.9201 8.61269 69.5922 8.21023C70.2684 7.80776 71.0612 7.60653 71.9708 7.60653C72.5825 7.60653 73.152 7.70514 73.6792 7.90234C74.2105 8.09553 74.6733 8.38731 75.0677 8.7777C75.4662 9.16809 75.7761 9.65909 75.9974 10.2507C76.2188 10.8383 76.3295 11.5265 76.3295 12.3153V13.0217H68.4996V11.4279H73.9086C73.9086 11.0576 73.8282 10.7296 73.6672 10.4439C73.5062 10.1581 73.2828 9.93478 72.9971 9.77379C72.7153 9.60878 72.3873 9.52628 72.0131 9.52628C71.6227 9.52628 71.2765 9.61683 70.9747 9.79794C70.6769 9.97502 70.4434 10.2145 70.2744 10.5163C70.1054 10.8142 70.0189 11.1462 70.0148 11.5124V13.0277C70.0148 13.4865 70.0993 13.8829 70.2684 14.217C70.4414 14.551 70.6849 14.8086 70.9988 14.9897C71.3128 15.1708 71.685 15.2614 72.1157 15.2614C72.4014 15.2614 72.663 15.2211 72.9005 15.1406C73.1379 15.0601 73.3412 14.9394 73.5102 14.7784C73.6792 14.6174 73.808 14.4202 73.8966 14.1868L76.2751 14.3438C76.1544 14.9152 75.9069 15.4143 75.5326 15.8409C75.1623 16.2635 74.6834 16.5935 74.0958 16.831C73.5122 17.0644 72.8381 17.1811 72.0734 17.1811ZM80.5795 4.63636V17H78.0077V4.63636H80.5795ZM90.7638 17.1811C89.826 17.1811 89.0151 16.9819 88.3309 16.5835C87.6507 16.181 87.1255 15.6216 86.7552 14.9052C86.385 14.1848 86.1998 13.3497 86.1998 12.3999C86.1998 11.442 86.385 10.6049 86.7552 9.88849C87.1255 9.16809 87.6507 8.60866 88.3309 8.21023C89.0151 7.80776 89.826 7.60653 90.7638 7.60653C91.7015 7.60653 92.5104 7.80776 93.1906 8.21023C93.8748 8.60866 94.402 9.16809 94.7723 9.88849C95.1425 10.6049 95.3277 11.442 95.3277 12.3999C95.3277 13.3497 95.1425 14.1848 94.7723 14.9052C94.402 15.6216 93.8748 16.181 93.1906 16.5835C92.5104 16.9819 91.7015 17.1811 90.7638 17.1811ZM90.7758 15.1889C91.2024 15.1889 91.5586 15.0682 91.8444 14.8267C92.1301 14.5812 92.3454 14.2472 92.4903 13.8246C92.6392 13.402 92.7137 12.921 92.7137 12.3817C92.7137 11.8424 92.6392 11.3615 92.4903 10.9389C92.3454 10.5163 92.1301 10.1823 91.8444 9.93679C91.5586 9.69129 91.2024 9.56854 90.7758 9.56854C90.3452 9.56854 89.983 9.69129 89.6892 9.93679C89.3994 10.1823 89.1801 10.5163 89.0312 10.9389C88.8863 11.3615 88.8138 11.8424 88.8138 12.3817C88.8138 12.921 88.8863 13.402 89.0312 13.8246C89.1801 14.2472 89.3994 14.5812 89.6892 14.8267C89.983 15.0682 90.3452 15.1889 90.7758 15.1889ZM101.986 7.72727V9.65909H96.2634V7.72727H101.986ZM97.5734 17V7.05717C97.5734 6.38506 97.7042 5.82765 97.9658 5.38494C98.2314 4.94223 98.5937 4.6102 99.0525 4.38885C99.5113 4.16749 100.032 4.05682 100.616 4.05682C101.01 4.05682 101.371 4.087 101.697 4.14737C102.027 4.20774 102.272 4.26207 102.433 4.31037L101.974 6.24219C101.874 6.20999 101.749 6.17981 101.6 6.15163C101.455 6.12346 101.306 6.10938 101.153 6.10938C100.775 6.10938 100.511 6.19792 100.362 6.375C100.214 6.54806 100.139 6.79155 100.139 7.10547V17H97.5734ZM11.4435 34.0472C11.3725 33.3311 11.0677 32.7747 10.5291 32.3782C9.99053 31.9817 9.25959 31.7834 8.33629 31.7834C7.70893 31.7834 7.17921 31.8722 6.74716 32.0497C6.3151 32.2214 5.98366 32.4611 5.75284 32.7688C5.52794 33.0766 5.41548 33.4258 5.41548 33.8164C5.40365 34.1419 5.47171 34.426 5.61967 34.6687C5.77356 34.9113 5.98366 35.1214 6.25 35.299C6.51634 35.4706 6.8241 35.6216 7.1733 35.7518C7.52249 35.8761 7.89536 35.9826 8.2919 36.0714L9.92543 36.462C10.7185 36.6396 11.4465 36.8763 12.1094 37.1722C12.7723 37.4682 13.3464 37.8321 13.8317 38.2642C14.317 38.6963 14.6928 39.2053 14.9592 39.7912C15.2314 40.3771 15.3705 41.0489 15.3764 41.8065C15.3705 42.9192 15.0864 43.8839 14.5241 44.7006C13.9678 45.5115 13.1629 46.1418 12.1094 46.5916C11.0618 47.0355 9.79818 47.2575 8.31854 47.2575C6.85073 47.2575 5.57232 47.0326 4.48331 46.5827C3.40021 46.1329 2.55386 45.4671 1.94425 44.5852C1.34055 43.6974 1.02391 42.5996 0.994318 41.2915H4.71413C4.75556 41.9012 4.93016 42.4102 5.23793 42.8185C5.55161 43.221 5.96887 43.5258 6.4897 43.733C7.01645 43.9342 7.61127 44.0348 8.27415 44.0348C8.92519 44.0348 9.49041 43.9401 9.96982 43.7507C10.4551 43.5613 10.831 43.2979 11.0973 42.9606C11.3636 42.6232 11.4968 42.2356 11.4968 41.7976C11.4968 41.3892 11.3755 41.0459 11.1328 40.7678C10.8961 40.4896 10.5469 40.2528 10.0852 40.0575C9.6295 39.8622 9.07019 39.6847 8.40732 39.5249L6.42756 39.0277C4.89465 38.6548 3.6843 38.0719 2.79652 37.2788C1.90874 36.4857 1.4678 35.4174 1.47372 34.0739C1.4678 32.973 1.76077 32.0112 2.35263 31.1886C2.9504 30.3659 3.77012 29.7237 4.81179 29.2621C5.85346 28.8004 7.03717 28.5696 8.36293 28.5696C9.71236 28.5696 10.8902 28.8004 11.8963 29.2621C12.9084 29.7237 13.6955 30.3659 14.2578 31.1886C14.8201 32.0112 15.1101 32.9641 15.1278 34.0472H11.4435ZM17.9621 47V28.8182H30.2135V31.9876H21.8062V36.32H29.5832V39.4893H21.8062V43.8306H30.249V47H17.9621ZM49.312 35.1836H45.4235C45.3525 34.6805 45.2074 34.2337 44.9885 33.843C44.7695 33.4465 44.4883 33.1091 44.1451 32.831C43.8018 32.5528 43.4052 32.3397 42.9554 32.1918C42.5115 32.0438 42.0292 31.9698 41.5083 31.9698C40.5673 31.9698 39.7476 32.2036 39.0492 32.6712C38.3508 33.1328 37.8092 33.8075 37.4245 34.6953C37.0398 35.5772 36.8475 36.6484 36.8475 37.9091C36.8475 39.2053 37.0398 40.2943 37.4245 41.1761C37.8152 42.058 38.3597 42.7238 39.0581 43.1737C39.7565 43.6235 40.5643 43.8484 41.4817 43.8484C41.9966 43.8484 42.4731 43.7803 42.911 43.6442C43.3549 43.508 43.7485 43.3098 44.0918 43.0494C44.4351 42.783 44.7192 42.4605 44.9441 42.0817C45.1749 41.7029 45.3347 41.2708 45.4235 40.7855L49.312 40.8033C49.2114 41.6378 48.9598 42.4427 48.5574 43.218C48.1608 43.9875 47.6252 44.677 46.9505 45.2866C46.2817 45.8903 45.4827 46.3697 44.5534 46.7248C43.6301 47.074 42.5855 47.2486 41.4196 47.2486C39.7979 47.2486 38.3478 46.8816 37.0694 46.1477C35.7969 45.4138 34.7908 44.3514 34.051 42.9606C33.3171 41.5697 32.9501 39.8859 32.9501 37.9091C32.9501 35.9264 33.323 34.2396 34.0687 32.8487C34.8145 31.4579 35.8265 30.3984 37.1049 29.6705C38.3833 28.9366 39.8216 28.5696 41.4196 28.5696C42.4731 28.5696 43.4496 28.7176 44.3493 29.0135C45.2548 29.3094 46.0568 29.7415 46.7551 30.3097C47.4535 30.8719 48.0217 31.5614 48.4597 32.3782C48.9036 33.195 49.1877 34.1301 49.312 35.1836ZM63.299 28.8182H67.1431V40.6257C67.1431 41.9515 66.8265 43.1115 66.1932 44.1058C65.5658 45.1001 64.6869 45.8755 63.5565 46.4318C62.426 46.9822 61.1091 47.2575 59.6058 47.2575C58.0966 47.2575 56.7768 46.9822 55.6463 46.4318C54.5159 45.8755 53.637 45.1001 53.0096 44.1058C52.3822 43.1115 52.0685 41.9515 52.0685 40.6257V28.8182H55.9126V40.2972C55.9126 40.9897 56.0636 41.6052 56.3654 42.1438C56.6732 42.6824 57.1052 43.1056 57.6616 43.4134C58.2179 43.7211 58.866 43.875 59.6058 43.875C60.3516 43.875 60.9996 43.7211 61.5501 43.4134C62.1064 43.1056 62.5355 42.6824 62.8374 42.1438C63.1451 41.6052 63.299 40.9897 63.299 40.2972V28.8182ZM70.3058 47V28.8182H77.4791C78.8522 28.8182 80.0241 29.0638 80.9948 29.555C81.9713 30.0404 82.7141 30.7299 83.2231 31.6236C83.738 32.5114 83.9955 33.556 83.9955 34.7575C83.9955 35.9648 83.7351 37.0036 83.2142 37.8736C82.6934 38.7377 81.9388 39.4006 80.9504 39.8622C79.9679 40.3239 78.7783 40.5547 77.3815 40.5547H72.5786V37.4652H76.76C77.4939 37.4652 78.1035 37.3646 78.5889 37.1634C79.0742 36.9621 79.4352 36.6603 79.672 36.2578C79.9146 35.8554 80.036 35.3552 80.036 34.7575C80.036 34.1538 79.9146 33.6448 79.672 33.2305C79.4352 32.8162 79.0712 32.5025 78.58 32.2894C78.0947 32.0704 77.4821 31.9609 76.7423 31.9609H74.1499V47H70.3058ZM80.1247 38.7259L84.6436 47H80.3999L75.9788 38.7259H80.1247ZM90.5562 28.8182V47H86.7121V28.8182H90.5562ZM93.0265 31.9876V28.8182H107.959V31.9876H102.393V47H98.5929V31.9876H93.0265ZM109.353 28.8182H113.659L117.805 36.6484H117.982L122.128 28.8182H126.434L119.802 40.5724V47H115.985V40.5724L109.353 28.8182ZM17.6225 65.1836H13.734C13.663 64.6805 13.518 64.2337 13.299 63.843C13.08 63.4465 12.7989 63.1091 12.4556 62.831C12.1123 62.5528 11.7158 62.3397 11.266 62.1918C10.8221 62.0438 10.3397 61.9698 9.81889 61.9698C8.87784 61.9698 8.05812 62.2036 7.35973 62.6712C6.66134 63.1328 6.11979 63.8075 5.73509 64.6953C5.35038 65.5772 5.15803 66.6484 5.15803 67.9091C5.15803 69.2053 5.35038 70.2943 5.73509 71.1761C6.12571 72.058 6.67022 72.7238 7.36861 73.1737C8.067 73.6235 8.87488 73.8484 9.79226 73.8484C10.3072 73.8484 10.7836 73.7803 11.2216 73.6442C11.6655 73.508 12.0591 73.3098 12.4023 73.0494C12.7456 72.783 13.0297 72.4605 13.2546 72.0817C13.4854 71.7029 13.6452 71.2708 13.734 70.7855L17.6225 70.8033C17.5219 71.6378 17.2704 72.4427 16.8679 73.218C16.4714 73.9875 15.9357 74.677 15.261 75.2866C14.5922 75.8903 13.7932 76.3697 12.864 76.7248C11.9407 77.074 10.8961 77.2486 9.73011 77.2486C8.10843 77.2486 6.65838 76.8816 5.37997 76.1477C4.10748 75.4138 3.10133 74.3514 2.36151 72.9606C1.6276 71.5697 1.26065 69.8859 1.26065 67.9091C1.26065 65.9264 1.63352 64.2396 2.37926 62.8487C3.125 61.4579 4.13707 60.3984 5.41548 59.6705C6.69389 58.9366 8.1321 58.5696 9.73011 58.5696C10.7836 58.5696 11.7602 58.7176 12.6598 59.0135C13.5653 59.3094 14.3673 59.7415 15.0657 60.3097C15.7641 60.8719 16.3323 61.5614 16.7702 62.3782C17.2141 63.195 17.4982 64.1301 17.6225 65.1836ZM37.0872 67.9091C37.0872 69.8918 36.7114 71.5786 35.9597 72.9695C35.214 74.3603 34.196 75.4227 32.9057 76.1566C31.6214 76.8846 30.1773 77.2486 28.5733 77.2486C26.9576 77.2486 25.5075 76.8816 24.2232 76.1477C22.9389 75.4138 21.9238 74.3514 21.1781 72.9606C20.4324 71.5697 20.0595 69.8859 20.0595 67.9091C20.0595 65.9264 20.4324 64.2396 21.1781 62.8487C21.9238 61.4579 22.9389 60.3984 24.2232 59.6705C25.5075 58.9366 26.9576 58.5696 28.5733 58.5696C30.1773 58.5696 31.6214 58.9366 32.9057 59.6705C34.196 60.3984 35.214 61.4579 35.9597 62.8487C36.7114 64.2396 37.0872 65.9264 37.0872 67.9091ZM33.1898 67.9091C33.1898 66.6248 32.9975 65.5417 32.6127 64.6598C32.234 63.7779 31.6983 63.1091 31.0059 62.6534C30.3134 62.1977 29.5025 61.9698 28.5733 61.9698C27.6441 61.9698 26.8333 62.1977 26.1408 62.6534C25.4483 63.1091 24.9097 63.7779 24.525 64.6598C24.1462 65.5417 23.9569 66.6248 23.9569 67.9091C23.9569 69.1934 24.1462 70.2765 24.525 71.1584C24.9097 72.0402 25.4483 72.709 26.1408 73.1648C26.8333 73.6205 27.6441 73.8484 28.5733 73.8484C29.5025 73.8484 30.3134 73.6205 31.0059 73.1648C31.6983 72.709 32.234 72.0402 32.6127 71.1584C32.9975 70.2765 33.1898 69.1934 33.1898 67.9091ZM55.1425 58.8182V77H51.8222L43.912 65.5565H43.7789V77H39.9347V58.8182H43.3083L51.1563 70.2528H51.3161V58.8182H55.1425ZM68.1818 64.0472C68.1108 63.3311 67.806 62.7747 67.2674 62.3782C66.7288 61.9817 65.9979 61.7834 65.0746 61.7834C64.4472 61.7834 63.9175 61.8722 63.4854 62.0497C63.0534 62.2214 62.7219 62.4611 62.4911 62.7688C62.2662 63.0766 62.1538 63.4258 62.1538 63.8164C62.1419 64.1419 62.21 64.426 62.358 64.6687C62.5118 64.9113 62.7219 65.1214 62.9883 65.299C63.2546 65.4706 63.5624 65.6216 63.9116 65.7518C64.2608 65.8761 64.6336 65.9826 65.0302 66.0714L66.6637 66.462C67.4568 66.6396 68.1848 66.8763 68.8477 67.1722C69.5105 67.4682 70.0846 67.8321 70.57 68.2642C71.0553 68.6963 71.4311 69.2053 71.6974 69.7912C71.9697 70.3771 72.1088 71.0489 72.1147 71.8065C72.1088 72.9192 71.8247 73.8839 71.2624 74.7006C70.7061 75.5115 69.9012 76.1418 68.8477 76.5916C67.8001 77.0355 66.5365 77.2575 65.0568 77.2575C63.589 77.2575 62.3106 77.0326 61.2216 76.5827C60.1385 76.1329 59.2921 75.4671 58.6825 74.5852C58.0788 73.6974 57.7622 72.5996 57.7326 71.2915H61.4524C61.4938 71.9012 61.6684 72.4102 61.9762 72.8185C62.2899 73.221 62.7071 73.5258 63.228 73.733C63.7547 73.9342 64.3496 74.0348 65.0124 74.0348C65.6635 74.0348 66.2287 73.9401 66.7081 73.7507C67.1934 73.5613 67.5692 73.2979 67.8356 72.9606C68.1019 72.6232 68.2351 72.2356 68.2351 71.7976C68.2351 71.3892 68.1138 71.0459 67.8711 70.7678C67.6344 70.4896 67.2852 70.2528 66.8235 70.0575C66.3678 69.8622 65.8085 69.6847 65.1456 69.5249L63.1658 69.0277C61.6329 68.6548 60.4226 68.0719 59.5348 67.2788C58.647 66.4857 58.2061 65.4174 58.212 64.0739C58.2061 62.973 58.4991 62.0112 59.0909 61.1886C59.6887 60.3659 60.5084 59.7237 61.5501 59.2621C62.5917 58.8004 63.7754 58.5696 65.1012 58.5696C66.4506 58.5696 67.6284 58.8004 68.6346 59.2621C69.6467 59.7237 70.4338 60.3659 70.9961 61.1886C71.5584 62.0112 71.8484 62.9641 71.8661 64.0472H68.1818ZM85.9308 58.8182H89.7749V70.6257C89.7749 71.9515 89.4583 73.1115 88.825 74.1058C88.1977 75.1001 87.3187 75.8755 86.1883 76.4318C85.0579 76.9822 83.741 77.2575 82.2377 77.2575C80.7284 77.2575 79.4086 76.9822 78.2781 76.4318C77.1477 75.8755 76.2688 75.1001 75.6414 74.1058C75.0141 73.1115 74.7004 71.9515 74.7004 70.6257V58.8182H78.5445V70.2972C78.5445 70.9897 78.6954 71.6052 78.9972 72.1438C79.305 72.6824 79.7371 73.1056 80.2934 73.4134C80.8498 73.7211 81.4978 73.875 82.2377 73.875C82.9834 73.875 83.6315 73.7211 84.1819 73.4134C84.7383 73.1056 85.1673 72.6824 85.4692 72.1438C85.777 71.6052 85.9308 70.9897 85.9308 70.2972V58.8182ZM92.9377 77V58.8182H96.7818V73.8306H104.577V77H92.9377ZM104.159 61.9876V58.8182H119.092V61.9876H113.525V77H109.726V61.9876H104.159ZM125.395 58.8182V77H121.551V58.8182H125.395ZM143.766 58.8182V77H140.445L132.535 65.5565H132.402V77H128.558V58.8182H131.931L139.779 70.2528H139.939V58.8182H143.766ZM158.998 64.6953C158.873 64.2633 158.699 63.8815 158.474 63.5501C158.249 63.2127 157.974 62.9286 157.648 62.6978C157.329 62.4611 156.962 62.2805 156.547 62.1562C156.139 62.032 155.686 61.9698 155.189 61.9698C154.26 61.9698 153.443 62.2006 152.739 62.6623C152.04 63.1239 151.496 63.7957 151.105 64.6776C150.715 65.5535 150.519 66.6248 150.519 67.8913C150.519 69.1579 150.712 70.2351 151.096 71.1229C151.481 72.0107 152.026 72.6883 152.73 73.1559C153.434 73.6175 154.266 73.8484 155.225 73.8484C156.095 73.8484 156.837 73.6945 157.453 73.3867C158.074 73.073 158.548 72.6321 158.873 72.0639C159.205 71.4957 159.371 70.824 159.371 70.0487L160.152 70.1641H155.464V67.2699H163.073V69.5604C163.073 71.1584 162.735 72.5315 162.061 73.6797C161.386 74.822 160.457 75.7038 159.273 76.3253C158.089 76.9408 156.734 77.2486 155.207 77.2486C153.502 77.2486 152.005 76.8728 150.715 76.1211C149.424 75.3635 148.418 74.2893 147.696 72.8984C146.98 71.5017 146.622 69.8445 146.622 67.9268C146.622 66.4531 146.835 65.1392 147.261 63.9851C147.693 62.825 148.297 61.8426 149.072 61.0376C149.848 60.2327 150.75 59.6201 151.78 59.1999C152.81 58.7797 153.925 58.5696 155.127 58.5696C156.157 58.5696 157.116 58.7205 158.003 59.0224C158.891 59.3183 159.678 59.7385 160.365 60.283C161.057 60.8275 161.623 61.4756 162.061 62.2273C162.499 62.973 162.78 63.7957 162.904 64.6953H158.998Z" fill="white"/>
</g>
<path d="M2.77 89.66H4.11V91.57H2.77V89.66ZM2.76 86.36H3.82V86.57C3.82 88.12 2.99 89.47 1.23 89.94L0.63 88.92C2.11 88.53 2.76 87.56 2.76 86.57V86.36ZM3.04 86.36H4.11V86.57C4.11 87.52 4.78 88.46 6.25 88.84L5.66 89.86C3.9 89.41 3.04 88.08 3.04 86.57V86.36ZM0.91 85.72H5.98V86.77H0.91V85.72ZM2.77 84.71H4.11V86.18H2.77V84.71ZM6.8 84.62H8.13V93.91H6.8V84.62ZM0.6 92.19L0.44 91.11C2.06 91.11 4.34 91.09 6.29 90.8L6.39 91.77C4.38 92.16 2.2 92.18 0.6 92.19ZM11.6292 85.13H12.7192V85.95C12.7192 87.79 11.9192 89.41 10.1592 90.02L9.44922 88.97C10.9992 88.45 11.6292 87.21 11.6292 85.95V85.13ZM11.8992 85.13H12.9792V86.08C12.9792 87.19 13.5992 88.27 15.0492 88.72L14.3592 89.75C12.6892 89.19 11.8992 87.75 11.8992 86.08V85.13ZM15.5592 84.63H16.8892V90.1H15.5592V84.63ZM16.5192 86.77H18.1192V87.87H16.5192V86.77ZM13.8692 90.31C15.7892 90.31 16.9992 90.98 16.9992 92.1C16.9992 93.23 15.7892 93.89 13.8692 93.89C11.9392 93.89 10.7292 93.23 10.7292 92.1C10.7292 90.98 11.9392 90.31 13.8692 90.31ZM13.8692 91.34C12.6892 91.34 12.0492 91.59 12.0492 92.1C12.0492 92.62 12.6892 92.86 13.8692 92.86C15.0492 92.86 15.6792 92.62 15.6792 92.1C15.6792 91.59 15.0492 91.34 13.8692 91.34ZM21.7784 85.24C23.2384 85.24 24.3284 86.19 24.3284 87.52C24.3284 88.86 23.2384 89.81 21.7784 89.81C20.3284 89.81 19.2184 88.86 19.2184 87.52C19.2184 86.19 20.3284 85.24 21.7784 85.24ZM21.7784 86.38C21.0684 86.38 20.5284 86.8 20.5284 87.52C20.5284 88.25 21.0684 88.67 21.7784 88.67C22.4884 88.67 23.0284 88.25 23.0284 87.52C23.0284 86.8 22.4884 86.38 21.7784 86.38ZM25.1984 84.62H26.5284V93.91H25.1984V84.62ZM18.9984 92.03L18.8384 90.96C20.4684 90.96 22.7384 90.94 24.6884 90.65L24.7884 91.61C22.7784 92.01 20.5984 92.03 18.9984 92.03ZM34.9821 87.52H37.4221V88.59H34.9821V87.52ZM32.4621 85.34H33.5421V86.68C33.5421 89.01 32.7521 91.16 31.0121 92.03L30.1821 90.96C31.7621 90.23 32.4621 88.44 32.4621 86.68V85.34ZM32.7421 85.34H33.8021V86.68C33.8021 88.44 34.4721 90.13 36.0021 90.81L35.2121 91.87C33.4721 91.03 32.7421 88.99 32.7421 86.68V85.34ZM36.7621 84.62H38.0821V93.91H36.7621V84.62ZM45.8613 84.62H47.2013V93.91H45.8613V84.62ZM39.9713 85.36H41.2913V87.61H43.2013V85.36H44.5213V91.75H39.9713V85.36ZM41.2913 88.64V90.68H43.2013V88.64H41.2913ZM52.1505 85.16H53.3105V85.83C53.3105 87.84 51.8805 89.62 49.4805 90.09L48.9105 88.99C51.0005 88.63 52.1505 87.16 52.1505 85.83V85.16ZM52.4205 85.16H53.5705V85.83C53.5705 87.19 54.7105 88.63 56.8105 88.99L56.2405 90.09C53.8405 89.62 52.4205 87.87 52.4205 85.83V85.16ZM48.7205 91.68H57.1005V92.76H48.7205V91.68ZM57.9098 88.78H66.2998V89.75H57.9098V88.78ZM58.8498 90.21H65.2998V92.41H60.1898V93.2H58.8698V91.57H63.9898V91.11H58.8498V90.21ZM58.8698 92.92H65.5598V93.82H58.8698V92.92ZM58.9398 84.79H65.2798V86.97H60.2698V87.73H58.9498V86.14H63.9698V85.68H58.9398V84.79ZM58.9498 87.45H65.4498V88.35H58.9498V87.45ZM76.1134 84.63H77.3734V93.89H76.1134V84.63ZM73.0634 87.79H74.5934V88.87H73.0634V87.79ZM74.2434 84.78H75.4834V93.47H74.2434V84.78ZM71.0634 86.14H72.0634V87.09C72.0634 89.17 71.4934 91.24 70.0234 92.16L69.2334 91.18C70.5934 90.33 71.0634 88.67 71.0634 87.09V86.14ZM71.3634 86.14H72.3534V87.09C72.3534 88.63 72.8134 90.19 74.1534 90.97L73.3734 91.94C71.9034 91.07 71.3634 89.13 71.3634 87.09V86.14ZM69.5834 85.56H73.7134V86.63H69.5834V85.56ZM82.7627 90.39C84.7627 90.39 86.0427 91.05 86.0427 92.15C86.0427 93.23 84.7627 93.89 82.7627 93.89C80.7627 93.89 79.4827 93.23 79.4827 92.15C79.4827 91.05 80.7627 90.39 82.7627 90.39ZM82.7627 91.39C81.5127 91.39 80.8027 91.65 80.8027 92.15C80.8027 92.64 81.5127 92.89 82.7627 92.89C84.0127 92.89 84.7227 92.64 84.7227 92.15C84.7227 91.65 84.0127 91.39 82.7627 91.39ZM79.5827 85.04H85.4427V86.09H79.5827V85.04ZM78.6427 88.76H86.9827V89.82H78.6427V88.76ZM81.7327 87.15H83.0527V89.03H81.7327V87.15ZM84.6727 85.04H85.9927V85.8C85.9927 86.53 85.9927 87.32 85.7427 88.28L84.4227 88.14C84.6727 87.19 84.6727 86.52 84.6727 85.8V85.04ZM87.8119 86.02H92.2419V87.08H87.8119V86.02ZM90.0419 87.49C91.2219 87.49 92.0719 88.4 92.0719 89.7C92.0719 90.99 91.2219 91.9 90.0419 91.9C88.8719 91.9 88.0119 90.99 88.0119 89.7C88.0119 88.4 88.8719 87.49 90.0419 87.49ZM90.0419 88.6C89.5419 88.6 89.1919 89 89.1919 89.7C89.1919 90.4 89.5419 90.79 90.0419 90.79C90.5419 90.79 90.9019 90.4 90.9019 89.7C90.9019 89 90.5419 88.6 90.0419 88.6ZM94.5119 84.63H95.7819V93.89H94.5119V84.63ZM93.4019 88.39H94.9319V89.46H93.4019V88.39ZM92.5719 84.8H93.8119V93.5H92.5719V84.8ZM89.3919 84.88H90.7019V86.69H89.3919V84.88ZM100.316 88.9H106.826V89.96H100.316V88.9ZM99.3455 91.69H107.726V92.78H99.3455V91.69ZM100.316 85.39H106.756V86.47H101.636V89.34H100.316V85.39ZM114.895 84.63H116.235V89.8H114.895V84.63ZM109.015 88.57H109.825C111.625 88.57 112.795 88.54 114.135 88.31L114.285 89.38C112.905 89.6 111.675 89.64 109.825 89.64H109.015V88.57ZM109.005 85.05H113.265V87.81H110.325V89.27H109.015V86.81H111.955V86.1H109.005V85.05ZM110.075 90.18H111.385V90.96H114.915V90.18H116.235V93.79H110.075V90.18ZM111.385 91.98V92.73H114.915V91.98H111.385ZM124.144 84.63H125.474V93.89H124.144V84.63ZM118.224 85.51H119.544V91.26H118.224V85.51ZM118.224 90.48H119.044C120.394 90.48 121.894 90.38 123.424 90.08L123.574 91.18C121.984 91.51 120.454 91.61 119.044 91.61H118.224V90.48ZM132.853 84.62H134.193V93.91H132.853V84.62ZM133.893 88.05H135.533V89.14H133.893V88.05ZM127.293 90.58H128.073C129.633 90.58 130.863 90.53 132.223 90.29L132.353 91.39C130.953 91.64 129.683 91.68 128.073 91.68H127.293V90.58ZM127.293 85.48H131.613V86.55H128.613V91.11H127.293V85.48ZM137.22 93.0923C136.986 93.0923 136.785 93.0095 136.617 92.8438C136.451 92.6757 136.368 92.4744 136.368 92.2401C136.368 92.008 136.451 91.8092 136.617 91.6435C136.785 91.4777 136.986 91.3949 137.22 91.3949C137.448 91.3949 137.646 91.4777 137.817 91.6435C137.987 91.8092 138.073 92.008 138.073 92.2401C138.073 92.3963 138.032 92.5395 137.952 92.6697C137.874 92.7976 137.771 92.9006 137.643 92.9787C137.515 93.0545 137.374 93.0923 137.22 93.0923Z" fill="white"/>
<defs>
<filter id="filter0_b_113_7" x="-3.00574" y="-0.0699463" width="170.078" height="81.3274" filterUnits="userSpaceOnUse" color-interpolation-filters="sRGB">
<feFlood flood-opacity="0" result="BackgroundImageFix"/>
<feGaussianBlur in="BackgroundImageFix" stdDeviation="2"/>
<feComposite in2="SourceAlpha" operator="in" result="effect1_backgroundBlur_113_7"/>
<feBlend mode="normal" in="SourceGraphic" in2="effect1_backgroundBlur_113_7" result="shape"/>
</filter>
</defs>
</svg>
