<svg width="354" height="110" viewBox="0 0 354 110" fill="none" xmlns="http://www.w3.org/2000/svg">
<path d="M4 17C4 16.4477 4.44772 16 5 16H59C59.5523 16 60 16.4477 60 17V20C60 20.5523 59.5523 21 59 21H5C4.44771 21 4 20.5523 4 20V17Z" fill="#2049D4"/>
<path d="M0 42C0 39.2386 2.23858 37 5 37H48C48.5523 37 49 37.4477 49 38V45C49 47.7614 46.7614 50 44 50H1C0.447715 50 0 49.5523 0 49V42Z" fill="#0000FF"/>
<path d="M0 42C0 39.2386 2.23858 37 5 37H48C48.5523 37 49 37.4477 49 38V45C49 47.7614 46.7614 50 44 50H1C0.447715 50 0 49.5523 0 49V42Z" fill="#800080" fill-opacity="0.8"/>
<path d="M256 18C256 17.4477 256.448 17 257 17H298C298.552 17 299 17.4477 299 18V20C299 20.5523 298.552 21 298 21H257C256.448 21 256 20.5523 256 20V18Z" fill="#9553CD" fill-opacity="0.6"/>
<path d="M256 18C256 17.4477 256.448 17 257 17H298C298.552 17 299 17.4477 299 18V20C299 20.5523 298.552 21 298 21H257C256.448 21 256 20.5523 256 20V18Z" fill="#2049D4" fill-opacity="0.5"/>
<path d="M256 18C256 17.4477 256.448 17 257 17H298C298.552 17 299 17.4477 299 18V20C299 20.5523 298.552 21 298 21H257C256.448 21 256 20.5523 256 20V18Z" fill="#FF0000" fill-opacity="0.7"/>
<path d="M11.26 5.18H13.38V7.26C13.38 11.54 11.64 15.72 8.16 17.3L6.66 15.2C9.76 13.82 11.26 10.4 11.26 7.26V5.18ZM11.86 5.18H13.96V7.26C13.96 10.26 15.44 13.46 18.54 14.74L17.1 16.84C13.58 15.32 11.86 11.38 11.86 7.26V5.18ZM7.4 4.04H17.78V6.22H7.4V4.04ZM19.5 2.26H22.18V20.78H19.5V2.26ZM25.1984 11.24H41.9584V13.36H25.1984V11.24ZM32.2184 8.84H34.8584V12.16H32.2184V8.84ZM32.1784 2.58H34.4584V3.14C34.4584 6.56 31.7384 9.24 27.0184 9.92L26.0384 7.84C30.1984 7.34 32.1784 5.22 32.1784 3.14V2.58ZM32.6184 2.58H34.8984V3.14C34.8984 5.3 36.8384 7.34 41.0384 7.84L40.0584 9.92C35.3384 9.22 32.6184 6.64 32.6184 3.14V2.58ZM27.0584 14.66H39.9184V20.78H37.2584V16.74H27.0584V14.66ZM47.8769 4.1H50.0369V5.28C50.0369 8.76 48.3969 11.98 44.8369 13.14L43.4969 11.04C46.5569 10.04 47.8769 7.6 47.8769 5.28V4.1ZM48.4369 4.1H50.5769V5.28C50.5769 7.44 51.8369 9.72 54.7569 10.7L53.4569 12.78C50.0169 11.64 48.4369 8.56 48.4369 5.28V4.1ZM53.6769 6.68H57.1969V8.84H53.6769V6.68ZM44.2169 3.28H54.1769V5.38H44.2169V3.28ZM46.4769 14.12H59.0969V20.78H56.4369V16.24H46.4769V14.12ZM56.4369 2.26H59.0969V13.28H56.4369V2.26ZM70.3753 3.18C74.2753 3.18 77.2953 5.32 77.2953 8.54C77.2953 11.78 74.2753 13.9 70.3753 13.9C66.4753 13.9 63.4553 11.78 63.4553 8.54C63.4553 5.32 66.4753 3.18 70.3753 3.18ZM70.3753 5.34C67.8553 5.34 66.0553 6.54 66.0553 8.54C66.0553 10.52 67.8553 11.72 70.3753 11.72C72.8953 11.72 74.6953 10.52 74.6953 8.54C74.6953 6.54 72.8953 5.34 70.3753 5.34ZM62.0153 16.38H78.7753V18.56H62.0153V16.38ZM80.4138 16.58H97.1738V18.74H80.4138V16.58ZM87.4338 13.08H90.0938V17.46H87.4338V13.08ZM82.2938 3.46H95.2938V9.62H84.9738V12.74H82.3338V7.54H92.6538V5.56H82.2938V3.46ZM82.3338 11.68H95.7138V13.82H82.3338V11.68ZM103.753 11.74H120.513V13.84H103.753V11.74ZM111.013 12.86H113.693V16.76H111.013V12.86ZM105.693 18.34H118.673V20.46H105.693V18.34ZM105.693 15.36H108.333V19.24H105.693V15.36ZM105.893 2.84H108.513V4.74H115.733V2.84H118.373V10.46H105.893V2.84ZM108.513 6.74V8.38H115.733V6.74H108.513ZM131.612 5.7H135.372V7.86H131.612V5.7ZM126.392 3.22H128.572V4.96C128.572 8.62 126.952 11.8 123.432 13.02L122.032 10.92C125.132 9.9 126.392 7.46 126.392 4.96V3.22ZM126.932 3.22H129.072V5.12C129.072 7.42 130.312 9.68 133.212 10.62L131.832 12.7C128.472 11.54 126.932 8.54 126.932 5.12V3.22ZM125.032 14.12H137.652V20.78H134.992V16.22H125.032V14.12ZM134.992 2.26H137.652V13.28H134.992V2.26ZM152.43 2.26H155.07V20.78H152.43V2.26ZM154.47 9.48H157.75V11.7H154.47V9.48ZM140.47 5H151.25V7.12H140.47V5ZM145.89 8.16C148.59 8.16 150.59 10 150.59 12.58C150.59 15.16 148.59 17 145.89 17C143.19 17 141.19 15.16 141.19 12.58C141.19 10 143.19 8.16 145.89 8.16ZM145.89 10.32C144.63 10.32 143.73 11.16 143.73 12.58C143.73 14 144.63 14.84 145.89 14.84C147.15 14.84 148.05 14 148.05 12.58C148.05 11.16 147.15 10.32 145.89 10.32ZM144.55 2.56H147.21V5.8H144.55V2.56ZM167.228 6.04H172.268V8.18H167.228V6.04ZM167.228 11.78H172.268V13.92H167.228V11.78ZM164.028 3.54C166.788 3.54 168.808 6.1 168.808 10.14C168.808 14.22 166.788 16.78 164.028 16.78C161.248 16.78 159.248 14.22 159.248 10.14C159.248 6.1 161.248 3.54 164.028 3.54ZM164.028 5.96C162.688 5.96 161.768 7.42 161.768 10.14C161.768 12.9 162.688 14.38 164.028 14.38C165.388 14.38 166.288 12.9 166.288 10.14C166.288 7.42 165.388 5.96 164.028 5.96ZM171.848 2.24H174.488V20.82H171.848V2.24ZM187.088 5.78H189.228V6C189.228 8.74 187.588 10.98 184.028 11.7L182.968 9.64C185.828 9.12 187.088 7.6 187.088 6V5.78ZM187.628 5.78H189.768V6C189.768 7.5 191.008 8.88 193.808 9.38L192.768 11.42C189.268 10.76 187.628 8.62 187.628 6V5.78ZM183.468 4.1H193.368V6.14H183.468V4.1ZM187.088 2.3H189.768V5.56H187.088V2.3ZM187.068 12.78H189.728V20.22H187.068V12.78ZM195.168 2.26H197.808V20.78H195.168V2.26ZM182.688 14.64L182.368 12.48C185.728 12.48 190.228 12.46 194.108 11.94L194.288 13.86C190.288 14.58 185.988 14.64 182.688 14.64ZM214.466 4.66H217.666V6.84H214.466V4.66ZM214.466 8.68H217.666V10.86H214.466V8.68ZM212.626 2.26H215.286V13.18H212.626V2.26ZM202.926 13.94H215.286V20.78H212.626V16.06H202.926V13.94ZM205.866 3.26C208.726 3.26 210.906 5.16 210.906 7.8C210.906 10.44 208.726 12.32 205.866 12.32C203.006 12.32 200.826 10.44 200.826 7.8C200.826 5.16 203.006 3.26 205.866 3.26ZM205.866 5.52C204.466 5.52 203.426 6.34 203.426 7.8C203.426 9.26 204.466 10.1 205.866 10.1C207.266 10.1 208.306 9.26 208.306 7.8C208.306 6.34 207.266 5.52 205.866 5.52ZM229.125 6.52H232.645V8.68H229.125V6.52ZM231.945 2.26H234.605V12.96H231.945V2.26ZM222.265 13.72H234.605V20.58H222.265V13.72ZM232.005 15.8H224.885V18.48H232.005V15.8ZM223.385 3.98H225.545V5.14C225.545 8.64 223.905 11.84 220.345 13L219.005 10.9C222.065 9.9 223.385 7.48 223.385 5.14V3.98ZM223.945 3.98H226.085V5.14C226.085 7.3 227.345 9.58 230.265 10.56L228.965 12.66C225.525 11.52 223.945 8.44 223.945 5.14V3.98ZM219.725 3.2H229.685V5.3H219.725V3.2ZM245.883 2.52C250.103 2.52 252.583 3.64 252.583 5.68C252.583 7.72 250.103 8.84 245.883 8.84C241.643 8.84 239.183 7.72 239.183 5.68C239.183 3.64 241.643 2.52 245.883 2.52ZM245.883 4.46C243.203 4.46 241.943 4.86 241.943 5.68C241.943 6.54 243.203 6.9 245.883 6.9C248.563 6.9 249.823 6.54 249.823 5.68C249.823 4.86 248.563 4.46 245.883 4.46ZM237.503 9.7H254.243V11.8H237.503V9.7ZM239.423 12.84H252.223V17.6H242.063V19.24H239.443V15.76H249.603V14.82H239.423V12.84ZM239.443 18.66H252.703V20.66H239.443V18.66ZM274.243 2.26H276.783V20.78H274.243V2.26ZM272.023 9.36H275.083V11.52H272.023V9.36ZM270.342 2.58H272.823V19.9H270.342V2.58ZM261.003 4.34H269.463V6.46H261.003V4.34ZM260.963 16.58L260.683 14.42C262.983 14.42 266.843 14.36 269.603 13.98L269.783 15.9C266.943 16.52 263.223 16.58 260.963 16.58ZM262.163 5.7H264.543V14.98H262.163V5.7ZM265.923 5.7H268.303V14.98H265.923V5.7ZM291.981 2.26H294.661V20.78H291.981V2.26ZM283.821 7.06H285.921V8.02C285.921 11.94 284.181 15.88 280.761 17.36L279.341 15.32C282.381 13.96 283.821 10.82 283.821 8.02V7.06ZM284.401 7.06H286.481V8.02C286.481 10.68 287.941 13.72 291.001 15.02L289.581 17.06C286.161 15.64 284.401 11.82 284.401 8.02V7.06ZM279.961 5.28H290.261V7.38H279.961V5.28ZM283.821 2.68H286.481V6.36H283.821V2.68ZM309.539 2.26H312.179V20.78H309.539V2.26ZM311.579 9.48H314.859V11.7H311.579V9.48ZM297.579 5H308.359V7.12H297.579V5ZM302.999 8.16C305.699 8.16 307.699 10 307.699 12.58C307.699 15.16 305.699 17 302.999 17C300.299 17 298.299 15.16 298.299 12.58C298.299 10 300.299 8.16 302.999 8.16ZM302.999 10.32C301.739 10.32 300.839 11.16 300.839 12.58C300.839 14 301.739 14.84 302.999 14.84C304.259 14.84 305.159 14 305.159 12.58C305.159 11.16 304.259 10.32 302.999 10.32ZM301.659 2.56H304.319V5.8H301.659V2.56ZM318.138 7.26H330.978V9.36H318.138V7.26ZM316.058 11.28H332.838V13.4H316.058V11.28ZM318.138 2.92H320.778V8.3H318.138V2.92ZM317.958 18.26H331.078V20.38H317.958V18.26ZM317.958 14.88H320.618V18.82H317.958V14.88ZM7.43466 43V28.4545H13.0028C14.054 28.4545 14.9276 28.6203 15.6236 28.9517C16.3243 29.2784 16.8475 29.7259 17.1932 30.294C17.5436 30.8622 17.7188 31.5062 17.7188 32.2259C17.7188 32.8177 17.6051 33.3243 17.3778 33.7457C17.1506 34.1624 16.8452 34.5009 16.4616 34.7614C16.0781 35.0218 15.6496 35.2088 15.1761 35.3224V35.4645C15.6922 35.4929 16.187 35.6515 16.6605 35.9403C17.1387 36.2244 17.5294 36.6269 17.8324 37.1477C18.1354 37.6686 18.2869 38.2983 18.2869 39.0369C18.2869 39.7898 18.1046 40.4669 17.7401 41.0682C17.3755 41.6648 16.8262 42.1359 16.0923 42.4815C15.3584 42.8272 14.4351 43 13.3224 43H7.43466ZM10.0696 40.7983H12.9034C13.8598 40.7983 14.5488 40.616 14.9702 40.2514C15.3963 39.8821 15.6094 39.4086 15.6094 38.831C15.6094 38.4001 15.5028 38.0118 15.2898 37.6662C15.0767 37.3158 14.7737 37.0412 14.3807 36.8423C13.9877 36.6387 13.5189 36.5369 12.9744 36.5369H10.0696V40.7983ZM10.0696 34.6406H12.6761C13.1307 34.6406 13.5402 34.5578 13.9048 34.392C14.2694 34.2216 14.5559 33.9825 14.7642 33.6747C14.9773 33.3622 15.0838 32.9929 15.0838 32.5668C15.0838 32.0033 14.8849 31.5393 14.4872 31.1747C14.0942 30.8101 13.5095 30.6278 12.733 30.6278H10.0696V34.6406ZM28.484 32.4531C28.4177 31.8329 28.1384 31.3499 27.646 31.0043C27.1583 30.6586 26.5238 30.4858 25.7425 30.4858C25.1933 30.4858 24.7222 30.5687 24.3292 30.7344C23.9362 30.9001 23.6355 31.125 23.4272 31.4091C23.2189 31.6932 23.1123 32.0175 23.1076 32.3821C23.1076 32.6851 23.1763 32.9479 23.3136 33.1705C23.4556 33.393 23.6474 33.5824 23.8888 33.7386C24.1303 33.8902 24.3978 34.018 24.6914 34.1222C24.985 34.2263 25.2809 34.3139 25.5792 34.3849L26.9428 34.7259C27.4921 34.8537 28.02 35.0265 28.5266 35.2443C29.038 35.4621 29.4949 35.7367 29.8974 36.0682C30.3046 36.3996 30.6265 36.7997 30.8633 37.2685C31.1 37.7372 31.2184 38.2865 31.2184 38.9162C31.2184 39.7685 31.0006 40.5189 30.565 41.1676C30.1294 41.8116 29.4996 42.3158 28.6758 42.6804C27.8567 43.0402 26.8647 43.2202 25.6999 43.2202C24.5683 43.2202 23.5858 43.045 22.7525 42.6946C21.9239 42.3442 21.2752 41.8329 20.8065 41.1605C20.3424 40.4882 20.0915 39.669 20.0536 38.7031H22.646C22.6838 39.2098 22.8401 39.6312 23.1147 39.9673C23.3893 40.3035 23.7468 40.5545 24.1871 40.7202C24.6322 40.8859 25.1294 40.9688 25.6786 40.9688C26.2515 40.9688 26.7534 40.8835 27.1843 40.7131C27.6199 40.5379 27.9608 40.2964 28.207 39.9886C28.4532 39.6761 28.5787 39.3116 28.5835 38.8949C28.5787 38.5161 28.4674 38.2036 28.2496 37.9574C28.0318 37.7064 27.7264 37.4981 27.3335 37.3324C26.9452 37.1619 26.4906 37.0104 25.9698 36.8778L24.315 36.4517C23.1171 36.1439 22.1701 35.6776 21.4741 35.0526C20.7828 34.4228 20.4371 33.5871 20.4371 32.5455C20.4371 31.6884 20.6692 30.938 21.1332 30.294C21.6019 29.6501 22.2388 29.1506 23.0437 28.7955C23.8486 28.4356 24.7601 28.2557 25.7781 28.2557C26.8103 28.2557 27.7146 28.4356 28.4911 28.7955C29.2724 29.1506 29.8855 29.6454 30.3306 30.2798C30.7757 30.9096 31.0053 31.634 31.0195 32.4531H28.484ZM46.0178 33.3622H43.3615C43.2857 32.9266 43.1461 32.5407 42.9425 32.2045C42.7389 31.8636 42.4856 31.5748 42.1825 31.3381C41.8795 31.1013 41.5339 30.9238 41.1456 30.8054C40.7621 30.6823 40.3478 30.6207 39.9027 30.6207C39.112 30.6207 38.4112 30.8196 37.8004 31.2173C37.1896 31.6103 36.7114 32.188 36.3658 32.9503C36.0201 33.7079 35.8473 34.6335 35.8473 35.7273C35.8473 36.84 36.0201 37.7775 36.3658 38.5398C36.7161 39.2973 37.1944 39.8703 37.8004 40.2585C38.4112 40.642 39.1096 40.8338 39.8956 40.8338C40.3312 40.8338 40.7384 40.777 41.1172 40.6634C41.5007 40.545 41.844 40.3722 42.147 40.1449C42.4548 39.9176 42.7128 39.6383 42.9212 39.3068C43.1342 38.9754 43.281 38.5966 43.3615 38.1705L46.0178 38.1847C45.9183 38.8759 45.7029 39.5246 45.3714 40.1307C45.0447 40.7367 44.6162 41.2718 44.0859 41.7358C43.5556 42.1951 42.9354 42.5549 42.2251 42.8153C41.5149 43.071 40.7266 43.1989 39.8601 43.1989C38.5817 43.1989 37.4406 42.9029 36.4368 42.3111C35.433 41.7192 34.6423 40.8646 34.0646 39.7472C33.487 38.6297 33.1982 37.2898 33.1982 35.7273C33.1982 34.16 33.4893 32.8201 34.0717 31.7074C34.6541 30.59 35.4472 29.7353 36.451 29.1435C37.4548 28.5516 38.5911 28.2557 39.8601 28.2557C40.6697 28.2557 41.4226 28.3693 42.1186 28.5966C42.8146 28.8239 43.4349 29.1577 43.9794 29.598C44.5239 30.0336 44.9714 30.5687 45.3217 31.2031C45.6768 31.8329 45.9089 32.5526 46.0178 33.3622ZM53.7561 27.48C56.6761 27.48 58.8561 29.38 58.8561 32.04C58.8561 34.72 56.6761 36.62 53.7561 36.62C50.8561 36.62 48.6361 34.72 48.6361 32.04C48.6361 29.38 50.8561 27.48 53.7561 27.48ZM53.7561 29.76C52.3361 29.76 51.2561 30.6 51.2561 32.04C51.2561 33.5 52.3361 34.34 53.7561 34.34C55.1761 34.34 56.2561 33.5 56.2561 32.04C56.2561 30.6 55.1761 29.76 53.7561 29.76ZM60.5961 26.24H63.2561V44.82H60.5961V26.24ZM48.1961 41.06L47.8761 38.92C51.1361 38.92 55.6761 38.88 59.5761 38.3L59.7761 40.22C55.7561 41.02 51.3961 41.06 48.1961 41.06ZM80.4955 32.04H85.3755V34.18H80.4955V32.04ZM75.4555 27.68H77.6155V30.36C77.6155 35.02 76.0355 39.32 72.5555 41.06L70.8955 38.92C74.0555 37.46 75.4555 33.88 75.4555 30.36V27.68ZM76.0155 27.68H78.1355V30.36C78.1355 33.88 79.4755 37.26 82.5355 38.62L80.9555 40.74C77.4755 39.06 76.0155 34.98 76.0155 30.36V27.68ZM84.0555 26.24H86.6955V44.82H84.0555V26.24ZM102.254 26.24H104.934V44.82H102.254V26.24ZM90.4739 27.72H93.1139V32.22H96.9339V27.72H99.5739V40.5H90.4739V27.72ZM93.1139 34.28V38.36H96.9339V34.28H93.1139ZM114.832 27.32H117.152V28.66C117.152 32.68 114.292 36.24 109.492 37.18L108.352 34.98C112.532 34.26 114.832 31.32 114.832 28.66V27.32ZM115.372 27.32H117.672V28.66C117.672 31.38 119.952 34.26 124.152 34.98L123.012 37.18C118.212 36.24 115.372 32.74 115.372 28.66V27.32ZM107.972 40.36H124.732V42.52H107.972V40.36ZM126.351 34.56H143.131V36.5H126.351V34.56ZM128.231 37.42H141.131V41.82H130.911V43.4H128.271V40.14H138.511V39.22H128.231V37.42ZM128.271 42.84H141.651V44.64H128.271V42.84ZM128.411 26.58H141.091V30.94H131.071V32.46H128.431V29.28H138.471V28.36H128.411V26.58ZM128.431 31.9H141.431V33.7H128.431V31.9ZM154.17 29.18H156.29V31.26C156.29 35.54 154.55 39.72 151.07 41.3L149.57 39.2C152.67 37.82 154.17 34.4 154.17 31.26V29.18ZM154.77 29.18H156.87V31.26C156.87 34.26 158.35 37.46 161.45 38.74L160.01 40.84C156.49 39.32 154.77 35.38 154.77 31.26V29.18ZM150.31 28.04H160.69V30.22H150.31V28.04ZM162.41 26.26H165.09V44.78H162.41V26.26ZM170.169 27.08H181.909V29.2H170.169V27.08ZM168.129 33.74H184.889V35.86H168.129V33.74ZM180.309 27.08H182.929V28.56C182.929 30.16 182.929 31.88 182.369 34.28L179.729 34.24C180.309 31.84 180.309 30.14 180.309 28.56V27.08ZM170.089 37.8H182.849V44.58H170.089V37.8ZM180.229 39.86H172.689V42.48H180.229V39.86ZM203.308 26.26H205.988V44.78H203.308V26.26ZM205.388 33.16H208.668V35.36H205.388V33.16ZM192.028 27.72H194.668V32.22H198.388V27.72H201.028V40.5H192.028V27.72ZM194.668 34.28V38.36H198.388V34.28H194.668ZM209.886 40.58H226.646V42.74H209.886V40.58ZM216.906 37.08H219.566V41.46H216.906V37.08ZM211.766 27.46H224.766V33.62H214.446V36.74H211.806V31.54H222.126V29.56H211.766V27.46ZM211.806 35.68H225.186V37.82H211.806V35.68ZM245.926 26.24H248.606V44.82H245.926V26.24ZM238.626 27.54C241.426 27.54 243.486 30.1 243.486 34.14C243.486 38.22 241.426 40.78 238.626 40.78C235.826 40.78 233.766 38.22 233.766 34.14C233.766 30.1 235.826 27.54 238.626 27.54ZM238.626 29.96C237.246 29.96 236.306 31.42 236.306 34.14C236.306 36.9 237.246 38.38 238.626 38.38C240.006 38.38 240.926 36.9 240.926 34.14C240.926 31.42 240.006 29.96 238.626 29.96ZM255.384 32.46H258.044V35.86H255.384V32.46ZM261.904 32.46H264.544V35.86H261.904V32.46ZM251.624 35.04H268.364V37.14H251.624V35.04ZM259.964 38.08C263.964 38.08 266.384 39.28 266.384 41.42C266.384 43.58 263.964 44.78 259.964 44.78C255.944 44.78 253.524 43.58 253.524 41.42C253.524 39.28 255.944 38.08 259.964 38.08ZM259.964 40.08C257.484 40.08 256.224 40.5 256.224 41.42C256.224 42.36 257.484 42.78 259.964 42.78C262.444 42.78 263.704 42.36 263.704 41.42C263.704 40.5 262.444 40.08 259.964 40.08ZM260.004 26.52C264.084 26.52 266.704 27.88 266.704 30.1C266.704 32.3 264.084 33.62 260.004 33.62C255.904 33.62 253.304 32.3 253.304 30.1C253.304 27.88 255.904 26.52 260.004 26.52ZM260.004 28.56C257.464 28.56 256.044 29.06 256.044 30.1C256.044 31.12 257.464 31.62 260.004 31.62C262.544 31.62 263.964 31.12 263.964 30.1C263.964 29.06 262.544 28.56 260.004 28.56ZM270.003 29.04H278.863V31.16H270.003V29.04ZM274.463 31.98C276.823 31.98 278.523 33.8 278.523 36.4C278.523 38.98 276.823 40.8 274.463 40.8C272.123 40.8 270.403 38.98 270.403 36.4C270.403 33.8 272.123 31.98 274.463 31.98ZM274.463 34.2C273.463 34.2 272.763 35 272.763 36.4C272.763 37.8 273.463 38.58 274.463 38.58C275.463 38.58 276.183 37.8 276.183 36.4C276.183 35 275.463 34.2 274.463 34.2ZM283.403 26.26H285.943V44.78H283.403V26.26ZM281.183 33.78H284.243V35.92H281.183V33.78ZM279.523 26.6H282.003V44H279.523V26.6ZM273.163 26.76H275.783V30.38H273.163V26.76ZM293.402 40.48H310.162V42.64H293.402V40.48ZM300.422 36.52H303.082V41H300.422V36.52ZM295.162 27.44H297.802V30.28H305.702V27.44H308.342V37.08H295.162V27.44ZM297.802 32.36V34.96H305.702V32.36H297.802ZM319.08 32.48H322.14V34.64H319.08V32.48ZM315.12 27.86H317.16V30.98C317.16 35.18 316 39.28 313.04 41.1L311.44 39.1C314.16 37.42 315.12 34.12 315.12 30.98V27.86ZM315.7 27.86H317.7V30.86C317.7 33.88 318.48 36.96 321 38.6L319.56 40.68C316.62 38.86 315.7 34.86 315.7 30.86V27.86ZM325.16 26.26H327.7V44.78H325.16V26.26ZM321.4 26.54H323.88V43.94H321.4V26.54ZM333.879 35.66H336.519V40.86H333.879V35.66ZM340.599 35.66H343.259V40.86H340.599V35.66ZM330.199 40.48H346.959V42.64H330.199V40.48ZM338.559 27.16C342.539 27.16 345.479 29.12 345.479 32.14C345.479 35.16 342.539 37.1 338.559 37.1C334.559 37.1 331.639 35.16 331.639 32.14C331.639 29.12 334.559 27.16 338.559 27.16ZM338.559 29.24C335.979 29.24 334.259 30.3 334.259 32.14C334.259 33.96 335.979 35.04 338.559 35.04C341.139 35.04 342.859 33.96 342.859 32.14C342.859 30.3 341.139 29.24 338.559 29.24ZM350.682 43.1562C350.251 43.1562 349.882 43.0047 349.574 42.7017C349.266 42.3987 349.115 42.0294 349.12 41.5938C349.115 41.1676 349.266 40.803 349.574 40.5C349.882 40.197 350.251 40.0455 350.682 40.0455C351.099 40.0455 351.461 40.197 351.769 40.5C352.081 40.803 352.24 41.1676 352.245 41.5938C352.24 41.8826 352.164 42.1454 352.017 42.3821C351.875 42.6188 351.686 42.8082 351.449 42.9503C351.217 43.0876 350.962 43.1562 350.682 43.1562ZM108.701 63.8714L109.546 63.0156L111.268 64.7095L114.993 60.9986L115.846 61.8544L111.268 66.4141L108.701 63.8714ZM117.768 59.41H123.638V60.48H117.768V59.41ZM116.918 65.7H125.288V66.78H116.918V65.7ZM119.878 62.52H121.208V66.23H119.878V62.52ZM123.158 59.41H124.488V60.3C124.488 61.46 124.488 62.76 124.118 64.74L122.788 64.59C123.158 62.75 123.158 61.41 123.158 60.3V59.41ZM132.737 58.63H133.997V64.05H132.737V58.63ZM131.607 60.76H133.087V61.84H131.607V60.76ZM130.717 58.8H131.957V64.02H130.717V58.8ZM127.577 64.43H133.997V67.89H132.677V65.49H127.577V64.43ZM128.787 59.27H130.117C130.117 61.61 129.027 63.17 126.627 64.11L126.007 63.14C127.977 62.41 128.787 61.29 128.787 59.77V59.27ZM126.447 59.27H129.217V60.33H126.447V59.27ZM138.826 63.28H140.156V64.91H138.826V63.28ZM135.306 62.84H143.676V63.89H135.306V62.84ZM139.476 64.55C141.476 64.55 142.686 65.15 142.686 66.22C142.686 67.29 141.476 67.89 139.476 67.89C137.466 67.89 136.256 67.29 136.256 66.22C136.256 65.15 137.466 64.55 139.476 64.55ZM139.476 65.55C138.236 65.55 137.606 65.76 137.606 66.22C137.606 66.67 138.236 66.89 139.476 66.89C140.716 66.89 141.346 66.67 141.346 66.22C141.346 65.76 140.716 65.55 139.476 65.55ZM138.576 59.5H139.756V59.73C139.756 61.12 138.506 62.26 136.116 62.48L135.656 61.44C137.686 61.27 138.576 60.45 138.576 59.73V59.5ZM139.226 59.5H140.406V59.73C140.406 60.46 141.286 61.27 143.326 61.44L142.866 62.48C140.486 62.26 139.226 61.13 139.226 59.73V59.5ZM136.066 59.01H142.926V60.06H136.066V59.01ZM150.865 58.64H152.205V63.86H150.865V58.64ZM146.045 64.29H152.205V67.79H146.045V64.29ZM150.895 65.33H147.345V66.74H150.895V65.33ZM146.675 58.97H147.775V59.86C147.775 61.58 146.915 63.14 145.105 63.71L144.465 62.66C146.015 62.18 146.675 61 146.675 59.86V58.97ZM146.945 58.97H148.035V59.86C148.035 60.98 148.685 62.06 150.185 62.51L149.545 63.54C147.775 63.01 146.945 61.56 146.945 59.86V58.97ZM160.855 61.52H163.295V62.59H160.855V61.52ZM158.335 59.34H159.415V60.68C159.415 63.01 158.625 65.16 156.885 66.03L156.055 64.96C157.635 64.23 158.335 62.44 158.335 60.68V59.34ZM158.615 59.34H159.675V60.68C159.675 62.44 160.345 64.13 161.875 64.81L161.085 65.87C159.345 65.03 158.615 62.99 158.615 60.68V59.34ZM162.635 58.62H163.955V67.91H162.635V58.62ZM171.734 58.62H173.074V67.91H171.734V58.62ZM165.844 59.36H167.164V61.61H169.074V59.36H170.394V65.75H165.844V59.36ZM167.164 62.64V64.68H169.074V62.64H167.164ZM178.024 59.16H179.184V59.83C179.184 61.84 177.754 63.62 175.354 64.09L174.784 62.99C176.874 62.63 178.024 61.16 178.024 59.83V59.16ZM178.294 59.16H179.444V59.83C179.444 61.19 180.584 62.63 182.684 62.99L182.114 64.09C179.714 63.62 178.294 61.87 178.294 59.83V59.16ZM174.594 65.68H182.974V66.76H174.594V65.68ZM186.865 63.8714L187.71 63.0156L189.432 64.7095L193.157 60.9986L194.01 61.8544L189.432 66.4141L186.865 63.8714ZM195.072 63.81H203.462V64.87H195.072V63.81ZM198.572 64.49H199.892V67.89H198.572V64.49ZM196.042 59.08H202.462V62.82H196.042V59.08ZM201.152 60.13H197.352V61.77H201.152V60.13ZM206.401 64.03H207.701V66.21H206.401V64.03ZM209.331 64.02H210.631V66.21H209.331V64.02ZM204.281 65.79H212.661V66.87H204.281V65.79ZM205.221 59.23H211.721V62.3H206.561V63.87H205.241V61.26H210.401V60.28H205.221V59.23ZM205.241 63.31H211.931V64.38H205.241V63.31ZM215.5 59.13H216.59V59.95C216.59 61.79 215.79 63.41 214.03 64.02L213.32 62.97C214.87 62.45 215.5 61.21 215.5 59.95V59.13ZM215.77 59.13H216.85V60.08C216.85 61.19 217.47 62.27 218.92 62.72L218.23 63.75C216.56 63.19 215.77 61.75 215.77 60.08V59.13ZM219.43 58.63H220.76V64.1H219.43V58.63ZM220.39 60.77H221.99V61.87H220.39V60.77ZM217.74 64.31C219.66 64.31 220.87 64.98 220.87 66.1C220.87 67.23 219.66 67.89 217.74 67.89C215.81 67.89 214.6 67.23 214.6 66.1C214.6 64.98 215.81 64.31 217.74 64.31ZM217.74 65.34C216.56 65.34 215.92 65.59 215.92 66.1C215.92 66.62 216.56 66.86 217.74 66.86C218.92 66.86 219.55 66.62 219.55 66.1C219.55 65.59 218.92 65.34 217.74 65.34ZM228.63 58.63H229.96V63.82H228.63V58.63ZM229.59 60.71H231.19V61.79H229.59V60.71ZM223.02 62.43H223.79C225.8 62.43 226.8 62.38 227.91 62.15L228.04 63.2C226.91 63.45 225.85 63.5 223.79 63.5H223.02V62.43ZM223.02 59.2H227.13V60.26H224.34V63.05H223.02V59.2ZM223.94 64.22H229.96V67.79H223.94V64.22ZM228.66 65.27H225.25V66.74H228.66V65.27Z" fill="white"/>
</svg>
