<svg width="326" height="204" viewBox="0 0 326 204" fill="none" xmlns="http://www.w3.org/2000/svg">
<path d="M43 123C43 122.448 43.4477 122 44 122H75C75.5523 122 76 122.448 76 123V128C76 128.552 75.5523 129 75 129H44C43.4477 129 43 128.552 43 128V123Z" fill="#9553CD" fill-opacity="0.6"/>
<path d="M43 123C43 122.448 43.4477 122 44 122H75C75.5523 122 76 122.448 76 123V128C76 128.552 75.5523 129 75 129H44C43.4477 129 43 128.552 43 128V123Z" fill="#2049D4" fill-opacity="0.5"/>
<path d="M43 123C43 122.448 43.4477 122 44 122H75C75.5523 122 76 122.448 76 123V128C76 128.552 75.5523 129 75 129H44C43.4477 129 43 128.552 43 128V123Z" fill="#FF0000" fill-opacity="0.7"/>
<path d="M9.54 39.445H11.535V48.25H9.54V39.445ZM10.98 42.985H13.38V44.62H10.98V42.985ZM7.02 48.4C9.885 48.4 11.685 49.315 11.685 50.875C11.685 52.42 9.885 53.335 7.02 53.335C4.155 53.335 2.355 52.42 2.355 50.875C2.355 49.315 4.155 48.4 7.02 48.4ZM7.02 49.9C5.265 49.9 4.335 50.215 4.335 50.875C4.335 51.535 5.265 51.85 7.02 51.85C8.775 51.85 9.705 51.535 9.705 50.875C9.705 50.215 8.775 49.9 7.02 49.9ZM0.6 40.765H8.775V42.31H0.6V40.765ZM4.695 42.775C6.705 42.775 8.1 43.78 8.1 45.265C8.1 46.765 6.705 47.755 4.695 47.755C2.67 47.755 1.275 46.765 1.275 45.265C1.275 43.78 2.67 42.775 4.695 42.775ZM4.695 44.23C3.795 44.23 3.195 44.59 3.195 45.265C3.195 45.94 3.795 46.3 4.695 46.3C5.58 46.3 6.195 45.94 6.195 45.265C6.195 44.59 5.58 44.23 4.695 44.23ZM3.69 39.355H5.685V41.59H3.69V39.355ZM17.4438 40.195H19.0788V41.425C19.0788 44.185 17.8788 46.615 15.2388 47.53L14.1738 45.955C16.4988 45.175 17.4438 43.315 17.4438 41.425V40.195ZM17.8488 40.195H19.4688V41.62C19.4688 43.285 20.3988 44.905 22.5738 45.58L21.5388 47.125C19.0338 46.285 17.8488 44.125 17.8488 41.62V40.195ZM23.3388 39.445H25.3338V47.65H23.3388V39.445ZM24.7788 42.655H27.1788V44.305H24.7788V42.655ZM20.8038 47.965C23.6838 47.965 25.4988 48.97 25.4988 50.65C25.4988 52.345 23.6838 53.335 20.8038 53.335C17.9088 53.335 16.0938 52.345 16.0938 50.65C16.0938 48.97 17.9088 47.965 20.8038 47.965ZM20.8038 49.51C19.0338 49.51 18.0738 49.885 18.0738 50.65C18.0738 51.43 19.0338 51.79 20.8038 51.79C22.5738 51.79 23.5188 51.43 23.5188 50.65C23.5188 49.885 22.5738 49.51 20.8038 49.51ZM33.3884 45.64H43.1534V47.23H33.3884V45.64ZM31.9334 50.14H44.5034V51.775H31.9334V50.14ZM37.1984 46.36H39.1934V50.665H37.1984V46.36ZM33.3884 40.39H43.0484V41.995H35.3834V46.33H33.3884V40.39ZM48.8372 40.51H50.4572V42.535C50.4572 45.97 49.2572 49.195 46.6322 50.485L45.4322 48.88C47.7722 47.785 48.8372 45.115 48.8372 42.535V40.51ZM49.2422 40.51H50.8322V42.535C50.8322 45.025 51.8222 47.56 54.0422 48.64L52.8422 50.23C50.3372 48.955 49.2422 45.865 49.2422 42.535V40.51ZM54.5972 39.445H56.6072V53.335H54.5972V39.445ZM56.1572 44.785H58.6172V46.45H56.1572V44.785ZM69.086 39.43H71.081V53.365H69.086V39.43ZM60.266 48.505H61.496C63.956 48.505 65.921 48.415 68.126 48.04L68.321 49.645C66.071 50.05 64.031 50.125 61.496 50.125H60.266V48.505ZM60.251 40.615H66.806V45.985H62.291V49.105H60.266V44.41H64.766V42.205H60.251V40.615ZM74.6048 40.615H83.4098V42.22H74.6048V40.615ZM73.3298 50.05H85.8848V51.67H73.3298V50.05ZM77.7698 45.28H79.7648V50.845H77.7698V45.28ZM82.6898 40.615H84.6848V41.95C84.6848 43.69 84.6848 45.64 84.1298 48.61L82.1348 48.385C82.6898 45.625 82.6898 43.615 82.6898 41.95V40.615ZM93.9544 47.875H95.4544V48.34C95.4544 50.44 94.5244 52.36 92.3494 53.14L91.3744 51.685C93.1894 51.07 93.9544 49.69 93.9544 48.34V47.875ZM94.4644 47.875H95.8894V48.34C95.8894 49.69 96.5644 51.1 98.2594 51.805L97.4644 53.275C95.2594 52.45 94.4644 50.38 94.4644 48.34V47.875ZM99.0244 47.875H100.449V48.34C100.449 50.26 99.6244 52.42 97.4644 53.275L96.6394 51.805C98.3344 51.04 99.0244 49.57 99.0244 48.34V47.875ZM99.4894 47.875H100.989V48.34C100.989 49.78 101.739 51.115 103.569 51.685L102.594 53.14C100.389 52.39 99.4894 50.53 99.4894 48.34V47.875ZM100.374 39.46H102.384V47.305H100.374V39.46ZM94.8244 40.165C96.9844 40.165 98.5894 41.545 98.5894 43.495C98.5894 45.43 96.9844 46.81 94.8244 46.81C92.6644 46.81 91.0444 45.43 91.0444 43.495C91.0444 41.545 92.6644 40.165 94.8244 40.165ZM94.8244 41.815C93.7744 41.815 92.9944 42.43 92.9944 43.495C92.9944 44.545 93.7744 45.16 94.8244 45.16C95.8744 45.16 96.6394 44.545 96.6394 43.495C96.6394 42.43 95.8744 41.815 94.8244 41.815ZM106.193 43.195H115.823V44.77H106.193V43.195ZM104.633 46.21H117.218V47.8H104.633V46.21ZM106.193 39.94H108.173V43.975H106.193V39.94ZM106.058 51.445H115.898V53.035H106.058V51.445ZM106.058 48.91H108.053V51.865H106.058V48.91ZM122.138 41.53H128.783V43.12H122.138V41.53ZM125.483 43.735C127.253 43.735 128.528 45.1 128.528 47.05C128.528 48.985 127.253 50.35 125.483 50.35C123.728 50.35 122.438 48.985 122.438 47.05C122.438 45.1 123.728 43.735 125.483 43.735ZM125.483 45.4C124.733 45.4 124.208 46 124.208 47.05C124.208 48.1 124.733 48.685 125.483 48.685C126.233 48.685 126.773 48.1 126.773 47.05C126.773 46 126.233 45.4 125.483 45.4ZM132.188 39.445H134.093V53.335H132.188V39.445ZM130.523 45.085H132.818V46.69H130.523V45.085ZM129.278 39.7H131.138V52.75H129.278V39.7ZM124.508 39.82H126.473V42.535H124.508V39.82ZM141.322 40.27H143.392C143.392 44.14 141.592 46.675 136.927 48.01L136.177 46.435C140.107 45.37 141.322 43.525 141.322 41.14V40.27ZM136.882 40.27H142.492V41.845H136.882V40.27ZM141.412 42.865V44.23L136.462 44.59L136.177 43.045L141.412 42.865ZM145.492 39.46H147.502V47.635H145.492V39.46ZM142.807 47.86C145.717 47.86 147.562 48.88 147.562 50.605C147.562 52.33 145.717 53.335 142.807 53.335C139.882 53.335 138.052 52.33 138.052 50.605C138.052 48.88 139.882 47.86 142.807 47.86ZM142.807 49.42C140.992 49.42 140.047 49.795 140.047 50.605C140.047 51.4 140.992 51.805 142.807 51.805C144.607 51.805 145.567 51.4 145.567 50.605C145.567 49.795 144.607 49.42 142.807 49.42ZM154.25 40C156.365 40 157.895 41.215 157.895 42.97C157.895 44.695 156.365 45.94 154.25 45.94C152.15 45.94 150.62 44.695 150.62 42.97C150.62 41.215 152.15 40 154.25 40ZM154.25 41.62C153.245 41.62 152.525 42.1 152.525 42.97C152.525 43.825 153.245 44.305 154.25 44.305C155.27 44.305 155.99 43.825 155.99 42.97C155.99 42.1 155.27 41.62 154.25 41.62ZM153.32 47.32H155.315V52.915H153.32V47.32ZM159.395 39.445H161.375V53.335H159.395V39.445ZM150.035 48.37L149.795 46.75C152.225 46.75 155.66 46.72 158.6 46.27L158.735 47.725C155.72 48.325 152.435 48.355 150.035 48.37ZM171.394 42.4H173.944V43.99H171.394V42.4ZM171.364 45.145H173.899V46.72H171.364V45.145ZM163.594 40.615H171.214V42.19H163.594V40.615ZM167.494 42.595C169.399 42.595 170.749 43.63 170.749 45.115C170.749 46.615 169.399 47.635 167.494 47.635C165.589 47.635 164.239 46.615 164.239 45.115C164.239 43.63 165.589 42.595 167.494 42.595ZM167.494 44.065C166.654 44.065 166.099 44.44 166.099 45.115C166.099 45.805 166.654 46.18 167.494 46.18C168.319 46.18 168.904 45.805 168.904 45.115C168.904 44.44 168.319 44.065 167.494 44.065ZM166.504 39.325H168.499V41.71H166.504V39.325ZM173.179 39.445H175.174V47.71H173.179V39.445ZM165.874 48.25H167.839V49.24H173.194V48.25H175.174V53.185H165.874V48.25ZM167.839 50.725V51.655H173.194V50.725H167.839ZM182.898 44.56H185.178V46.165H182.898V44.56ZM187.383 39.445H189.288V53.335H187.383V39.445ZM184.548 39.655H186.423V52.705H184.548V39.655ZM180.468 40.42C182.313 40.42 183.498 42.325 183.498 45.46C183.498 48.61 182.313 50.515 180.468 50.515C178.638 50.515 177.468 48.61 177.468 45.46C177.468 42.325 178.638 40.42 180.468 40.42ZM180.468 42.295C179.718 42.295 179.283 43.345 179.283 45.46C179.283 47.59 179.718 48.625 180.468 48.625C181.248 48.625 181.683 47.59 181.683 45.46C181.683 43.345 181.248 42.295 180.468 42.295ZM204.903 39.445H206.793V53.335H204.903V39.445ZM203.043 44.785H205.353V46.39H203.043V44.785ZM201.798 39.685H203.643V52.675H201.798V39.685ZM195.258 48.565H196.233C197.943 48.565 199.368 48.505 201.018 48.205L201.168 49.825C199.488 50.155 198.018 50.2 196.233 50.2H195.258V48.565ZM195.258 41.05H200.388V42.655H197.238V49.345H195.258V41.05ZM208.651 41.53H215.296V43.12H208.651V41.53ZM211.996 43.735C213.766 43.735 215.041 45.1 215.041 47.05C215.041 48.985 213.766 50.35 211.996 50.35C210.241 50.35 208.951 48.985 208.951 47.05C208.951 45.1 210.241 43.735 211.996 43.735ZM211.996 45.4C211.246 45.4 210.721 46 210.721 47.05C210.721 48.1 211.246 48.685 211.996 48.685C212.746 48.685 213.286 48.1 213.286 47.05C213.286 46 212.746 45.4 211.996 45.4ZM218.701 39.445H220.606V53.335H218.701V39.445ZM217.036 45.085H219.331V46.69H217.036V45.085ZM215.791 39.7H217.651V52.75H215.791V39.7ZM211.021 39.82H212.986V42.535H211.021V39.82ZM227.656 45.64H237.421V47.23H227.656V45.64ZM226.201 50.14H238.771V51.775H226.201V50.14ZM231.466 46.36H233.461V50.665H231.466V46.36ZM227.656 40.39H237.316V41.995H229.651V46.33H227.656V40.39ZM245.265 46.675H247.26V48.88H245.265V46.675ZM246.27 39.64C249.33 39.64 251.295 40.645 251.295 42.325C251.295 43.99 249.33 44.98 246.27 44.98C243.21 44.98 241.245 43.99 241.245 42.325C241.245 40.645 243.21 39.64 246.27 39.64ZM246.27 41.155C244.365 41.155 243.3 41.545 243.3 42.325C243.3 43.09 244.365 43.465 246.27 43.465C248.16 43.465 249.24 43.09 249.24 42.325C249.24 41.545 248.16 41.155 246.27 41.155ZM241.44 48.445H251.04V53.185H241.44V48.445ZM249.09 50.02H243.405V51.61H249.09V50.02ZM239.985 45.685H252.54V47.275H239.985V45.685ZM260.069 39.64C263.234 39.64 265.094 40.48 265.094 42.01C265.094 43.54 263.234 44.38 260.069 44.38C256.889 44.38 255.044 43.54 255.044 42.01C255.044 40.48 256.889 39.64 260.069 39.64ZM260.069 41.095C258.059 41.095 257.114 41.395 257.114 42.01C257.114 42.655 258.059 42.925 260.069 42.925C262.079 42.925 263.024 42.655 263.024 42.01C263.024 41.395 262.079 41.095 260.069 41.095ZM253.784 45.025H266.339V46.6H253.784V45.025ZM255.224 47.38H264.824V50.95H257.204V52.18H255.239V49.57H262.859V48.865H255.224V47.38ZM255.239 51.745H265.184V53.245H255.239V51.745ZM272.773 45.85H282.538V47.44H272.773V45.85ZM271.318 50.035H283.888V51.67H271.318V50.035ZM272.773 40.585H282.433V42.205H274.753V46.51H272.773V40.585ZM294.642 39.445H296.652V47.2H294.642V39.445ZM285.822 45.355H287.037C289.737 45.355 291.492 45.31 293.502 44.965L293.727 46.57C291.657 46.9 289.812 46.96 287.037 46.96H285.822V45.355ZM285.807 40.075H292.197V44.215H287.787V46.405H285.822V42.715H290.232V41.65H285.807V40.075ZM287.412 47.77H289.377V48.94H294.672V47.77H296.652V53.185H287.412V47.77ZM289.377 50.47V51.595H294.672V50.47H289.377ZM308.516 39.445H310.511V53.335H308.516V39.445ZM299.636 40.765H301.616V49.39H299.636V40.765ZM299.636 48.22H300.866C302.891 48.22 305.141 48.07 307.436 47.62L307.661 49.27C305.276 49.765 302.981 49.915 300.866 49.915H299.636V48.22ZM321.58 39.43H323.59V53.365H321.58V39.43ZM323.14 44.575H325.6V46.21H323.14V44.575ZM313.24 48.37H314.41C316.75 48.37 318.595 48.295 320.635 47.935L320.83 49.585C318.73 49.96 316.825 50.02 314.41 50.02H313.24V48.37ZM313.24 40.72H319.72V42.325H315.22V49.165H313.24V40.72ZM0.41 62.72H8.79V63.81H0.41V62.72ZM3.89 60.66H5.21V63.01H3.89V60.66ZM3.84 56.14H5V56.81C5 58.78 3.57 60.52 1.15 60.96L0.6 59.85C2.71 59.51 3.84 58.09 3.84 56.81V56.14ZM4.1 56.14H5.26V56.81C5.26 58.12 6.39 59.51 8.51 59.85L7.96 60.96C5.53 60.51 4.1 58.81 4.1 56.81V56.14ZM13.1192 60.28H14.4492V61.91H13.1192V60.28ZM9.59922 59.84H17.9692V60.89H9.59922V59.84ZM13.7692 61.55C15.7692 61.55 16.9792 62.15 16.9792 63.22C16.9792 64.29 15.7692 64.89 13.7692 64.89C11.7592 64.89 10.5492 64.29 10.5492 63.22C10.5492 62.15 11.7592 61.55 13.7692 61.55ZM13.7692 62.55C12.5292 62.55 11.8992 62.76 11.8992 63.22C11.8992 63.67 12.5292 63.89 13.7692 63.89C15.0092 63.89 15.6392 63.67 15.6392 63.22C15.6392 62.76 15.0092 62.55 13.7692 62.55ZM12.8692 56.5H14.0492V56.73C14.0492 58.12 12.7992 59.26 10.4092 59.48L9.94922 58.44C11.9792 58.27 12.8692 57.45 12.8692 56.73V56.5ZM13.5192 56.5H14.6992V56.73C14.6992 57.46 15.5792 58.27 17.6192 58.44L17.1592 59.48C14.7792 59.26 13.5192 58.13 13.5192 56.73V56.5ZM10.3592 56.01H17.2192V57.06H10.3592V56.01ZM24.7584 55.64H26.0884V62.56H24.7584V55.64ZM25.7084 58.46H27.3184V59.55H25.7084V58.46ZM18.7984 56.6H24.2484V57.64H18.7984V56.6ZM21.5284 57.97C22.8584 57.97 23.7984 58.7 23.7984 59.76C23.7984 60.82 22.8584 61.54 21.5284 61.54C20.1884 61.54 19.2484 60.82 19.2484 59.76C19.2484 58.7 20.1884 57.97 21.5284 57.97ZM21.5284 58.98C20.9384 58.98 20.5284 59.26 20.5284 59.76C20.5284 60.26 20.9384 60.53 21.5284 60.53C22.1184 60.53 22.5284 60.26 22.5284 59.76C22.5284 59.26 22.1184 58.98 21.5284 58.98ZM20.8584 55.62H22.1884V57.11H20.8584V55.62ZM20.1184 63.67H26.4184V64.73H20.1184V63.67ZM20.1184 62.04H21.4484V64.13H20.1184V62.04ZM31.3381 56.41H37.2081V57.48H31.3381V56.41ZM30.4881 62.7H38.8581V63.78H30.4881V62.7ZM33.4481 59.52H34.7781V63.23H33.4481V59.52ZM36.7281 56.41H38.0581V57.3C38.0581 58.46 38.0581 59.76 37.6881 61.74L36.3581 61.59C36.7281 59.75 36.7281 58.41 36.7281 57.3V56.41ZM46.3073 55.63H47.5673V61.05H46.3073V55.63ZM45.1773 57.76H46.6573V58.84H45.1773V57.76ZM44.2873 55.8H45.5273V61.02H44.2873V55.8ZM41.1473 61.43H47.5673V64.89H46.2473V62.49H41.1473V61.43ZM42.3573 56.27H43.6873C43.6873 58.61 42.5973 60.17 40.1973 61.11L39.5773 60.14C41.5473 59.41 42.3573 58.29 42.3573 56.77V56.27ZM40.0173 56.27H42.7873V57.33H40.0173V56.27ZM51.8566 56.24C53.3166 56.24 54.4066 57.19 54.4066 58.52C54.4066 59.86 53.3166 60.81 51.8566 60.81C50.4066 60.81 49.2966 59.86 49.2966 58.52C49.2966 57.19 50.4066 56.24 51.8566 56.24ZM51.8566 57.38C51.1466 57.38 50.6066 57.8 50.6066 58.52C50.6066 59.25 51.1466 59.67 51.8566 59.67C52.5666 59.67 53.1066 59.25 53.1066 58.52C53.1066 57.8 52.5666 57.38 51.8566 57.38ZM55.2766 55.62H56.6066V64.91H55.2766V55.62ZM49.0766 63.03L48.9166 61.96C50.5466 61.96 52.8166 61.94 54.7666 61.65L54.8666 62.61C52.8566 63.01 50.6766 63.03 49.0766 63.03ZM62.6363 57.09H63.6863V58.13C63.6863 60.22 62.8063 62.35 61.1063 63.15L60.3563 62.1C61.8863 61.38 62.6363 59.65 62.6363 58.13V57.09ZM62.9163 57.09H63.9663V58.13C63.9663 59.53 64.6863 61.17 66.2063 61.87L65.4763 62.92C63.7763 62.13 62.9163 60.1 62.9163 58.13V57.09ZM60.7163 56.52H65.7963V57.61H60.7163V56.52ZM66.4763 55.63H67.8163V64.89H66.4763V55.63ZM67.5163 59.16H69.1563V60.26H67.5163V59.16ZM71.8355 56.2H72.9255V57.2C72.9255 59.04 72.0955 60.62 70.3255 61.23L69.6155 60.19C71.1855 59.69 71.8355 58.45 71.8355 57.2V56.2ZM72.0955 56.2H73.1755V57.21C73.1755 58.37 73.8055 59.53 75.2955 60.02L74.6155 61.05C72.8955 60.48 72.0955 58.95 72.0955 57.21V56.2ZM75.7155 55.63H77.0455V62.4H75.7155V55.63ZM76.6655 58.31H78.2755V59.41H76.6655V58.31ZM71.0755 63.67H77.3755V64.73H71.0755V63.67ZM71.0755 61.76H72.4155V64.23H71.0755V61.76ZM80.7244 63.0057L80.6783 63.3963C80.6451 63.6946 80.5859 63.9976 80.5007 64.3054C80.4179 64.6155 80.3303 64.9008 80.2379 65.1612C80.1456 65.4216 80.071 65.6264 80.0142 65.7756H79.1477C79.1809 65.6312 79.2259 65.4347 79.2827 65.1861C79.3419 64.9375 79.3987 64.6581 79.4531 64.348C79.5076 64.0379 79.5443 63.723 79.5632 63.4034L79.5881 63.0057H80.7244ZM88.8298 58.52H91.2698V59.59H88.8298V58.52ZM86.3098 56.34H87.3898V57.68C87.3898 60.01 86.5998 62.16 84.8598 63.03L84.0298 61.96C85.6098 61.23 86.3098 59.44 86.3098 57.68V56.34ZM86.5898 56.34H87.6498V57.68C87.6498 59.44 88.3198 61.13 89.8498 61.81L89.0598 62.87C87.3198 62.03 86.5898 59.99 86.5898 57.68V56.34ZM90.6098 55.62H91.9298V64.91H90.6098V55.62ZM99.709 55.62H101.049V64.91H99.709V55.62ZM93.819 56.36H95.139V58.61H97.049V56.36H98.369V62.75H93.819V56.36ZM95.139 59.64V61.68H97.049V59.64H95.139ZM105.998 56.16H107.158V56.83C107.158 58.84 105.728 60.62 103.328 61.09L102.758 59.99C104.848 59.63 105.998 58.16 105.998 56.83V56.16ZM106.268 56.16H107.418V56.83C107.418 58.19 108.558 59.63 110.658 59.99L110.088 61.09C107.688 60.62 106.268 58.87 106.268 56.83V56.16ZM102.568 62.68H110.948V63.76H102.568V62.68ZM115.098 56.41H120.968V57.48H115.098V56.41ZM114.248 62.7H122.618V63.78H114.248V62.7ZM117.208 59.52H118.538V63.23H117.208V59.52ZM120.488 56.41H121.818V57.3C121.818 58.46 121.818 59.76 121.448 61.74L120.118 61.59C120.488 59.75 120.488 58.41 120.488 57.3V56.41ZM130.067 55.63H131.327V61.05H130.067V55.63ZM128.937 57.76H130.417V58.84H128.937V57.76ZM128.047 55.8H129.287V61.02H128.047V55.8ZM124.907 61.43H131.327V64.89H130.007V62.49H124.907V61.43ZM126.117 56.27H127.447C127.447 58.61 126.357 60.17 123.957 61.11L123.337 60.14C125.307 59.41 126.117 58.29 126.117 56.77V56.27ZM123.777 56.27H126.547V57.33H123.777V56.27ZM135.616 56.24C137.076 56.24 138.166 57.19 138.166 58.52C138.166 59.86 137.076 60.81 135.616 60.81C134.166 60.81 133.056 59.86 133.056 58.52C133.056 57.19 134.166 56.24 135.616 56.24ZM135.616 57.38C134.906 57.38 134.366 57.8 134.366 58.52C134.366 59.25 134.906 59.67 135.616 59.67C136.326 59.67 136.866 59.25 136.866 58.52C136.866 57.8 136.326 57.38 135.616 57.38ZM139.036 55.62H140.366V64.91H139.036V55.62ZM132.836 63.03L132.676 61.96C134.306 61.96 136.576 61.94 138.526 61.65L138.626 62.61C136.616 63.01 134.436 63.03 132.836 63.03ZM150.976 55.63H152.246V64.89H150.976V55.63ZM149.806 59.12H151.336V60.18H149.806V59.12ZM147.046 56.76H148.316C148.316 59.37 147.556 61.48 144.966 62.99L144.196 62.07C146.306 60.82 147.046 59.26 147.046 57.04V56.76ZM144.666 56.76H147.436V57.83H144.666V56.76ZM148.926 55.87H150.166V64.49H148.926V55.87ZM159.875 55.64H161.215V62.29H159.875V55.64ZM155.045 63.67H161.445V64.73H155.045V63.67ZM155.045 61.62H156.375V64.1H155.045V61.62ZM156.175 56.22C157.595 56.22 158.685 57.2 158.685 58.57C158.685 59.93 157.595 60.92 156.175 60.92C154.755 60.92 153.655 59.93 153.655 58.57C153.655 57.2 154.755 56.22 156.175 56.22ZM156.175 57.37C155.485 57.37 154.955 57.81 154.955 58.57C154.955 59.32 155.485 59.76 156.175 59.76C156.855 59.76 157.385 59.32 157.385 58.57C157.385 57.81 156.855 57.37 156.175 57.37ZM170.215 57.87H171.975V58.95H170.215V57.87ZM171.615 55.63H172.945V61.13H171.615V55.63ZM169.805 61.33C171.765 61.33 172.975 62 172.975 63.12C172.975 64.25 171.765 64.9 169.805 64.9C167.845 64.9 166.635 64.25 166.635 63.12C166.635 62 167.845 61.33 169.805 61.33ZM169.805 62.34C168.605 62.34 167.965 62.59 167.965 63.12C167.965 63.64 168.605 63.89 169.805 63.89C171.015 63.89 171.655 63.64 171.655 63.12C171.655 62.59 171.015 62.34 169.805 62.34ZM167.335 56.56H168.415V57.14C168.415 58.91 167.595 60.53 165.825 61.13L165.145 60.08C166.675 59.56 167.335 58.33 167.335 57.14V56.56ZM167.615 56.56H168.685V57.14C168.685 58.23 169.315 59.36 170.775 59.85L170.125 60.9C168.405 60.33 167.615 58.79 167.615 57.14V56.56ZM165.505 56.19H170.485V57.25H165.505V56.19ZM174.404 62.74H182.784V63.82H174.404V62.74ZM177.914 60.76H179.244V63H177.914V60.76ZM175.284 56.22H176.604V57.64H180.554V56.22H181.874V61.04H175.284V56.22ZM176.604 58.68V59.98H180.554V58.68H176.604ZM183.603 59.22H191.983V60.27H183.603V59.22ZM184.633 57.68H190.993V58.72H184.633V57.68ZM184.633 55.8H190.913V56.86H185.953V58.58H184.633V55.8ZM184.553 60.79H190.953V63.24H185.873V64.04H184.563V62.3H189.643V61.79H184.553V60.79ZM184.563 63.8H191.193V64.82H184.563V63.8ZM196.983 55.76C199.093 55.76 200.333 56.32 200.333 57.34C200.333 58.36 199.093 58.92 196.983 58.92C194.863 58.92 193.633 58.36 193.633 57.34C193.633 56.32 194.863 55.76 196.983 55.76ZM196.983 56.73C195.643 56.73 195.013 56.93 195.013 57.34C195.013 57.77 195.643 57.95 196.983 57.95C198.323 57.95 198.953 57.77 198.953 57.34C198.953 56.93 198.323 56.73 196.983 56.73ZM192.793 59.35H201.163V60.4H192.793V59.35ZM193.753 60.92H200.153V63.3H195.073V64.12H193.763V62.38H198.843V61.91H193.753V60.92ZM193.763 63.83H200.393V64.83H193.763V63.83ZM210.432 55.63H211.762V62.36H210.432V55.63ZM211.382 58.28H212.992V59.37H211.382V58.28ZM205.792 63.67H212.092V64.73H205.792V63.67ZM205.792 61.66H207.122V64.14H205.792V61.66ZM207.052 56.22C208.472 56.22 209.572 57.21 209.572 58.58C209.572 59.94 208.472 60.93 207.052 60.93C205.632 60.93 204.532 59.94 204.532 58.58C204.532 57.21 205.632 56.22 207.052 56.22ZM207.052 57.38C206.372 57.38 205.832 57.82 205.832 58.58C205.832 59.33 206.372 59.77 207.052 59.77C207.742 59.77 208.272 59.33 208.272 58.58C208.272 57.82 207.742 57.38 207.052 57.38ZM218.631 58.02H220.791V59.09H218.631V58.02ZM220.091 55.64H221.421V62.39H220.091V55.64ZM215.311 63.67H221.631V64.73H215.311V63.67ZM215.311 61.82H216.641V64.3H215.311V61.82ZM215.811 56.85H216.891V57.43C216.891 59.17 216.071 60.78 214.291 61.37L213.621 60.31C215.151 59.81 215.811 58.6 215.811 57.43V56.85ZM216.091 56.85H217.161V57.43C217.161 58.51 217.791 59.66 219.251 60.15L218.601 61.19C216.881 60.62 216.091 59.08 216.091 57.43V56.85ZM213.981 56.26H218.961V57.31H213.981V56.26ZM228.811 55.63H230.131V64.89H228.811V55.63ZM229.831 59.24H231.471V60.35H229.831V59.24ZM222.831 57H228.221V58.06H222.831V57ZM225.541 58.58C226.891 58.58 227.891 59.5 227.891 60.79C227.891 62.08 226.891 63 225.541 63C224.191 63 223.191 62.08 223.191 60.79C223.191 59.5 224.191 58.58 225.541 58.58ZM225.541 59.66C224.911 59.66 224.461 60.08 224.461 60.79C224.461 61.5 224.911 61.92 225.541 61.92C226.171 61.92 226.621 61.5 226.621 60.79C226.621 60.08 226.171 59.66 225.541 59.66ZM224.871 55.78H226.201V57.4H224.871V55.78ZM238.78 55.63H240.05V64.89H238.78V55.63ZM235.11 59.18H237.09V60.23H235.11V59.18ZM236.83 55.83H238.07V64.48H236.83V55.83ZM234.81 56.72H236.09C236.09 59.36 235.3 61.46 232.7 62.97L231.95 62.04C234.06 60.77 234.81 59.23 234.81 56.99V56.72ZM232.47 56.72H235.23V57.78H232.47V56.72ZM243.76 62.74H252.14V63.82H243.76V62.74ZM247.27 60.76H248.6V63H247.27V60.76ZM244.64 56.22H245.96V57.64H249.91V56.22H251.23V61.04H244.64V56.22ZM245.96 58.68V59.98H249.91V58.68H245.96ZM253.309 56.78H260.949V57.84H253.309V56.78ZM252.959 62.89H261.339V63.96H252.959V62.89ZM256.469 61.67H257.789V63.31H256.469V61.67ZM257.119 58.24C259.049 58.24 260.259 58.91 260.259 60.05C260.259 61.19 259.049 61.86 257.119 61.86C255.189 61.86 253.979 61.19 253.979 60.05C253.979 58.91 255.189 58.24 257.119 58.24ZM257.119 59.27C255.959 59.27 255.339 59.52 255.339 60.05C255.339 60.58 255.959 60.82 257.119 60.82C258.279 60.82 258.899 60.58 258.899 60.05C258.899 59.52 258.279 59.27 257.119 59.27ZM256.469 55.73H257.789V57.44H256.469V55.73ZM268.088 55.63H269.408V64.89H268.088V55.63ZM269.108 59.24H270.748V60.35H269.108V59.24ZM262.108 57H267.498V58.06H262.108V57ZM264.818 58.58C266.168 58.58 267.168 59.5 267.168 60.79C267.168 62.08 266.168 63 264.818 63C263.468 63 262.468 62.08 262.468 60.79C262.468 59.5 263.468 58.58 264.818 58.58ZM264.818 59.66C264.188 59.66 263.738 60.08 263.738 60.79C263.738 61.5 264.188 61.92 264.818 61.92C265.448 61.92 265.898 61.5 265.898 60.79C265.898 60.08 265.448 59.66 264.818 59.66ZM264.148 55.78H265.478V57.4H264.148V55.78ZM274.997 58.74H276.527V59.82H274.997V58.74ZM273.017 56.43H274.037V57.99C274.037 60.09 273.457 62.14 271.977 63.05L271.177 62.05C272.537 61.21 273.017 59.56 273.017 57.99V56.43ZM273.307 56.43H274.307V57.93C274.307 59.44 274.697 60.98 275.957 61.8L275.237 62.84C273.767 61.93 273.307 59.93 273.307 57.93V56.43ZM278.037 55.63H279.307V64.89H278.037V55.63ZM276.157 55.77H277.397V64.47H276.157V55.77ZM282.396 60.33H283.716V62.93H282.396V60.33ZM285.756 60.33H287.086V62.93H285.756V60.33ZM280.556 62.74H288.936V63.82H280.556V62.74ZM284.736 56.08C286.726 56.08 288.196 57.06 288.196 58.57C288.196 60.08 286.726 61.05 284.736 61.05C282.736 61.05 281.276 60.08 281.276 58.57C281.276 57.06 282.736 56.08 284.736 56.08ZM284.736 57.12C283.446 57.12 282.586 57.65 282.586 58.57C282.586 59.48 283.446 60.02 284.736 60.02C286.026 60.02 286.886 59.48 286.886 58.57C286.886 57.65 286.026 57.12 284.736 57.12ZM290.798 64.0781C290.583 64.0781 290.398 64.0024 290.244 63.8509C290.09 63.6993 290.015 63.5147 290.017 63.2969C290.015 63.0838 290.09 62.9015 290.244 62.75C290.398 62.5985 290.583 62.5227 290.798 62.5227C291.006 62.5227 291.188 62.5985 291.341 62.75C291.498 62.9015 291.577 63.0838 291.579 63.2969C291.577 63.4413 291.539 63.5727 291.466 63.6911C291.395 63.8094 291.3 63.9041 291.182 63.9751C291.066 64.0438 290.938 64.0781 290.798 64.0781ZM8.13 80.805H10.77V82.425H8.13V80.805ZM10.23 77.445H12.225V85.695H10.23V77.445ZM7.515 85.995C10.455 85.995 12.27 87 12.27 88.68C12.27 90.375 10.455 91.35 7.515 91.35C4.575 91.35 2.76 90.375 2.76 88.68C2.76 87 4.575 85.995 7.515 85.995ZM7.515 87.51C5.715 87.51 4.755 87.885 4.755 88.68C4.755 89.46 5.715 89.835 7.515 89.835C9.33 89.835 10.29 89.46 10.29 88.68C10.29 87.885 9.33 87.51 7.515 87.51ZM3.81 78.84H5.43V79.71C5.43 82.365 4.2 84.795 1.545 85.695L0.525 84.12C2.82 83.34 3.81 81.495 3.81 79.71V78.84ZM4.23 78.84H5.835V79.71C5.835 81.345 6.78 83.04 8.97 83.775L7.995 85.35C5.415 84.495 4.23 82.185 4.23 79.71V78.84ZM1.065 78.285H8.535V79.875H1.065V78.285ZM14.4138 88.11H26.9838V89.73H14.4138V88.11ZM19.6788 85.14H21.6738V88.5H19.6788V85.14ZM15.7338 78.33H17.7138V80.46H23.6388V78.33H25.6188V85.56H15.7338V78.33ZM17.7138 82.02V83.97H23.6388V82.02H17.7138ZM28.2127 88.11H40.7827V89.73H28.2127V88.11ZM33.4777 85.14H35.4727V88.5H33.4777V85.14ZM29.5327 78.33H31.5127V80.46H37.4377V78.33H39.4177V85.56H29.5327V78.33ZM31.5127 82.02V83.97H37.4377V82.02H31.5127ZM42.5365 79.17H53.9965V80.76H42.5365V79.17ZM42.0115 88.335H54.5815V89.94H42.0115V88.335ZM47.2765 86.505H49.2565V88.965H47.2765V86.505ZM48.2515 81.36C51.1465 81.36 52.9615 82.365 52.9615 84.075C52.9615 85.785 51.1465 86.79 48.2515 86.79C45.3565 86.79 43.5415 85.785 43.5415 84.075C43.5415 82.365 45.3565 81.36 48.2515 81.36ZM48.2515 82.905C46.5115 82.905 45.5815 83.28 45.5815 84.075C45.5815 84.87 46.5115 85.23 48.2515 85.23C49.9915 85.23 50.9215 84.87 50.9215 84.075C50.9215 83.28 49.9915 82.905 48.2515 82.905ZM47.2765 77.595H49.2565V80.16H47.2765V77.595ZM55.7953 83.67H68.3803V85.125H55.7953V83.67ZM57.2053 85.815H66.8803V89.115H59.2153V90.3H57.2353V87.855H64.9153V87.165H57.2053V85.815ZM57.2353 89.88H67.2703V91.23H57.2353V89.88ZM57.3403 77.685H66.8503V80.955H59.3353V82.095H57.3553V79.71H64.8853V79.02H57.3403V77.685ZM57.3553 81.675H67.1053V83.025H57.3553V81.675ZM76.8998 85.395H78.9098V90.915H76.8998V85.395ZM83.0648 77.445H85.0598V91.335H83.0648V77.445ZM73.5098 86.415L73.2698 84.81C75.9848 84.81 79.3598 84.825 82.4048 84.45L82.5098 85.905C79.3598 86.43 76.1648 86.43 73.5098 86.415ZM78.2498 81.975H82.0598V83.55H78.2498V81.975ZM78.2498 78.375H81.9848V79.965H80.2148V82.725H78.2498V78.375ZM73.9748 78.375H77.6048V79.965H75.9398V82.77H73.9748V78.375ZM73.9748 81.99H74.6798C75.7898 81.99 76.6448 81.975 77.7248 81.735L77.8598 83.295C76.7348 83.535 75.8498 83.55 74.6798 83.55H73.9748V81.99ZM90.9237 78.405C92.9937 78.405 94.5087 80.325 94.5087 83.355C94.5087 86.415 92.9937 88.335 90.9237 88.335C88.8387 88.335 87.3387 86.415 87.3387 83.355C87.3387 80.325 88.8387 78.405 90.9237 78.405ZM90.9237 80.22C89.9187 80.22 89.2437 81.315 89.2437 83.355C89.2437 85.425 89.9187 86.535 90.9237 86.535C91.9437 86.535 92.6037 85.425 92.6037 83.355C92.6037 81.315 91.9437 80.22 90.9237 80.22ZM96.7887 77.43H98.7687V91.365H96.7887V77.43ZM93.9237 82.44H97.6287V84.045H93.9237V82.44ZM107.018 85.965H116.258V91.185H107.018V85.965ZM114.308 87.525H108.983V89.61H114.308V87.525ZM105.398 78.18H107.378V83.94H105.398V78.18ZM105.398 83.22H106.553C108.518 83.22 110.543 83.1 112.658 82.68L112.868 84.33C110.693 84.765 108.593 84.885 106.553 84.885H105.398V83.22ZM114.263 77.445H116.258V85.365H114.263V77.445ZM110.903 79.755H114.698V81.36H110.903V79.755ZM122.242 78.405C124.312 78.405 125.827 80.325 125.827 83.355C125.827 86.415 124.312 88.335 122.242 88.335C120.157 88.335 118.657 86.415 118.657 83.355C118.657 80.325 120.157 78.405 122.242 78.405ZM122.242 80.22C121.237 80.22 120.562 81.315 120.562 83.355C120.562 85.425 121.237 86.535 122.242 86.535C123.262 86.535 123.922 85.425 123.922 83.355C123.922 81.315 123.262 80.22 122.242 80.22ZM128.107 77.43H130.087V91.365H128.107V77.43ZM125.242 82.44H128.947V84.045H125.242V82.44ZM134.885 88.5085L134.816 89.0945C134.767 89.5419 134.678 89.9964 134.55 90.4581C134.426 90.9233 134.294 91.3512 134.156 91.7418C134.017 92.1325 133.905 92.4396 133.82 92.6634H132.52C132.57 92.4467 132.638 92.152 132.723 91.7791C132.812 91.4063 132.897 90.9872 132.979 90.522C133.06 90.0568 133.115 89.5845 133.144 89.1051L133.181 88.5085H134.885ZM2.66 95.14H3.75V95.48C3.75 97.1 2.89 98.54 1.1 99.04L0.48 98.01C2 97.58 2.66 96.52 2.66 95.48V95.14ZM2.91 95.14H3.99V95.48C3.99 96.45 4.67 97.45 6.18 97.84L5.58 98.88C3.78 98.41 2.91 97.03 2.91 95.48V95.14ZM0.79 94.55H5.85V95.59H0.79V94.55ZM2.66 93.6H3.99V95.01H2.66V93.6ZM6.76 93.64H8.1V99.06H6.76V93.64ZM1.94 99.46H8.1V102.79H1.94V99.46ZM6.79 100.5H3.24V101.74H6.79V100.5ZM9.59922 99.12H17.9792V100.2H9.59922V99.12ZM13.1192 99.5H14.4392V102.9H13.1192V99.5ZM10.6392 97.4H17.1092V98.45H10.6392V97.4ZM10.6392 94H17.0092V95.04H11.9492V97.65H10.6392V94ZM11.5792 95.71H16.8092V96.72H11.5792V95.71ZM21.7784 94.24C23.2384 94.24 24.3284 95.19 24.3284 96.52C24.3284 97.86 23.2384 98.81 21.7784 98.81C20.3284 98.81 19.2184 97.86 19.2184 96.52C19.2184 95.19 20.3284 94.24 21.7784 94.24ZM21.7784 95.38C21.0684 95.38 20.5284 95.8 20.5284 96.52C20.5284 97.25 21.0684 97.67 21.7784 97.67C22.4884 97.67 23.0284 97.25 23.0284 96.52C23.0284 95.8 22.4884 95.38 21.7784 95.38ZM25.1984 93.62H26.5284V102.91H25.1984V93.62ZM18.9984 101.03L18.8384 99.96C20.4684 99.96 22.7384 99.94 24.6884 99.65L24.7884 100.61C22.7784 101.01 20.5984 101.03 18.9984 101.03ZM30.7481 94.04H32.0681V95.13H33.8781V94.04H35.1981V98.09H30.7481V94.04ZM32.0681 96.13V97.05H33.8781V96.13H32.0681ZM36.4381 93.63H37.7681V98.33H36.4381V93.63ZM37.2281 95.41H38.9881V96.49H37.2281V95.41ZM31.6481 98.69H37.7681V101.21H32.9881V102.31H31.6681V100.26H36.4581V99.71H31.6481V98.69ZM31.6681 101.8H38.0381V102.83H31.6681V101.8ZM41.3473 94.19H42.3873V95.26C42.3873 96.83 41.7573 98.4 40.2473 99.04L39.5473 98.01C40.8373 97.44 41.3473 96.3 41.3473 95.26V94.19ZM41.5873 94.19H42.6273V95.26C42.6273 96.25 43.1273 97.25 44.3473 97.73L43.6373 98.74C42.1973 98.17 41.5873 96.77 41.5873 95.26V94.19ZM46.3073 93.64H47.5673V99.29H46.3073V93.64ZM45.1973 95.88H46.6673V96.95H45.1973V95.88ZM44.3473 93.81H45.5873V99H44.3473V93.81ZM44.4273 99.42C46.3673 99.42 47.6173 100.07 47.6173 101.16C47.6173 102.24 46.3673 102.89 44.4273 102.89C42.4773 102.89 41.2473 102.24 41.2473 101.16C41.2473 100.07 42.4773 99.42 44.4273 99.42ZM44.4273 100.42C43.2373 100.42 42.5673 100.67 42.5673 101.16C42.5673 101.65 43.2373 101.89 44.4273 101.89C45.6173 101.89 46.2773 101.65 46.2773 101.16C46.2773 100.67 45.6173 100.42 44.4273 100.42ZM51.1366 94.34H52.2166V95.69C52.2166 98.07 51.3966 100.22 49.5566 101.07L48.7666 99.97C50.3766 99.27 51.1366 97.49 51.1366 95.69V94.34ZM51.3966 94.34H52.4766V95.69C52.4766 97.4 53.2066 99.1 54.7866 99.78L54.0066 100.85C52.2166 100.03 51.3966 97.97 51.3966 95.69V94.34ZM55.2266 93.62H56.5666V102.91H55.2266V93.62ZM59.8455 101.006L59.7994 101.396C59.7662 101.695 59.707 101.998 59.6218 102.305C59.5389 102.616 59.4513 102.901 59.359 103.161C59.2667 103.422 59.1921 103.626 59.1353 103.776H58.2688C58.302 103.631 58.3469 103.435 58.4038 103.186C58.4629 102.938 58.5198 102.658 58.5742 102.348C58.6287 102.038 58.6654 101.723 58.6843 101.403L58.7092 101.006H59.8455ZM69.7209 93.62H71.0509V102.91H69.7209V93.62ZM68.1009 96.86H70.0309V97.93H68.1009V96.86ZM65.4209 95.09H66.4709V95.91C66.4709 98.17 65.6509 100.33 63.9209 101.18L63.1409 100.13C64.6909 99.4 65.4209 97.63 65.4209 95.91V95.09ZM65.7309 95.09H66.7709V95.91C66.7709 97.54 67.4909 99.25 69.0409 99.95L68.2709 100.99C66.5309 100.17 65.7309 98.1 65.7309 95.91V95.09ZM63.5209 94.52H68.6709V95.59H63.5209V94.52ZM78.8801 93.63H80.2101V102.89H78.8801V93.63ZM72.6901 101.31L72.5301 100.22C74.2201 100.22 76.4501 100.24 78.4001 99.97L78.4901 100.94C76.4501 101.31 74.3401 101.32 72.6901 101.31ZM72.7101 94.74H78.2801V95.79H72.7101V94.74ZM75.4901 96.14C76.8401 96.14 77.7801 96.85 77.7801 97.91C77.7801 98.95 76.8401 99.66 75.4901 99.66C74.1601 99.66 73.2201 98.95 73.2201 97.91C73.2201 96.85 74.1601 96.14 75.4901 96.14ZM75.4901 97.16C74.8901 97.16 74.4801 97.42 74.4801 97.91C74.4801 98.39 74.8901 98.66 75.4901 98.66C76.1001 98.66 76.5101 98.39 76.5101 97.91C76.5101 97.42 76.1001 97.16 75.4901 97.16ZM74.8201 93.73H76.1601V95.44H74.8201V93.73ZM82.7193 96.13H89.1393V97.18H82.7193V96.13ZM81.6793 98.14H90.0693V99.2H81.6793V98.14ZM82.7193 93.96H84.0393V96.65H82.7193V93.96ZM82.6293 101.63H89.1893V102.69H82.6293V101.63ZM82.6293 99.94H83.9593V101.91H82.6293V99.94ZM93.349 95.02H97.779V96.08H93.349V95.02ZM95.579 96.49C96.759 96.49 97.609 97.4 97.609 98.7C97.609 99.99 96.759 100.9 95.579 100.9C94.409 100.9 93.549 99.99 93.549 98.7C93.549 97.4 94.409 96.49 95.579 96.49ZM95.579 97.6C95.079 97.6 94.729 98 94.729 98.7C94.729 99.4 95.079 99.79 95.579 99.79C96.079 99.79 96.439 99.4 96.439 98.7C96.439 98 96.079 97.6 95.579 97.6ZM100.049 93.63H101.319V102.89H100.049V93.63ZM98.939 97.39H100.469V98.46H98.939V97.39ZM98.109 93.8H99.349V102.5H98.109V93.8ZM94.929 93.88H96.239V95.69H94.929V93.88ZM105.978 94.52H107.268C107.268 97.37 106.528 99.76 103.208 101.5L102.478 100.49C105.208 99.05 105.978 97.3 105.978 94.68V94.52ZM103.028 94.52H106.788V95.57H103.028V94.52ZM106.108 96.79V97.8L102.708 98.11L102.538 96.99L106.108 96.79ZM108.978 93.63H110.308V102.89H108.978V93.63ZM107.258 97.18H109.678V98.26H107.258V97.18ZM115.947 93.76C118.057 93.76 119.297 94.32 119.297 95.34C119.297 96.36 118.057 96.92 115.947 96.92C113.827 96.92 112.597 96.36 112.597 95.34C112.597 94.32 113.827 93.76 115.947 93.76ZM115.947 94.73C114.607 94.73 113.977 94.93 113.977 95.34C113.977 95.77 114.607 95.95 115.947 95.95C117.287 95.95 117.917 95.77 117.917 95.34C117.917 94.93 117.287 94.73 115.947 94.73ZM111.757 97.35H120.127V98.4H111.757V97.35ZM112.717 98.92H119.117V101.3H114.037V102.12H112.727V100.38H117.807V99.91H112.717V98.92ZM112.727 101.83H119.357V102.83H112.727V101.83ZM123.427 98.44H131.807V99.49H123.427V98.44ZM124.367 100.08H130.787V102.89H129.457V101.13H124.367V100.08ZM124.467 96.87H130.917V97.88H124.467V96.87ZM124.467 93.84H130.847V94.85H125.787V97.38H124.467V93.84ZM125.417 95.36H130.637V96.33H125.417V95.36ZM137.656 95.87H139.416V96.95H137.656V95.87ZM139.056 93.63H140.386V99.13H139.056V93.63ZM137.246 99.33C139.206 99.33 140.416 100 140.416 101.12C140.416 102.25 139.206 102.9 137.246 102.9C135.286 102.9 134.076 102.25 134.076 101.12C134.076 100 135.286 99.33 137.246 99.33ZM137.246 100.34C136.046 100.34 135.406 100.59 135.406 101.12C135.406 101.64 136.046 101.89 137.246 101.89C138.456 101.89 139.096 101.64 139.096 101.12C139.096 100.59 138.456 100.34 137.246 100.34ZM134.776 94.56H135.856V95.14C135.856 96.91 135.036 98.53 133.266 99.13L132.586 98.08C134.116 97.56 134.776 96.33 134.776 95.14V94.56ZM135.056 94.56H136.126V95.14C136.126 96.23 136.756 97.36 138.216 97.85L137.566 98.9C135.846 98.33 135.056 96.79 135.056 95.14V94.56ZM132.946 94.19H137.926V95.25H132.946V94.19ZM147.776 93.63H149.096V102.89H147.776V93.63ZM148.796 97.24H150.436V98.35H148.796V97.24ZM141.796 95H147.186V96.06H141.796V95ZM144.506 96.58C145.856 96.58 146.856 97.5 146.856 98.79C146.856 100.08 145.856 101 144.506 101C143.156 101 142.156 100.08 142.156 98.79C142.156 97.5 143.156 96.58 144.506 96.58ZM144.506 97.66C143.876 97.66 143.426 98.08 143.426 98.79C143.426 99.5 143.876 99.92 144.506 99.92C145.136 99.92 145.586 99.5 145.586 98.79C145.586 98.08 145.136 97.66 144.506 97.66ZM143.836 93.78H145.166V95.4H143.836V93.78ZM152.075 96.13H158.495V97.18H152.075V96.13ZM151.035 98.14H159.425V99.2H151.035V98.14ZM152.075 93.96H153.395V96.65H152.075V93.96ZM151.985 101.63H158.545V102.69H151.985V101.63ZM151.985 99.94H153.315V101.91H151.985V99.94ZM166.924 93.63H168.194V102.89H166.924V93.63ZM163.404 97.01H165.554V98.08H163.404V97.01ZM165.014 93.79H166.254V102.48H165.014V93.79ZM160.504 99.74H161.144C162.454 99.74 163.324 99.71 164.344 99.51L164.444 100.59C163.414 100.8 162.494 100.84 161.144 100.84H160.504V99.74ZM160.504 94.67H164.034V95.73H161.814V100.2H160.504V94.67ZM172.894 97.76H179.404V98.82H172.894V97.76ZM171.924 100.76H180.304V101.85H171.924V100.76ZM175.434 98.24H176.764V101.11H175.434V98.24ZM172.894 94.26H179.334V95.33H174.224V98.22H172.894V94.26ZM184.633 98.45H185.963V99.92H184.633V98.45ZM185.303 93.76C187.343 93.76 188.653 94.43 188.653 95.55C188.653 96.66 187.343 97.32 185.303 97.32C183.263 97.32 181.953 96.66 181.953 95.55C181.953 94.43 183.263 93.76 185.303 93.76ZM185.303 94.77C184.033 94.77 183.323 95.03 183.323 95.55C183.323 96.06 184.033 96.31 185.303 96.31C186.563 96.31 187.283 96.06 187.283 95.55C187.283 95.03 186.563 94.77 185.303 94.77ZM182.083 99.63H188.483V102.79H182.083V99.63ZM187.183 100.68H183.393V101.74H187.183V100.68ZM181.113 97.79H189.483V98.85H181.113V97.79ZM194.502 93.76C196.612 93.76 197.852 94.32 197.852 95.34C197.852 96.36 196.612 96.92 194.502 96.92C192.382 96.92 191.152 96.36 191.152 95.34C191.152 94.32 192.382 93.76 194.502 93.76ZM194.502 94.73C193.162 94.73 192.532 94.93 192.532 95.34C192.532 95.77 193.162 95.95 194.502 95.95C195.842 95.95 196.472 95.77 196.472 95.34C196.472 94.93 195.842 94.73 194.502 94.73ZM190.312 97.35H198.682V98.4H190.312V97.35ZM191.272 98.92H197.672V101.3H192.592V102.12H191.282V100.38H196.362V99.91H191.272V98.92ZM191.282 101.83H197.912V102.83H191.282V101.83ZM202.972 97.9H209.482V98.96H202.972V97.9ZM202.002 100.69H210.382V101.78H202.002V100.69ZM202.972 94.39H209.412V95.47H204.292V98.34H202.972V94.39ZM211.651 97.24H212.451C214.481 97.24 215.541 97.22 216.791 97.02L216.911 98.02C215.641 98.23 214.521 98.26 212.451 98.26H211.651V97.24ZM211.631 94.06H215.961V96.59H212.961V97.72H211.651V95.66H214.651V95.06H211.631V94.06ZM212.711 98.79H218.891V101.25H214.071V102.24H212.731V100.31H217.531V99.79H212.711V98.79ZM212.731 101.82H219.121V102.83H212.731V101.82ZM217.551 93.63H218.891V98.45H217.551V93.63ZM226.361 93.9H227.531V94.33C227.531 96.11 226.131 97.62 223.701 97.98L223.181 96.91C225.311 96.63 226.361 95.42 226.361 94.33V93.9ZM226.611 93.9H227.771V94.33C227.771 95.41 228.831 96.63 230.951 96.91L230.441 97.98C228.011 97.62 226.611 96.11 226.611 94.33V93.9ZM226.371 99.5H227.691V102.89H226.371V99.5ZM222.881 98.66H231.251V99.74H222.881V98.66ZM236.63 99.25H237.63V99.56C237.63 100.96 237.01 102.24 235.56 102.76L234.91 101.79C236.12 101.38 236.63 100.46 236.63 99.56V99.25ZM236.97 99.25H237.92V99.56C237.92 100.46 238.37 101.4 239.5 101.87L238.97 102.85C237.5 102.3 236.97 100.92 236.97 99.56V99.25ZM240.01 99.25H240.96V99.56C240.96 100.84 240.41 102.28 238.97 102.85L238.42 101.87C239.55 101.36 240.01 100.38 240.01 99.56V99.25ZM240.32 99.25H241.32V99.56C241.32 100.52 241.82 101.41 243.04 101.79L242.39 102.76C240.92 102.26 240.32 101.02 240.32 99.56V99.25ZM240.91 93.64H242.25V98.87H240.91V93.64ZM237.21 94.11C238.65 94.11 239.72 95.03 239.72 96.33C239.72 97.62 238.65 98.54 237.21 98.54C235.77 98.54 234.69 97.62 234.69 96.33C234.69 95.03 235.77 94.11 237.21 94.11ZM237.21 95.21C236.51 95.21 235.99 95.62 235.99 96.33C235.99 97.03 236.51 97.44 237.21 97.44C237.91 97.44 238.42 97.03 238.42 96.33C238.42 95.62 237.91 95.21 237.21 95.21ZM244.73 99.18H246.04V99.96H249.75V99.18H251.07V102.79H244.73V99.18ZM246.04 100.95V101.75H249.75V100.95H246.04ZM243.75 97.67H252.12V98.72H243.75V97.67ZM247.26 93.73H248.4V94.01C248.4 95.62 247.02 96.95 244.63 97.26L244.16 96.23C246.25 95.98 247.26 94.95 247.26 94.01V93.73ZM247.48 93.73H248.62V94.01C248.62 94.94 249.63 95.98 251.71 96.23L251.24 97.26C248.85 96.95 247.48 95.61 247.48 94.01V93.73ZM259.359 93.63H260.689V102.89H259.359V93.63ZM253.439 94.51H254.759V100.26H253.439V94.51ZM253.439 99.48H254.259C255.609 99.48 257.109 99.38 258.639 99.08L258.789 100.18C257.199 100.51 255.669 100.61 254.259 100.61H253.439V99.48ZM268.068 93.62H269.408V102.91H268.068V93.62ZM269.108 97.05H270.748V98.14H269.108V97.05ZM262.508 99.58H263.288C264.848 99.58 266.078 99.53 267.438 99.29L267.568 100.39C266.168 100.64 264.898 100.68 263.288 100.68H262.508V99.58ZM262.508 94.48H266.828V95.55H263.828V100.11H262.508V94.48ZM272.4 102.078C272.184 102.078 272 102.002 271.846 101.851C271.692 101.699 271.616 101.515 271.618 101.297C271.616 101.084 271.692 100.902 271.846 100.75C272 100.598 272.184 100.523 272.4 100.523C272.608 100.523 272.789 100.598 272.943 100.75C273.099 100.902 273.179 101.084 273.181 101.297C273.179 101.441 273.141 101.573 273.067 101.691C272.996 101.809 272.902 101.904 272.783 101.975C272.667 102.044 272.539 102.078 272.4 102.078ZM4.155 122.99H6.165V125.855H4.155V122.99ZM4.14 118.04H5.73V118.355C5.73 120.68 4.485 122.705 1.845 123.41L0.945 121.88C3.165 121.295 4.14 119.84 4.14 118.355V118.04ZM4.56 118.04H6.165V118.355C6.165 119.78 7.17 121.19 9.375 121.76L8.49 123.29C5.85 122.615 4.56 120.62 4.56 118.355V118.04ZM1.365 117.08H8.97V118.655H1.365V117.08ZM4.155 115.565H6.165V117.77H4.155V115.565ZM10.2 115.43H12.195V129.365H10.2V115.43ZM0.9 126.785L0.66 125.165C3.09 125.165 6.51 125.135 9.435 124.7L9.585 126.155C6.57 126.74 3.3 126.77 0.9 126.785ZM17.4438 116.195H19.0788V117.425C19.0788 120.185 17.8788 122.615 15.2388 123.53L14.1738 121.955C16.4988 121.175 17.4438 119.315 17.4438 117.425V116.195ZM17.8488 116.195H19.4688V117.62C19.4688 119.285 20.3988 120.905 22.5738 121.58L21.5388 123.125C19.0338 122.285 17.8488 120.125 17.8488 117.62V116.195ZM23.3388 115.445H25.3338V123.65H23.3388V115.445ZM24.7788 118.655H27.1788V120.305H24.7788V118.655ZM20.8038 123.965C23.6838 123.965 25.4988 124.97 25.4988 126.65C25.4988 128.345 23.6838 129.335 20.8038 129.335C17.9088 129.335 16.0938 128.345 16.0938 126.65C16.0938 124.97 17.9088 123.965 20.8038 123.965ZM20.8038 125.51C19.0338 125.51 18.0738 125.885 18.0738 126.65C18.0738 127.43 19.0338 127.79 20.8038 127.79C22.5738 127.79 23.5188 127.43 23.5188 126.65C23.5188 125.885 22.5738 125.51 20.8038 125.51ZM32.6677 116.36C34.8577 116.36 36.4927 117.785 36.4927 119.78C36.4927 121.79 34.8577 123.215 32.6677 123.215C30.4927 123.215 28.8277 121.79 28.8277 119.78C28.8277 117.785 30.4927 116.36 32.6677 116.36ZM32.6677 118.07C31.6027 118.07 30.7927 118.7 30.7927 119.78C30.7927 120.875 31.6027 121.505 32.6677 121.505C33.7327 121.505 34.5427 120.875 34.5427 119.78C34.5427 118.7 33.7327 118.07 32.6677 118.07ZM37.7977 115.43H39.7927V129.365H37.7977V115.43ZM28.4977 126.545L28.2577 124.94C30.7027 124.94 34.1077 124.91 37.0327 124.475L37.1827 125.915C34.1677 126.515 30.8977 126.545 28.4977 126.545ZM47.6527 117.091L50.4918 125.678H50.6037L53.4375 117.091H55.6108L51.7649 128H49.3253L45.4847 117.091H47.6527ZM57.0477 128V117.091H61.1386C61.9767 117.091 62.6798 117.247 63.248 117.56C63.8197 117.872 64.2512 118.302 64.5423 118.849C64.8371 119.392 64.9845 120.01 64.9845 120.702C64.9845 121.402 64.8371 122.023 64.5423 122.567C64.2476 123.11 63.8126 123.538 63.2373 123.85C62.662 124.159 61.9536 124.314 61.1119 124.314H58.4007V122.689H60.8456C61.3357 122.689 61.7369 122.604 62.0494 122.434C62.3619 122.263 62.5928 122.029 62.7419 121.73C62.8946 121.432 62.971 121.089 62.971 120.702C62.971 120.315 62.8946 119.974 62.7419 119.68C62.5928 119.385 62.3602 119.156 62.0441 118.993C61.7316 118.826 61.3286 118.742 60.835 118.742H59.0239V128H57.0477ZM75.6658 117.091V128H73.908L68.7678 120.569H68.6772V128H66.701V117.091H68.4695L73.6044 124.527H73.7003V117.091H75.6658ZM88.0689 119.78H91.7289V121.385H88.0689V119.78ZM84.2889 116.51H85.9089V118.52C85.9089 122.015 84.7239 125.24 82.1139 126.545L80.8689 124.94C83.2389 123.845 84.2889 121.16 84.2889 118.52V116.51ZM84.7089 116.51H86.2989V118.52C86.2989 121.16 87.3039 123.695 89.5989 124.715L88.4139 126.305C85.8039 125.045 84.7089 121.985 84.7089 118.52V116.51ZM90.7389 115.43H92.7189V129.365H90.7389V115.43ZM104.388 115.43H106.398V129.365H104.388V115.43ZM95.5527 116.54H97.5327V119.915H100.398V116.54H102.378V126.125H95.5527V116.54ZM97.5327 121.46V124.52H100.398V121.46H97.5327ZM113.822 116.24H115.562V117.245C115.562 120.26 113.417 122.93 109.817 123.635L108.962 121.985C112.097 121.445 113.822 119.24 113.822 117.245V116.24ZM114.227 116.24H115.952V117.245C115.952 119.285 117.662 121.445 120.812 121.985L119.957 123.635C116.357 122.93 114.227 120.305 114.227 117.245V116.24ZM108.677 126.02H121.247V127.64H108.677V126.02ZM6.72 131.63H8.03V140.89H6.72V131.63ZM7.31 135.05H8.94V136.14H7.31V135.05ZM0.45 132.47H1.54V134.6H2.09V132.47H3.16V138.75H0.45V132.47ZM1.54 135.64V137.68H2.09V135.64H1.54ZM3.52 132.47H4.59V134.6H5.15V132.47H6.24V138.75H3.52V132.47ZM4.59 135.64V137.68H5.15V135.64H4.59ZM9.59922 136.63H17.9892V137.69H9.59922V136.63ZM10.6492 139.67H17.1792V140.73H10.6492V139.67ZM10.6492 138.2H11.9792V140.13H10.6492V138.2ZM10.6292 131.84H16.9692V134.41H11.9592V135.37H10.6392V133.47H15.6592V132.85H10.6292V131.84ZM10.6392 135.06H17.1492V136.06H10.6392V135.06ZM21.2789 136.12H29.6589V137.18H21.2789V136.12ZM24.7889 134.92H26.1089V136.58H24.7889V134.92ZM24.7689 131.79H25.9089V132.07C25.9089 133.78 24.5489 135.12 22.1889 135.46L21.6989 134.42C23.7789 134.17 24.7689 133.11 24.7689 132.07V131.79ZM24.9889 131.79H26.1289V132.07C26.1289 133.15 27.0989 134.17 29.1989 134.42L28.7089 135.46C26.3489 135.11 24.9889 133.82 24.9889 132.07V131.79ZM22.2089 137.83H28.6389V140.89H27.3089V138.87H22.2089V137.83ZM31.4581 135.76H37.9681V136.82H31.4581V135.76ZM30.4881 138.76H38.8681V139.85H30.4881V138.76ZM33.9981 136.24H35.3281V139.11H33.9981V136.24ZM31.4581 132.26H37.8981V133.33H32.7881V136.22H31.4581V132.26ZM41.7573 136.32H43.0873V138.51H41.7573V136.32ZM42.4073 132.17C43.8373 132.17 44.9273 133.12 44.9273 134.45C44.9273 135.78 43.8373 136.73 42.4073 136.73C40.9673 136.73 39.8873 135.78 39.8873 134.45C39.8873 133.12 40.9673 132.17 42.4073 132.17ZM42.4073 133.3C41.7073 133.3 41.1873 133.72 41.1873 134.45C41.1873 135.17 41.7073 135.6 42.4073 135.6C43.1073 135.6 43.6273 135.17 43.6273 134.45C43.6273 133.72 43.1073 133.3 42.4073 133.3ZM45.6573 131.63H46.9873V140.89H45.6573V131.63ZM46.5773 135.25H48.2073V136.36H46.5773V135.25ZM39.7373 139.05L39.5773 137.98C41.1773 137.97 43.3373 137.98 45.1773 137.73L45.2773 138.7C43.3573 139.06 41.2973 139.06 39.7373 139.05ZM51.367 138.74H59.747V139.82H51.367V138.74ZM54.877 136.76H56.207V139H54.877V136.76ZM52.247 132.22H53.567V133.64H57.517V132.22H58.837V137.04H52.247V132.22ZM53.567 134.68V135.98H57.517V134.68H53.567ZM66.5163 131.63H67.8463V138.36H66.5163V131.63ZM67.4663 134.28H69.0763V135.37H67.4663V134.28ZM61.8763 139.67H68.1763V140.73H61.8763V139.67ZM61.8763 137.66H63.2063V140.14H61.8763V137.66ZM63.1363 132.22C64.5563 132.22 65.6563 133.21 65.6563 134.58C65.6563 135.94 64.5563 136.93 63.1363 136.93C61.7163 136.93 60.6163 135.94 60.6163 134.58C60.6163 133.21 61.7163 132.22 63.1363 132.22ZM63.1363 133.38C62.4563 133.38 61.9163 133.82 61.9163 134.58C61.9163 135.33 62.4563 135.77 63.1363 135.77C63.8263 135.77 64.3563 135.33 64.3563 134.58C64.3563 133.82 63.8263 133.38 63.1363 133.38ZM78.1959 131.63H79.5259V138.36H78.1959V131.63ZM79.1459 134.28H80.7559V135.37H79.1459V134.28ZM73.5559 139.67H79.8559V140.73H73.5559V139.67ZM73.5559 137.66H74.8859V140.14H73.5559V137.66ZM74.8159 132.22C76.2359 132.22 77.3359 133.21 77.3359 134.58C77.3359 135.94 76.2359 136.93 74.8159 136.93C73.3959 136.93 72.2959 135.94 72.2959 134.58C72.2959 133.21 73.3959 132.22 74.8159 132.22ZM74.8159 133.38C74.1359 133.38 73.5959 133.82 73.5959 134.58C73.5959 135.33 74.1359 135.77 74.8159 135.77C75.5059 135.77 76.0359 135.33 76.0359 134.58C76.0359 133.82 75.5059 133.38 74.8159 133.38ZM86.4552 133.87H88.2152V134.95H86.4552V133.87ZM87.8552 131.63H89.1852V137.13H87.8552V131.63ZM86.0452 137.33C88.0052 137.33 89.2152 138 89.2152 139.12C89.2152 140.25 88.0052 140.9 86.0452 140.9C84.0852 140.9 82.8752 140.25 82.8752 139.12C82.8752 138 84.0852 137.33 86.0452 137.33ZM86.0452 138.34C84.8452 138.34 84.2052 138.59 84.2052 139.12C84.2052 139.64 84.8452 139.89 86.0452 139.89C87.2552 139.89 87.8952 139.64 87.8952 139.12C87.8952 138.59 87.2552 138.34 86.0452 138.34ZM83.5752 132.56H84.6552V133.14C84.6552 134.91 83.8352 136.53 82.0652 137.13L81.3852 136.08C82.9152 135.56 83.5752 134.33 83.5752 133.14V132.56ZM83.8552 132.56H84.9252V133.14C84.9252 134.23 85.5552 135.36 87.0152 135.85L86.3652 136.9C84.6452 136.33 83.8552 134.79 83.8552 133.14V132.56ZM81.7452 132.19H86.7252V133.25H81.7452V132.19ZM92.7844 132.11H93.8944V132.94C93.8944 134.8 93.0644 136.43 91.2444 137.04L90.5544 135.97C92.1344 135.46 92.7844 134.21 92.7844 132.94V132.11ZM93.0644 132.11H94.1344V132.88C94.1344 134.11 94.7344 135.25 96.2044 135.72L95.5144 136.76C93.8044 136.17 93.0644 134.68 93.0644 132.88V132.11ZM97.0544 131.63H98.3844V137.05H97.0544V131.63ZM95.2444 137.29C97.2044 137.29 98.4144 137.96 98.4144 139.09C98.4144 140.23 97.2044 140.89 95.2444 140.89C93.2844 140.89 92.0744 140.23 92.0744 139.09C92.0744 137.96 93.2844 137.29 95.2444 137.29ZM95.2444 138.32C94.0444 138.32 93.4044 138.57 93.4044 139.09C93.4044 139.61 94.0444 139.87 95.2444 139.87C96.4544 139.87 97.0944 139.61 97.0944 139.09C97.0944 138.57 96.4544 138.32 95.2444 138.32ZM95.3644 133.31H97.2444V134.39H95.3644V133.31ZM1.69034 144.727L3.5831 150.452H3.65767L5.54688 144.727H6.99574L4.43182 152H2.8054L0.245028 144.727H1.69034ZM11.3734 149.706V146.545H12.6589V152H11.4125V151.031H11.3556C11.2325 151.336 11.0301 151.586 10.7484 151.78C10.469 151.974 10.1246 152.071 9.71502 152.071C9.35754 152.071 9.04149 151.992 8.76687 151.833C8.49461 151.672 8.28155 151.439 8.12766 151.134C7.97378 150.826 7.89684 150.454 7.89684 150.018V146.545H9.18235V149.82C9.18235 150.165 9.27705 150.44 9.46644 150.643C9.65584 150.847 9.90442 150.949 10.2122 150.949C10.4016 150.949 10.585 150.903 10.7626 150.81C10.9402 150.718 11.0858 150.581 11.1994 150.398C11.3154 150.214 11.3734 149.983 11.3734 149.706ZM15.2663 144.727V152H13.9808V144.727H15.2663ZM19.312 146.545V147.54H16.1763V146.545H19.312ZM16.9505 145.239H18.236V150.359C18.236 150.532 18.262 150.665 18.3141 150.757C18.3685 150.847 18.4396 150.909 18.5272 150.942C18.6148 150.975 18.7118 150.991 18.8184 150.991C18.8989 150.991 18.9722 150.986 19.0385 150.974C19.1072 150.962 19.1593 150.951 19.1948 150.942L19.4114 151.947C19.3427 151.97 19.2445 151.996 19.1167 152.025C18.9912 152.053 18.8373 152.07 18.655 152.075C18.333 152.084 18.043 152.036 17.785 151.929C17.5269 151.82 17.3221 151.652 17.1706 151.425C17.0215 151.197 16.9481 150.913 16.9505 150.572V145.239ZM20.3871 152V146.545H21.6335V147.455H21.6903C21.7898 147.14 21.9602 146.897 22.2017 146.727C22.4455 146.554 22.7237 146.467 23.0362 146.467C23.1072 146.467 23.1866 146.471 23.2741 146.478C23.3641 146.483 23.4387 146.491 23.4979 146.503V147.685C23.4434 147.666 23.357 147.65 23.2386 147.636C23.1226 147.619 23.0102 147.611 22.9013 147.611C22.6669 147.611 22.4562 147.662 22.2692 147.763C22.0845 147.863 21.9389 148.001 21.8324 148.179C21.7259 148.357 21.6726 148.561 21.6726 148.793V152H20.3871ZM26.5819 147.86H34.9619V148.94H26.5819V147.86ZM27.5919 146.17H34.0119V147.22H27.5919V146.17ZM27.5919 143.88H33.9619V144.94H28.9119V146.69H27.5919V143.88ZM30.7419 149.49C32.7419 149.49 33.9519 150.1 33.9519 151.19C33.9519 152.28 32.7419 152.89 30.7419 152.89C28.7419 152.89 27.5219 152.28 27.5219 151.19C27.5219 150.1 28.7419 149.49 30.7419 149.49ZM30.7419 150.49C29.5019 150.49 28.8719 150.72 28.8719 151.19C28.8719 151.67 29.5019 151.88 30.7419 151.88C31.9819 151.88 32.6119 151.67 32.6119 151.19C32.6119 150.72 31.9819 150.49 30.7419 150.49ZM38.2416 145.02H42.6716V146.08H38.2416V145.02ZM40.4716 146.49C41.6516 146.49 42.5016 147.4 42.5016 148.7C42.5016 149.99 41.6516 150.9 40.4716 150.9C39.3016 150.9 38.4416 149.99 38.4416 148.7C38.4416 147.4 39.3016 146.49 40.4716 146.49ZM40.4716 147.6C39.9716 147.6 39.6216 148 39.6216 148.7C39.6216 149.4 39.9716 149.79 40.4716 149.79C40.9716 149.79 41.3316 149.4 41.3316 148.7C41.3316 148 40.9716 147.6 40.4716 147.6ZM44.9416 143.63H46.2116V152.89H44.9416V143.63ZM43.8316 147.39H45.3616V148.46H43.8316V147.39ZM43.0016 143.8H44.2416V152.5H43.0016V143.8ZM39.8216 143.88H41.1316V145.69H39.8216V143.88ZM49.7508 148.26H51.0908V150.21H49.7508V148.26ZM50.4308 144.17C51.8908 144.17 52.9808 145.12 52.9808 146.45C52.9808 147.78 51.8908 148.73 50.4308 148.73C48.9808 148.73 47.8708 147.78 47.8708 146.45C47.8708 145.12 48.9808 144.17 50.4308 144.17ZM50.4308 145.31C49.7208 145.31 49.1808 145.72 49.1808 146.45C49.1808 147.17 49.7208 147.6 50.4308 147.6C51.1408 147.6 51.6808 147.17 51.6808 146.45C51.6808 145.72 51.1408 145.31 50.4308 145.31ZM53.8508 143.62H55.1808V152.91H53.8508V143.62ZM47.6508 151.05L47.4908 149.98C49.1208 149.98 51.3908 149.96 53.3408 149.67L53.4408 150.63C51.4308 151.03 49.2508 151.05 47.6508 151.05ZM59.4905 144.78H67.1305V145.84H59.4905V144.78ZM59.1405 150.89H67.5205V151.96H59.1405V150.89ZM62.6505 149.67H63.9705V151.31H62.6505V149.67ZM63.3005 146.24C65.2305 146.24 66.4405 146.91 66.4405 148.05C66.4405 149.19 65.2305 149.86 63.3005 149.86C61.3705 149.86 60.1605 149.19 60.1605 148.05C60.1605 146.91 61.3705 146.24 63.3005 146.24ZM63.3005 147.27C62.1405 147.27 61.5205 147.52 61.5205 148.05C61.5205 148.58 62.1405 148.82 63.3005 148.82C64.4605 148.82 65.0805 148.58 65.0805 148.05C65.0805 147.52 64.4605 147.27 63.3005 147.27ZM62.6505 143.73H63.9705V145.44H62.6505V143.73ZM71.7697 144.16H72.9297V144.83C72.9297 146.84 71.4997 148.62 69.0997 149.09L68.5297 147.99C70.6197 147.63 71.7697 146.16 71.7697 144.83V144.16ZM72.0397 144.16H73.1897V144.83C73.1897 146.19 74.3297 147.63 76.4297 147.99L75.8597 149.09C73.4597 148.62 72.0397 146.87 72.0397 144.83V144.16ZM68.3397 150.68H76.7197V151.76H68.3397V150.68ZM78.0389 147.78H78.8289C80.7389 147.78 81.8489 147.76 83.1189 147.56L83.2489 148.59C81.9489 148.81 80.7789 148.83 78.8289 148.83H78.0389V147.78ZM78.0389 144.27H82.4889V145.32H79.3589V148.21H78.0389V144.27ZM78.9489 146.03H82.2189V147.05H78.9489V146.03ZM83.8889 143.64H85.2289V149.23H83.8889V143.64ZM82.0989 149.37C84.0489 149.37 85.2689 150.02 85.2689 151.13C85.2689 152.25 84.0489 152.89 82.0989 152.89C80.1389 152.89 78.9289 152.25 78.9289 151.13C78.9289 150.02 80.1389 149.37 82.0989 149.37ZM82.0989 150.39C80.8889 150.39 80.2589 150.63 80.2589 151.13C80.2589 151.64 80.8889 151.88 82.0989 151.88C83.2989 151.88 83.9389 151.64 83.9389 151.13C83.9389 150.63 83.2989 150.39 82.0989 150.39ZM88.8081 144.34H89.8881V145.69C89.8881 147.98 89.0881 150.13 87.3381 150.99L86.5381 149.92C88.0981 149.19 88.8081 147.41 88.8081 145.69V144.34ZM89.0781 144.34H90.1381V145.69C90.1381 147.35 90.7981 149.04 92.2781 149.76L91.4781 150.82C89.8081 149.97 89.0781 147.91 89.0781 145.69V144.34ZM92.6481 143.63H93.9881V152.89H92.6481V143.63ZM93.6881 147.19H95.3281V148.3H93.6881V147.19ZM95.9273 147.78H104.317V148.75H95.9273V147.78ZM96.8673 149.21H103.317V151.41H98.2073V152.2H96.8873V150.57H102.007V150.11H96.8673V149.21ZM96.8873 151.92H103.577V152.82H96.8873V151.92ZM96.9573 143.79H103.297V145.97H98.2873V146.73H96.9673V145.14H101.987V144.68H96.9573V143.79ZM96.9673 146.45H103.467V147.35H96.9673V146.45ZM113.957 143.62H115.297V152.91H113.957V143.62ZM110.307 144.27C111.707 144.27 112.737 145.55 112.737 147.57C112.737 149.61 111.707 150.89 110.307 150.89C108.907 150.89 107.877 149.61 107.877 147.57C107.877 145.55 108.907 144.27 110.307 144.27ZM110.307 145.48C109.617 145.48 109.147 146.21 109.147 147.57C109.147 148.95 109.617 149.69 110.307 149.69C110.997 149.69 111.457 148.95 111.457 147.57C111.457 146.21 110.997 145.48 110.307 145.48ZM118.686 146.73H120.016V148.43H118.686V146.73ZM121.946 146.73H123.266V148.43H121.946V146.73ZM116.806 148.02H125.176V149.07H116.806V148.02ZM120.976 149.54C122.976 149.54 124.186 150.14 124.186 151.21C124.186 152.29 122.976 152.89 120.976 152.89C118.966 152.89 117.756 152.29 117.756 151.21C117.756 150.14 118.966 149.54 120.976 149.54ZM120.976 150.54C119.736 150.54 119.106 150.75 119.106 151.21C119.106 151.68 119.736 151.89 120.976 151.89C122.216 151.89 122.846 151.68 122.846 151.21C122.846 150.75 122.216 150.54 120.976 150.54ZM120.996 143.76C123.036 143.76 124.346 144.44 124.346 145.55C124.346 146.65 123.036 147.31 120.996 147.31C118.946 147.31 117.646 146.65 117.646 145.55C117.646 144.44 118.946 143.76 120.996 143.76ZM120.996 144.78C119.726 144.78 119.016 145.03 119.016 145.55C119.016 146.06 119.726 146.31 120.996 146.31C122.266 146.31 122.976 146.06 122.976 145.55C122.976 145.03 122.266 144.78 120.996 144.78ZM131.945 143.63H133.265V152.89H131.945V143.63ZM132.965 147.24H134.605V148.35H132.965V147.24ZM125.965 145H131.355V146.06H125.965V145ZM128.675 146.58C130.025 146.58 131.025 147.5 131.025 148.79C131.025 150.08 130.025 151 128.675 151C127.325 151 126.325 150.08 126.325 148.79C126.325 147.5 127.325 146.58 128.675 146.58ZM128.675 147.66C128.045 147.66 127.595 148.08 127.595 148.79C127.595 149.5 128.045 149.92 128.675 149.92C129.305 149.92 129.755 149.5 129.755 148.79C129.755 148.08 129.305 147.66 128.675 147.66ZM128.005 143.78H129.335V145.4H128.005V143.78ZM139.345 145.52H141.865V146.59H139.345V145.52ZM139.345 148.39H141.865V149.46H139.345V148.39ZM137.745 144.27C139.125 144.27 140.135 145.55 140.135 147.57C140.135 149.61 139.125 150.89 137.745 150.89C136.355 150.89 135.355 149.61 135.355 147.57C135.355 145.55 136.355 144.27 137.745 144.27ZM137.745 145.48C137.075 145.48 136.615 146.21 136.615 147.57C136.615 148.95 137.075 149.69 137.745 149.69C138.425 149.69 138.875 148.95 138.875 147.57C138.875 146.21 138.425 145.48 137.745 145.48ZM141.655 143.62H142.975V152.91H141.655V143.62ZM148.175 144.727L150.067 150.452H150.142L152.031 144.727H153.48L150.916 152H149.29L146.729 144.727H148.175ZM154.438 152V144.727H157.165C157.724 144.727 158.193 144.831 158.572 145.04C158.953 145.248 159.24 145.535 159.434 145.899C159.631 146.261 159.729 146.673 159.729 147.135C159.729 147.601 159.631 148.016 159.434 148.378C159.238 148.74 158.948 149.025 158.564 149.234C158.181 149.44 157.709 149.543 157.148 149.543H155.34V148.46H156.97C157.297 148.46 157.564 148.403 157.773 148.289C157.981 148.175 158.135 148.019 158.234 147.82C158.336 147.621 158.387 147.393 158.387 147.135C158.387 146.877 158.336 146.65 158.234 146.453C158.135 146.257 157.98 146.104 157.769 145.995C157.561 145.884 157.292 145.828 156.963 145.828H155.756V152H154.438ZM166.85 144.727V152H165.678L162.251 147.046H162.191V152H160.874V144.727H162.053L165.476 149.685H165.54V144.727H166.85ZM171.409 144.17H177.219V145.22H171.409V144.17ZM170.459 148.11H178.829V149.18H170.459V148.11ZM173.929 148.86H175.269V152.9H173.929V148.86ZM176.539 144.17H177.849V144.99C177.849 145.99 177.849 147.11 177.489 148.75L176.179 148.6C176.539 147.05 176.539 145.95 176.539 144.99V144.17ZM183.168 148.94H184.488V150.3H183.168V148.94ZM179.648 148.19H188.018V149.24H179.648V148.19ZM180.578 150.03H187.008V152.88H185.678V151.08H180.578V150.03ZM183.168 143.64H184.488V145H183.168V143.64ZM183.088 145.1H184.258V145.29C184.258 146.7 182.918 147.68 180.398 147.86L179.998 146.87C182.228 146.73 183.088 146 183.088 145.29V145.1ZM183.398 145.1H184.568V145.29C184.568 146 185.428 146.73 187.658 146.87L187.258 147.86C184.728 147.68 183.398 146.7 183.398 145.29V145.1ZM180.448 144.47H187.218V145.5H180.448V144.47ZM194.787 143.63H196.107V152.89H194.787V143.63ZM195.807 147.24H197.447V148.35H195.807V147.24ZM188.807 145H194.197V146.06H188.807V145ZM191.517 146.58C192.867 146.58 193.867 147.5 193.867 148.79C193.867 150.08 192.867 151 191.517 151C190.167 151 189.167 150.08 189.167 148.79C189.167 147.5 190.167 146.58 191.517 146.58ZM191.517 147.66C190.887 147.66 190.437 148.08 190.437 148.79C190.437 149.5 190.887 149.92 191.517 149.92C192.147 149.92 192.597 149.5 192.597 148.79C192.597 148.08 192.147 147.66 191.517 147.66ZM190.847 143.78H192.177V145.4H190.847V143.78ZM202.156 144.75H204.976V145.8H202.156V144.75ZM202.156 146.78H204.976V147.85H202.156V146.78ZM200.236 149.15H201.246V149.53C201.246 150.95 200.626 152.25 199.176 152.78L198.526 151.81C199.736 151.39 200.236 150.45 200.236 149.53V149.15ZM200.576 149.15H201.536V149.53C201.536 150.45 201.976 151.42 203.126 151.9L202.576 152.87C201.106 152.32 200.576 150.91 200.576 149.53V149.15ZM203.616 149.15H204.566V149.53C204.566 150.82 204.026 152.29 202.576 152.87L202.026 151.9C203.166 151.37 203.616 150.36 203.616 149.53V149.15ZM203.926 149.15H204.926V149.53C204.926 150.51 205.416 151.42 206.656 151.81L205.986 152.78C204.526 152.27 203.926 151.01 203.926 149.53V149.15ZM200.606 144.07C201.986 144.07 203.046 145.01 203.046 146.31C203.046 147.61 201.986 148.55 200.606 148.55C199.216 148.55 198.166 147.61 198.166 146.31C198.166 145.01 199.216 144.07 200.606 144.07ZM200.606 145.18C199.926 145.18 199.426 145.6 199.426 146.31C199.426 147.02 199.926 147.44 200.606 147.44C201.286 147.44 201.776 147.02 201.776 146.31C201.776 145.6 201.286 145.18 200.606 145.18ZM204.466 143.63H205.796V148.81H204.466V143.63ZM208.226 149.18H209.536V149.96H213.246V149.18H214.566V152.79H208.226V149.18ZM209.536 150.95V151.75H213.246V150.95H209.536ZM207.246 147.67H215.616V148.72H207.246V147.67ZM210.756 143.73H211.896V144.01C211.896 145.62 210.516 146.95 208.126 147.26L207.656 146.23C209.746 145.98 210.756 144.95 210.756 144.01V143.73ZM210.976 143.73H212.116V144.01C212.116 144.94 213.126 145.98 215.206 146.23L214.736 147.26C212.346 146.95 210.976 145.61 210.976 144.01V143.73ZM222.855 143.63H224.185V152.89H222.855V143.63ZM216.935 144.51H218.255V150.26H216.935V144.51ZM216.935 149.48H217.755C219.105 149.48 220.605 149.38 222.135 149.08L222.285 150.18C220.695 150.51 219.165 150.61 217.755 150.61H216.935V149.48ZM231.564 143.62H232.904V152.91H231.564V143.62ZM232.604 147.05H234.244V148.14H232.604V147.05ZM226.004 149.58H226.784C228.344 149.58 229.574 149.53 230.934 149.29L231.064 150.39C229.664 150.64 228.394 150.68 226.784 150.68H226.004V149.58ZM226.004 144.48H230.324V145.55H227.324V150.11H226.004V144.48ZM235.896 152.078C235.68 152.078 235.496 152.002 235.342 151.851C235.188 151.699 235.112 151.515 235.115 151.297C235.112 151.084 235.188 150.902 235.342 150.75C235.496 150.598 235.68 150.523 235.896 150.523C236.104 150.523 236.285 150.598 236.439 150.75C236.595 150.902 236.675 151.084 236.677 151.297C236.675 151.441 236.637 151.573 236.563 151.691C236.492 151.809 236.398 151.904 236.279 151.975C236.163 152.044 236.035 152.078 235.896 152.078ZM6.36 155.64H7.69V162.56H6.36V155.64ZM7.31 158.46H8.92V159.55H7.31V158.46ZM0.4 156.6H5.85V157.64H0.4V156.6ZM3.13 157.97C4.46 157.97 5.4 158.7 5.4 159.76C5.4 160.82 4.46 161.54 3.13 161.54C1.79 161.54 0.85 160.82 0.85 159.76C0.85 158.7 1.79 157.97 3.13 157.97ZM3.13 158.98C2.54 158.98 2.13 159.26 2.13 159.76C2.13 160.26 2.54 160.53 3.13 160.53C3.72 160.53 4.13 160.26 4.13 159.76C4.13 159.26 3.72 158.98 3.13 158.98ZM2.46 155.62H3.79V157.11H2.46V155.62ZM1.72 163.67H8.02V164.73H1.72V163.67ZM1.72 162.04H3.05V164.13H1.72V162.04ZM11.6792 156.34H12.7592V157.69C12.7592 159.98 11.9592 162.13 10.2092 162.99L9.40922 161.92C10.9692 161.19 11.6792 159.41 11.6792 157.69V156.34ZM11.9492 156.34H13.0092V157.69C13.0092 159.35 13.6692 161.04 15.1492 161.76L14.3492 162.82C12.6792 161.97 11.9492 159.91 11.9492 157.69V156.34ZM15.5192 155.63H16.8592V164.89H15.5192V155.63ZM16.5592 159.19H18.1992V160.3H16.5592V159.19ZM24.7584 155.64H26.0884V161.13H24.7584V155.64ZM25.7084 157.81H27.3184V158.91H25.7084V157.81ZM20.0584 161.53H26.0884V164.79H20.0584V161.53ZM24.7884 162.57H21.3684V163.74H24.7884V162.57ZM19.1284 159.73H19.9084C21.7284 159.73 22.8484 159.7 24.1284 159.46L24.2484 160.51C22.9484 160.76 21.7784 160.81 19.9084 160.81H19.1284V159.73ZM19.1184 156.09H23.3484V158.91H20.4484V160.32H19.1284V157.92H22.0384V157.15H19.1184V156.09ZM33.9677 155.63H35.3077V160.97H33.9677V155.63ZM34.9177 157.82H36.5177V158.9H34.9177V157.82ZM32.2677 161.14C34.1677 161.14 35.3977 161.85 35.3977 163.02C35.3977 164.2 34.1677 164.9 32.2677 164.9C30.3577 164.9 29.1277 164.2 29.1277 163.02C29.1277 161.85 30.3577 161.14 32.2677 161.14ZM32.2677 162.2C31.0877 162.2 30.4377 162.46 30.4377 163.02C30.4377 163.57 31.0877 163.84 32.2677 163.84C33.4377 163.84 34.0877 163.57 34.0877 163.02C34.0877 162.46 33.4377 162.2 32.2677 162.2ZM28.3177 159.43H29.0877C31.1277 159.43 32.1377 159.38 33.2477 159.14L33.3777 160.2C32.2477 160.45 31.1777 160.49 29.0877 160.49H28.3177V159.43ZM28.3177 156.25H32.4577V157.31H29.6377V160.15H28.3177V156.25ZM45.6173 155.63H46.9373V164.89H45.6173V155.63ZM46.6373 159.24H48.2773V160.35H46.6373V159.24ZM39.6373 157H45.0273V158.06H39.6373V157ZM42.3473 158.58C43.6973 158.58 44.6973 159.5 44.6973 160.79C44.6973 162.08 43.6973 163 42.3473 163C40.9973 163 39.9973 162.08 39.9973 160.79C39.9973 159.5 40.9973 158.58 42.3473 158.58ZM42.3473 159.66C41.7173 159.66 41.2673 160.08 41.2673 160.79C41.2673 161.5 41.7173 161.92 42.3473 161.92C42.9773 161.92 43.4273 161.5 43.4273 160.79C43.4273 160.08 42.9773 159.66 42.3473 159.66ZM41.6773 155.78H43.0073V157.4H41.6773V155.78ZM55.7866 159.13H57.4166V160.22H55.7866V159.13ZM54.7966 155.62H56.1366V164.88H54.7966V155.62ZM49.1566 156.51H50.4866V162.26H49.1566V156.51ZM49.1566 161.52H49.9566C51.2766 161.52 52.7066 161.43 54.1966 161.13L54.3366 162.22C52.8066 162.54 51.3166 162.62 49.9566 162.62H49.1566V161.52ZM61.0558 156.24C62.5158 156.24 63.6058 157.19 63.6058 158.52C63.6058 159.86 62.5158 160.81 61.0558 160.81C59.6058 160.81 58.4958 159.86 58.4958 158.52C58.4958 157.19 59.6058 156.24 61.0558 156.24ZM61.0558 157.38C60.3458 157.38 59.8058 157.8 59.8058 158.52C59.8058 159.25 60.3458 159.67 61.0558 159.67C61.7658 159.67 62.3058 159.25 62.3058 158.52C62.3058 157.8 61.7658 157.38 61.0558 157.38ZM64.4758 155.62H65.8058V164.91H64.4758V155.62ZM58.2758 163.03L58.1158 161.96C59.7458 161.96 62.0158 161.94 63.9658 161.65L64.0658 162.61C62.0558 163.01 59.8758 163.03 58.2758 163.03ZM72.3952 164.107C71.8507 164.107 71.3832 163.987 70.9925 163.748C70.6043 163.509 70.3048 163.179 70.0941 162.757C69.8858 162.333 69.7816 161.846 69.7816 161.294C69.7816 160.74 69.8881 160.251 70.1012 159.827C70.3143 159.401 70.6149 159.07 71.0032 158.833C71.3938 158.594 71.8555 158.474 72.3881 158.474C72.8308 158.474 73.2227 158.556 73.5636 158.719C73.9068 158.88 74.1803 159.109 74.3839 159.405C74.5875 159.698 74.7035 160.042 74.7319 160.435H73.5032C73.4535 160.172 73.3351 159.953 73.1481 159.778C72.9634 159.6 72.716 159.511 72.4059 159.511C72.1431 159.511 71.9123 159.582 71.7134 159.724C71.5146 159.864 71.3595 160.065 71.2482 160.328C71.1393 160.591 71.0849 160.906 71.0849 161.273C71.0849 161.644 71.1393 161.964 71.2482 162.232C71.3571 162.497 71.5098 162.701 71.7063 162.846C71.9052 162.988 72.1384 163.059 72.4059 163.059C72.5953 163.059 72.7646 163.023 72.9137 162.952C73.0652 162.879 73.1919 162.774 73.2937 162.636C73.3955 162.499 73.4653 162.332 73.5032 162.136H74.7319C74.7011 162.522 74.5875 162.864 74.391 163.162C74.1945 163.458 73.927 163.69 73.5884 163.858C73.2499 164.024 72.8522 164.107 72.3952 164.107ZM75.7875 164V158.545H77.0339V159.455H77.0907C77.1902 159.14 77.3606 158.897 77.6021 158.727C77.8459 158.554 78.1241 158.467 78.4366 158.467C78.5076 158.467 78.5869 158.471 78.6745 158.478C78.7645 158.483 78.8391 158.491 78.8983 158.503V159.685C78.8438 159.666 78.7574 159.65 78.639 159.636C78.523 159.619 78.4106 159.611 78.3017 159.611C78.0673 159.611 77.8566 159.662 77.6696 159.763C77.4849 159.863 77.3393 160.001 77.2328 160.179C77.1262 160.357 77.073 160.561 77.073 160.793V164H75.7875ZM81.9425 164.107C81.3956 164.107 80.9233 163.993 80.5256 163.766C80.1302 163.536 79.826 163.212 79.6129 162.793C79.3999 162.371 79.2933 161.875 79.2933 161.305C79.2933 160.744 79.3999 160.251 79.6129 159.827C79.8284 159.401 80.129 159.07 80.5149 158.833C80.9008 158.594 81.3542 158.474 81.875 158.474C82.2112 158.474 82.5284 158.529 82.8267 158.638C83.1274 158.744 83.3925 158.91 83.6222 159.135C83.8542 159.36 84.0365 159.646 84.169 159.994C84.3016 160.34 84.3679 160.752 84.3679 161.23V161.624H79.897V160.758H83.1357C83.1333 160.512 83.08 160.293 82.9759 160.101C82.8717 159.907 82.7261 159.754 82.5391 159.643C82.3544 159.531 82.139 159.476 81.8928 159.476C81.63 159.476 81.3991 159.54 81.2003 159.668C81.0014 159.793 80.8464 159.959 80.7351 160.165C80.6262 160.368 80.5705 160.592 80.5682 160.836V161.592C80.5682 161.91 80.6262 162.182 80.7422 162.409C80.8582 162.634 81.0204 162.807 81.2287 162.928C81.437 163.046 81.6809 163.105 81.9602 163.105C82.1473 163.105 82.3165 163.079 82.468 163.027C82.6196 162.973 82.7509 162.893 82.8622 162.789C82.9735 162.685 83.0575 162.556 83.1143 162.402L84.3146 162.537C84.2389 162.854 84.0945 163.131 83.8814 163.368C83.6707 163.602 83.4008 163.785 83.0717 163.915C82.7427 164.043 82.3662 164.107 81.9425 164.107ZM87.4796 164.096C87.0511 164.096 86.6676 163.986 86.329 163.766C85.9905 163.545 85.723 163.226 85.5265 162.807C85.33 162.388 85.2317 161.879 85.2317 161.28C85.2317 160.674 85.3311 160.162 85.53 159.746C85.7312 159.327 86.0023 159.011 86.3432 158.798C86.6841 158.582 87.0641 158.474 87.4831 158.474C87.8027 158.474 88.0655 158.529 88.2715 158.638C88.4775 158.744 88.6408 158.873 88.7615 159.025C88.8823 159.174 88.9758 159.315 89.0421 159.447H89.0953V156.727H90.3844V164H89.1202V163.141H89.0421C88.9758 163.273 88.8799 163.414 88.7544 163.563C88.629 163.71 88.4632 163.835 88.2573 163.94C88.0513 164.044 87.7921 164.096 87.4796 164.096ZM87.8382 163.041C88.1105 163.041 88.3425 162.968 88.5343 162.821C88.726 162.672 88.8716 162.465 88.9711 162.2C89.0705 161.934 89.1202 161.625 89.1202 161.273C89.1202 160.92 89.0705 160.613 88.9711 160.353C88.874 160.093 88.7296 159.89 88.5378 159.746C88.3484 159.601 88.1152 159.529 87.8382 159.529C87.5518 159.529 87.3127 159.604 87.1209 159.753C86.9292 159.902 86.7847 160.108 86.6877 160.371C86.5906 160.634 86.5421 160.934 86.5421 161.273C86.5421 161.614 86.5906 161.918 86.6877 162.185C86.7871 162.451 86.9327 162.66 87.1245 162.814C87.3186 162.965 87.5565 163.041 87.8382 163.041ZM94.169 164.107C93.6222 164.107 93.1499 163.993 92.7521 163.766C92.3568 163.536 92.0526 163.212 91.8395 162.793C91.6264 162.371 91.5199 161.875 91.5199 161.305C91.5199 160.744 91.6264 160.251 91.8395 159.827C92.0549 159.401 92.3556 159.07 92.7415 158.833C93.1274 158.594 93.5807 158.474 94.1016 158.474C94.4377 158.474 94.755 158.529 95.0533 158.638C95.3539 158.744 95.6191 158.91 95.8487 159.135C96.0807 159.36 96.263 159.646 96.3956 159.994C96.5282 160.34 96.5945 160.752 96.5945 161.23V161.624H92.1236V160.758H95.3622C95.3598 160.512 95.3066 160.293 95.2024 160.101C95.0982 159.907 94.9527 159.754 94.7656 159.643C94.581 159.531 94.3655 159.476 94.1193 159.476C93.8565 159.476 93.6257 159.54 93.4268 159.668C93.228 159.793 93.0729 159.959 92.9616 160.165C92.8527 160.368 92.7971 160.592 92.7947 160.836V161.592C92.7947 161.91 92.8527 162.182 92.9688 162.409C93.0848 162.634 93.2469 162.807 93.4553 162.928C93.6636 163.046 93.9074 163.105 94.1868 163.105C94.3738 163.105 94.5431 163.079 94.6946 163.027C94.8461 162.973 94.9775 162.893 95.0888 162.789C95.2 162.685 95.2841 162.556 95.3409 162.402L96.5412 162.537C96.4654 162.854 96.321 163.131 96.108 163.368C95.8973 163.602 95.6274 163.785 95.2983 163.915C94.9692 164.043 94.5928 164.107 94.169 164.107ZM98.9675 160.804V164H97.682V158.545H98.9107V159.472H98.9746C99.1001 159.167 99.3001 158.924 99.5748 158.744C99.8517 158.564 100.194 158.474 100.601 158.474C100.977 158.474 101.305 158.555 101.585 158.716C101.866 158.877 102.084 159.11 102.238 159.415C102.394 159.721 102.471 160.091 102.469 160.527V164H101.183V160.726C101.183 160.361 101.089 160.076 100.899 159.87C100.712 159.664 100.453 159.561 100.122 159.561C99.8967 159.561 99.6967 159.611 99.5215 159.71C99.3487 159.807 99.2125 159.948 99.1131 160.133C99.016 160.317 98.9675 160.541 98.9675 160.804ZM106.499 158.545V159.54H103.364V158.545H106.499ZM104.138 157.239H105.423V162.359C105.423 162.532 105.45 162.665 105.502 162.757C105.556 162.847 105.627 162.909 105.715 162.942C105.802 162.975 105.899 162.991 106.006 162.991C106.086 162.991 106.16 162.986 106.226 162.974C106.295 162.962 106.347 162.951 106.382 162.942L106.599 163.947C106.53 163.97 106.432 163.996 106.304 164.025C106.179 164.053 106.025 164.07 105.843 164.075C105.521 164.084 105.231 164.036 104.972 163.929C104.714 163.82 104.51 163.652 104.358 163.425C104.209 163.197 104.136 162.913 104.138 162.572V157.239ZM107.575 164V158.545H108.86V164H107.575ZM108.221 157.771C108.017 157.771 107.842 157.704 107.695 157.569C107.549 157.432 107.475 157.267 107.475 157.075C107.475 156.881 107.549 156.717 107.695 156.582C107.842 156.444 108.017 156.376 108.221 156.376C108.427 156.376 108.602 156.444 108.746 156.582C108.893 156.717 108.967 156.881 108.967 157.075C108.967 157.267 108.893 157.432 108.746 157.569C108.602 157.704 108.427 157.771 108.221 157.771ZM111.752 164.11C111.406 164.11 111.095 164.049 110.818 163.925C110.543 163.8 110.325 163.615 110.164 163.371C110.006 163.128 109.926 162.827 109.926 162.469C109.926 162.162 109.983 161.907 110.097 161.706C110.21 161.505 110.365 161.344 110.562 161.223C110.758 161.102 110.98 161.011 111.226 160.95C111.475 160.886 111.731 160.839 111.997 160.811C112.316 160.778 112.575 160.748 112.774 160.722C112.973 160.694 113.118 160.651 113.208 160.594C113.3 160.535 113.346 160.444 113.346 160.321V160.3C113.346 160.032 113.267 159.825 113.108 159.678C112.95 159.531 112.721 159.458 112.423 159.458C112.108 159.458 111.858 159.527 111.673 159.664C111.491 159.801 111.368 159.964 111.304 160.151L110.104 159.98C110.199 159.649 110.355 159.372 110.573 159.149C110.79 158.924 111.057 158.756 111.372 158.645C111.686 158.531 112.035 158.474 112.416 158.474C112.678 158.474 112.94 158.505 113.2 158.567C113.461 158.628 113.699 158.73 113.914 158.872C114.13 159.012 114.302 159.202 114.433 159.444C114.565 159.685 114.632 159.987 114.632 160.349V164H113.396V163.251H113.353C113.275 163.402 113.165 163.544 113.023 163.677C112.883 163.807 112.707 163.912 112.494 163.993C112.283 164.071 112.036 164.11 111.752 164.11ZM112.085 163.165C112.343 163.165 112.567 163.115 112.757 163.013C112.946 162.909 113.092 162.771 113.193 162.601C113.298 162.43 113.35 162.245 113.35 162.043V161.401C113.309 161.434 113.241 161.464 113.144 161.493C113.049 161.521 112.942 161.546 112.824 161.567C112.706 161.589 112.588 161.608 112.472 161.624C112.356 161.641 112.256 161.655 112.171 161.667C111.979 161.693 111.807 161.736 111.656 161.795C111.504 161.854 111.385 161.937 111.297 162.043C111.209 162.147 111.166 162.282 111.166 162.448C111.166 162.685 111.252 162.864 111.425 162.984C111.598 163.105 111.818 163.165 112.085 163.165ZM117.21 156.727V164H115.924V156.727H117.21ZM122.461 155.76C124.571 155.76 125.811 156.32 125.811 157.34C125.811 158.36 124.571 158.92 122.461 158.92C120.341 158.92 119.111 158.36 119.111 157.34C119.111 156.32 120.341 155.76 122.461 155.76ZM122.461 156.73C121.121 156.73 120.491 156.93 120.491 157.34C120.491 157.77 121.121 157.95 122.461 157.95C123.801 157.95 124.431 157.77 124.431 157.34C124.431 156.93 123.801 156.73 122.461 156.73ZM118.271 159.35H126.641V160.4H118.271V159.35ZM119.231 160.92H125.631V163.3H120.551V164.12H119.241V162.38H124.321V161.91H119.231V160.92ZM119.241 163.83H125.871V164.83H119.241V163.83ZM130.221 156.04H131.541V157.13H133.351V156.04H134.671V160.09H130.221V156.04ZM131.541 158.13V159.05H133.351V158.13H131.541ZM135.911 155.63H137.241V160.33H135.911V155.63ZM136.701 157.41H138.461V158.49H136.701V157.41ZM131.121 160.69H137.241V163.21H132.461V164.31H131.141V162.26H135.931V161.71H131.121V160.69ZM131.141 163.8H137.511V164.83H131.141V163.8ZM140.15 160.9H141.46V161.87H145.21V160.9H146.53V164.79H140.15V160.9ZM141.46 162.89V163.73H145.21V162.89H141.46ZM140.18 156H146.05V157.06H140.18V156ZM139.16 159.24H147.54V160.31H139.16V159.24ZM145.25 156H146.56V156.74C146.56 157.51 146.56 158.31 146.3 159.47L144.96 159.56C145.25 158.37 145.25 157.52 145.25 156.74V156ZM148.339 157.02H152.769V158.08H148.339V157.02ZM150.569 158.49C151.749 158.49 152.599 159.4 152.599 160.7C152.599 161.99 151.749 162.9 150.569 162.9C149.399 162.9 148.539 161.99 148.539 160.7C148.539 159.4 149.399 158.49 150.569 158.49ZM150.569 159.6C150.069 159.6 149.719 160 149.719 160.7C149.719 161.4 150.069 161.79 150.569 161.79C151.069 161.79 151.429 161.4 151.429 160.7C151.429 160 151.069 159.6 150.569 159.6ZM155.039 155.63H156.309V164.89H155.039V155.63ZM153.929 159.39H155.459V160.46H153.929V159.39ZM153.099 155.8H154.339V164.5H153.099V155.8ZM149.919 155.88H151.229V157.69H149.919V155.88ZM161.009 159.9H167.519V160.96H161.009V159.9ZM160.039 162.69H168.419V163.78H160.039V162.69ZM161.009 156.39H167.449V157.47H162.329V160.34H161.009V156.39ZM175.588 155.63H176.928V160.8H175.588V155.63ZM169.708 159.57H170.518C172.318 159.57 173.488 159.54 174.828 159.31L174.978 160.38C173.598 160.6 172.368 160.64 170.518 160.64H169.708V159.57ZM169.698 156.05H173.958V158.81H171.018V160.27H169.708V157.81H172.648V157.1H169.698V156.05ZM170.768 161.18H172.078V161.96H175.608V161.18H176.928V164.79H170.768V161.18ZM172.078 162.98V163.73H175.608V162.98H172.078ZM184.837 155.63H186.167V164.89H184.837V155.63ZM178.917 156.51H180.237V162.26H178.917V156.51ZM178.917 161.48H179.737C181.087 161.48 182.587 161.38 184.117 161.08L184.267 162.18C182.677 162.51 181.147 162.61 179.737 162.61H178.917V161.48ZM193.547 155.62H194.887V164.91H193.547V155.62ZM194.587 159.05H196.227V160.14H194.587V159.05ZM187.987 161.58H188.767C190.327 161.58 191.557 161.53 192.917 161.29L193.047 162.39C191.647 162.64 190.377 162.68 188.767 162.68H187.987V161.58ZM187.987 156.48H192.307V157.55H189.307V162.11H187.987V156.48ZM197.878 164.078C197.663 164.078 197.478 164.002 197.324 163.851C197.17 163.699 197.095 163.515 197.097 163.297C197.095 163.084 197.17 162.902 197.324 162.75C197.478 162.598 197.663 162.523 197.878 162.523C198.087 162.523 198.268 162.598 198.422 162.75C198.578 162.902 198.657 163.084 198.659 163.297C198.657 163.441 198.619 163.573 198.546 163.691C198.475 163.809 198.38 163.904 198.262 163.975C198.146 164.044 198.018 164.078 197.878 164.078Z" fill="white"/>
<path d="M15 14C15 11.2386 17.2386 9 20 9H69C69.5523 9 70 9.44772 70 10V23C70 25.7614 67.7614 28 65 28H16C15.4477 28 15 27.5523 15 27V14Z" fill="#0000FF"/>
<path d="M15 14C15 11.2386 17.2386 9 20 9H69C69.5523 9 70 9.44772 70 10V23C70 25.7614 67.7614 28 65 28H16C15.4477 28 15 27.5523 15 27V14Z" fill="#800080" fill-opacity="0.8"/>
<path d="M7 11.48H9.48V15.22H7V11.48ZM3.88 16.82L3.56 14.68C5.96 14.68 9.88 14.64 12.68 14.24L12.86 16.16C9.96 16.74 6.18 16.82 3.88 16.82ZM17.28 2.26H19.8V20.78H17.28V2.26ZM15.04 9.62H18.02V11.78H15.04V9.62ZM13.44 2.56H15.92V19.94H13.44V2.56ZM8.24 3.88C10.74 3.88 12.52 5.52 12.52 7.94C12.52 10.36 10.74 12.02 8.24 12.02C5.74 12.02 3.96 10.36 3.96 7.94C3.96 5.52 5.74 3.88 8.24 3.88ZM8.24 6C7.14 6 6.38 6.72 6.38 7.94C6.38 9.2 7.14 9.86 8.24 9.86C9.32 9.86 10.08 9.2 10.08 7.94C10.08 6.72 9.32 6 8.24 6ZM27.794 19V4.45455H33.3622C34.4134 4.45455 35.2869 4.62026 35.983 4.9517C36.6837 5.27841 37.2069 5.72585 37.5526 6.29403C37.9029 6.86222 38.0781 7.50616 38.0781 8.22585C38.0781 8.81771 37.9645 9.32434 37.7372 9.74574C37.5099 10.1624 37.2045 10.5009 36.821 10.7614C36.4375 11.0218 36.009 11.2088 35.5355 11.3224V11.4645C36.0516 11.4929 36.5464 11.6515 37.0199 11.9403C37.4981 12.2244 37.8887 12.6269 38.1918 13.1477C38.4948 13.6686 38.6463 14.2983 38.6463 15.0369C38.6463 15.7898 38.464 16.4669 38.0994 17.0682C37.7348 17.6648 37.1856 18.1359 36.4517 18.4815C35.7178 18.8272 34.7945 19 33.6818 19H27.794ZM30.429 16.7983H33.2628C34.2192 16.7983 34.9081 16.616 35.3295 16.2514C35.7557 15.8821 35.9688 15.4086 35.9688 14.831C35.9688 14.4001 35.8622 14.0118 35.6491 13.6662C35.4361 13.3158 35.133 13.0412 34.7401 12.8423C34.3471 12.6387 33.8783 12.5369 33.3338 12.5369H30.429V16.7983ZM30.429 10.6406H33.0355C33.4901 10.6406 33.8996 10.5578 34.2642 10.392C34.6288 10.2216 34.9152 9.98248 35.1236 9.67472C35.3366 9.36222 35.4432 8.9929 35.4432 8.56676C35.4432 8.00331 35.2443 7.5393 34.8466 7.17472C34.4536 6.81013 33.8688 6.62784 33.0923 6.62784H30.429V10.6406ZM48.8434 8.45312C48.7771 7.83286 48.4978 7.34991 48.0053 7.00426C47.5176 6.65862 46.8832 6.4858 46.1019 6.4858C45.5527 6.4858 45.0816 6.56866 44.6886 6.73438C44.2956 6.90009 43.9949 7.125 43.7866 7.40909C43.5782 7.69318 43.4717 8.01752 43.467 8.3821C43.467 8.68513 43.5356 8.94792 43.6729 9.17045C43.815 9.39299 44.0067 9.58239 44.2482 9.73864C44.4897 9.89015 44.7572 10.018 45.0508 10.1222C45.3443 10.2263 45.6403 10.3139 45.9386 10.3849L47.3022 10.7259C47.8514 10.8537 48.3794 11.0265 48.886 11.2443C49.3974 11.4621 49.8543 11.7367 50.2567 12.0682C50.6639 12.3996 50.9859 12.7997 51.2227 13.2685C51.4594 13.7372 51.5778 14.2865 51.5778 14.9162C51.5778 15.7685 51.36 16.5189 50.9244 17.1676C50.4888 17.8116 49.859 18.3158 49.0352 18.6804C48.216 19.0402 47.2241 19.2202 46.0593 19.2202C44.9277 19.2202 43.9452 19.045 43.1119 18.6946C42.2833 18.3442 41.6346 17.8329 41.1658 17.1605C40.7018 16.4882 40.4509 15.669 40.413 14.7031H43.0053C43.0432 15.2098 43.1995 15.6312 43.4741 15.9673C43.7487 16.3035 44.1062 16.5545 44.5465 16.7202C44.9916 16.8859 45.4888 16.9688 46.038 16.9688C46.6109 16.9688 47.1128 16.8835 47.5437 16.7131C47.9793 16.5379 48.3202 16.2964 48.5664 15.9886C48.8126 15.6761 48.9381 15.3116 48.9428 14.8949C48.9381 14.5161 48.8268 14.2036 48.609 13.9574C48.3912 13.7064 48.0858 13.4981 47.6928 13.3324C47.3046 13.1619 46.85 13.0104 46.3292 12.8778L44.6744 12.4517C43.4764 12.1439 42.5295 11.6776 41.8335 11.0526C41.1422 10.4228 40.7965 9.58712 40.7965 8.54545C40.7965 7.68845 41.0285 6.93797 41.4925 6.29403C41.9613 5.65009 42.5981 5.15057 43.4031 4.79545C44.208 4.43561 45.1194 4.25568 46.1374 4.25568C47.1696 4.25568 48.074 4.43561 48.8505 4.79545C49.6317 5.15057 50.2449 5.64536 50.69 6.27983C51.1351 6.90956 51.3647 7.634 51.3789 8.45312H48.8434ZM66.3771 9.36222H63.7209C63.6451 8.92661 63.5054 8.54072 63.3018 8.20455C63.0982 7.86364 62.8449 7.57481 62.5419 7.33807C62.2389 7.10133 61.8932 6.92377 61.505 6.8054C61.1214 6.68229 60.7071 6.62074 60.2621 6.62074C59.4714 6.62074 58.7706 6.8196 58.1598 7.21733C57.549 7.61032 57.0708 8.18797 56.7251 8.95028C56.3795 9.70786 56.2067 10.6335 56.2067 11.7273C56.2067 12.84 56.3795 13.7775 56.7251 14.5398C57.0755 15.2973 57.5537 15.8703 58.1598 16.2585C58.7706 16.642 59.469 16.8338 60.255 16.8338C60.6906 16.8338 61.0978 16.777 61.4766 16.6634C61.8601 16.545 62.2034 16.3722 62.5064 16.1449C62.8142 15.9176 63.0722 15.6383 63.2805 15.3068C63.4936 14.9754 63.6404 14.5966 63.7209 14.1705L66.3771 14.1847C66.2777 14.8759 66.0623 15.5246 65.7308 16.1307C65.4041 16.7367 64.9756 17.2718 64.4453 17.7358C63.915 18.1951 63.2947 18.5549 62.5845 18.8153C61.8743 19.071 61.0859 19.1989 60.2195 19.1989C58.9411 19.1989 57.8 18.9029 56.7962 18.3111C55.7924 17.7192 55.0017 16.8646 54.424 15.7472C53.8464 14.6297 53.5575 13.2898 53.5575 11.7273C53.5575 10.16 53.8487 8.82008 54.4311 7.70739C55.0135 6.58996 55.8066 5.73532 56.8104 5.14347C57.8142 4.55161 58.9505 4.25568 60.2195 4.25568C61.0291 4.25568 61.782 4.36932 62.478 4.59659C63.174 4.82386 63.7943 5.15767 64.3388 5.59801C64.8833 6.03362 65.3307 6.56866 65.6811 7.20312C66.0362 7.83286 66.2682 8.55256 66.3771 9.36222ZM79.9955 2.24H82.6755V20.76H79.9955V2.24ZM81.9755 9.32H85.2355V11.5H81.9755V9.32ZM75.1355 4.16H77.7355C77.7355 9.72 75.6155 14.48 69.4555 17.58L67.9755 15.56C72.8355 13.04 75.1355 9.64 75.1355 4.62V4.16ZM68.9955 4.16H76.4955V6.3H68.9955V4.16ZM104.275 2.26H106.955V11.74H104.275V2.26ZM94.4148 12.48H106.955V17.48H97.0748V19.72H94.4548V15.58H104.315V14.52H94.4148V12.48ZM94.4548 18.6H107.455V20.66H94.4548V18.6ZM92.3148 3.38H102.295V5.42H92.3148V3.38ZM92.0948 11.42L91.8348 9.32C95.0748 9.32 99.3948 9.26 102.975 8.82L103.115 10.72C99.4548 11.32 95.2948 11.4 92.0948 11.42ZM93.7748 4.3H96.3148V10.36H93.7748V4.3ZM98.2548 4.3H100.835V10.36H98.2548V4.3ZM113.613 11.66H116.253V16.86H113.613V11.66ZM120.333 11.66H122.993V16.86H120.333V11.66ZM109.933 16.48H126.693V18.64H109.933V16.48ZM118.293 3.16C122.273 3.16 125.213 5.12 125.213 8.14C125.213 11.16 122.273 13.1 118.293 13.1C114.293 13.1 111.373 11.16 111.373 8.14C111.373 5.12 114.293 3.16 118.293 3.16ZM118.293 5.24C115.713 5.24 113.993 6.3 113.993 8.14C113.993 9.96 115.713 11.04 118.293 11.04C120.873 11.04 122.593 9.96 122.593 8.14C122.593 6.3 120.873 5.24 118.293 5.24ZM140.232 2.28H142.892V16.12H140.232V2.28ZM142.132 7.92H145.352V10.1H142.132V7.92ZM128.312 4.2H139.212V6.28H128.312V4.2ZM133.772 6.94C136.432 6.94 138.312 8.4 138.312 10.52C138.312 12.64 136.432 14.08 133.772 14.08C131.092 14.08 129.212 12.64 129.212 10.52C129.212 8.4 131.092 6.94 133.772 6.94ZM133.772 8.96C132.592 8.96 131.772 9.52 131.772 10.52C131.772 11.52 132.592 12.06 133.772 12.06C134.952 12.06 135.772 11.52 135.772 10.52C135.772 9.52 134.952 8.96 133.772 8.96ZM132.432 2.24H135.092V5.22H132.432V2.24ZM130.952 18.34H143.552V20.46H130.952V18.34ZM130.952 15.08H133.612V19.26H130.952V15.08ZM158.55 2.24H161.23V20.76H158.55V2.24ZM160.53 9.32H163.79V11.5H160.53V9.32ZM153.69 4.16H156.29C156.29 9.72 154.17 14.48 148.01 17.58L146.53 15.56C151.39 13.04 153.69 9.64 153.69 4.62V4.16ZM147.55 4.16H155.05V6.3H147.55V4.16ZM168.809 11.66H171.449V16.86H168.809V11.66ZM175.529 11.66H178.189V16.86H175.529V11.66ZM165.129 16.48H181.889V18.64H165.129V16.48ZM173.489 3.16C177.469 3.16 180.409 5.12 180.409 8.14C180.409 11.16 177.469 13.1 173.489 13.1C169.489 13.1 166.569 11.16 166.569 8.14C166.569 5.12 169.489 3.16 173.489 3.16ZM173.489 5.24C170.909 5.24 169.189 6.3 169.189 8.14C169.189 9.96 170.909 11.04 173.489 11.04C176.069 11.04 177.789 9.96 177.789 8.14C177.789 6.3 176.069 5.24 173.489 5.24ZM186.485 14.7244V14.5398C186.49 13.6828 186.571 13.0009 186.727 12.4943C186.888 11.9877 187.115 11.5805 187.409 11.2727C187.702 10.9602 188.06 10.6738 188.481 10.4134C188.77 10.2334 189.028 10.0369 189.255 9.82386C189.487 9.60606 189.67 9.36458 189.802 9.09943C189.935 8.82955 190.001 8.52888 190.001 8.19744C190.001 7.82339 189.913 7.49905 189.738 7.22443C189.563 6.94981 189.326 6.73674 189.028 6.58523C188.734 6.43371 188.405 6.35795 188.041 6.35795C187.705 6.35795 187.385 6.43134 187.082 6.57812C186.784 6.72017 186.535 6.93797 186.336 7.23153C186.142 7.52036 186.033 7.88731 186.01 8.33239H183.481C183.505 7.43276 183.723 6.67992 184.135 6.07386C184.551 5.4678 185.1 5.01326 185.782 4.71023C186.469 4.4072 187.226 4.25568 188.055 4.25568C188.959 4.25568 189.755 4.4143 190.441 4.73153C191.133 5.04877 191.67 5.50095 192.054 6.08807C192.442 6.67045 192.636 7.36174 192.636 8.16193C192.636 8.7017 192.548 9.18466 192.373 9.6108C192.203 10.0369 191.959 10.4157 191.642 10.7472C191.324 11.0786 190.948 11.3745 190.512 11.6349C190.129 11.8717 189.814 12.1179 189.568 12.3736C189.326 12.6293 189.146 12.9299 189.028 13.2756C188.914 13.6165 188.855 14.0379 188.85 14.5398V14.7244H186.485ZM187.721 19.1562C187.295 19.1562 186.928 19.0047 186.62 18.7017C186.313 18.3987 186.159 18.0294 186.159 17.5938C186.159 17.1676 186.313 16.803 186.62 16.5C186.928 16.197 187.295 16.0455 187.721 16.0455C188.143 16.0455 188.507 16.197 188.815 16.5C189.127 16.803 189.284 17.1676 189.284 17.5938C189.284 17.8826 189.21 18.1454 189.064 18.3821C188.922 18.6188 188.732 18.8082 188.495 18.9503C188.263 19.0876 188.005 19.1562 187.721 19.1562Z" fill="white"/>
</svg>
