<svg width="199" height="176" viewBox="0 0 199 176" fill="none" xmlns="http://www.w3.org/2000/svg">
<path d="M2.61938 39.1517V18.7881H10.4148C11.8864 18.7881 13.1094 19.0201 14.0839 19.4841C15.0649 19.9415 15.7974 20.5679 16.2813 21.3634C16.7718 22.1588 17.0171 23.0604 17.0171 24.0679C17.0171 24.8965 16.858 25.6058 16.5398 26.1958C16.2217 26.7791 15.7941 27.2531 15.2572 27.6176C14.7202 27.9822 14.1203 28.2441 13.4574 28.4032V28.602C14.18 28.6418 14.8727 28.8639 15.5356 29.2682C16.2051 29.6659 16.752 30.2294 17.1762 30.9586C17.6004 31.6877 17.8126 32.5693 17.8126 33.6034C17.8126 34.6574 17.5574 35.6053 17.0469 36.4472C16.5365 37.2824 15.7676 37.942 14.7401 38.4259C13.7127 38.9098 12.42 39.1517 10.8623 39.1517H2.61938ZM6.3083 36.0693H10.2756C11.6146 36.0693 12.5791 35.8141 13.1691 35.3037C13.7657 34.7867 14.064 34.1238 14.064 33.3151C14.064 32.7119 13.9148 32.1683 13.6165 31.6844C13.3182 31.1939 12.894 30.8094 12.3438 30.531C11.7936 30.246 11.1374 30.1034 10.3751 30.1034H6.3083V36.0693ZM6.3083 27.4486H9.95745C10.5938 27.4486 11.1672 27.3326 11.6776 27.1006C12.188 26.862 12.5891 26.5272 12.8807 26.0963C13.179 25.6588 13.3282 25.1418 13.3282 24.5452C13.3282 23.7564 13.0498 23.1068 12.493 22.5963C11.9428 22.0859 11.1241 21.8307 10.037 21.8307H6.3083V27.4486ZM27.624 39.45C26.0927 39.45 24.7703 39.1318 23.6567 38.4955C22.5497 37.8525 21.6979 36.9443 21.1013 35.7711C20.5047 34.5911 20.2064 33.2024 20.2064 31.6049C20.2064 30.0338 20.5047 28.655 21.1013 27.4685C21.7045 26.2753 22.5463 25.3473 23.6268 24.6844C24.7073 24.0149 25.9767 23.6801 27.4351 23.6801C28.3764 23.6801 29.2646 23.8326 30.0998 24.1375C30.9417 24.4358 31.6841 24.8998 32.3271 25.5296C32.9767 26.1593 33.4872 26.9614 33.8584 27.9358C34.2296 28.9036 34.4152 30.057 34.4152 31.3961V32.4997H21.8967V30.0736H30.9649C30.9583 29.3842 30.8091 28.7711 30.5175 28.2341C30.2258 27.6906 29.8181 27.263 29.2944 26.9514C28.7774 26.6399 28.1742 26.4841 27.4848 26.4841C26.749 26.4841 26.1027 26.6631 25.5459 27.0211C24.9891 27.3724 24.5549 27.8364 24.2433 28.4131C23.9384 28.9832 23.7826 29.6096 23.776 30.2924V32.4103C23.776 33.2985 23.9384 34.0608 24.2632 34.6972C24.588 35.3269 25.0421 35.8108 25.6254 36.1489C26.2087 36.4803 26.8915 36.6461 27.6737 36.6461C28.1974 36.6461 28.6713 36.5731 29.0956 36.4273C29.5198 36.2748 29.8877 36.0528 30.1993 35.7611C30.5108 35.4694 30.7462 35.1082 30.9052 34.6773L34.266 35.0551C34.0539 35.9434 33.6496 36.719 33.053 37.3818C32.463 38.0381 31.7073 38.5485 30.7859 38.9131C29.8645 39.2711 28.8105 39.45 27.624 39.45ZM41.8552 39.46C40.8874 39.46 40.0157 39.2876 39.2401 38.9429C38.4712 38.5916 37.8613 38.0746 37.4106 37.3918C36.9664 36.709 36.7444 35.8672 36.7444 34.8662C36.7444 34.0045 36.9035 33.2919 37.2217 32.7284C37.5398 32.165 37.974 31.7142 38.5242 31.3762C39.0744 31.0381 39.6942 30.7829 40.3836 30.6105C41.0796 30.4316 41.7988 30.3023 42.5413 30.2228C43.4361 30.13 44.162 30.0471 44.7188 29.9742C45.2756 29.8946 45.68 29.7753 45.9319 29.6162C46.1904 29.4505 46.3197 29.1953 46.3197 28.8506V28.7909C46.3197 28.0419 46.0976 27.4619 45.6535 27.0509C45.2093 26.6399 44.5697 26.4344 43.7344 26.4344C42.8528 26.4344 42.1535 26.6266 41.6364 27.0111C41.126 27.3956 40.7813 27.8496 40.6023 28.3733L37.2415 27.8961C37.5067 26.968 37.9442 26.1925 38.554 25.5693C39.1639 24.9396 39.9096 24.469 40.7913 24.1574C41.6729 23.8392 42.6473 23.6801 43.7145 23.6801C44.4503 23.6801 45.1828 23.7663 45.912 23.9387C46.6412 24.111 47.3074 24.3961 47.9106 24.7938C48.5138 25.1849 48.9977 25.7185 49.3623 26.3946C49.7335 27.0708 49.9191 27.9159 49.9191 28.9301V39.1517H46.4589V37.0537H46.3395C46.1208 37.478 45.8126 37.8757 45.4148 38.2469C45.0237 38.6115 44.5299 38.9065 43.9333 39.1318C43.3433 39.3506 42.6506 39.46 41.8552 39.46ZM42.7898 36.8151C43.5124 36.8151 44.1388 36.6726 44.6691 36.3875C45.1994 36.0959 45.6071 35.7114 45.8921 35.2341C46.1838 34.7568 46.3296 34.2365 46.3296 33.673V31.8733C46.2169 31.9661 46.0247 32.0523 45.7529 32.1318C45.4877 32.2114 45.1895 32.281 44.858 32.3407C44.5266 32.4003 44.1984 32.4533 43.8736 32.4997C43.5488 32.5461 43.2671 32.5859 43.0285 32.6191C42.4915 32.692 42.0109 32.8113 41.5867 32.977C41.1625 33.1427 40.8277 33.3747 40.5824 33.673C40.3372 33.9647 40.2145 34.3425 40.2145 34.8066C40.2145 35.4694 40.4565 35.9699 40.9404 36.308C41.4243 36.6461 42.0408 36.8151 42.7898 36.8151ZM60.2003 39.45C58.6757 39.45 57.3665 39.1153 56.2728 38.4458C55.1857 37.7763 54.3471 36.8515 53.7572 35.6716C53.1738 34.4851 52.8822 33.1195 52.8822 31.575C52.8822 30.0239 53.1805 28.655 53.777 27.4685C54.3736 26.2753 55.2155 25.3473 56.3026 24.6844C57.3964 24.0149 58.689 23.6801 60.1805 23.6801C61.42 23.6801 62.5171 23.9088 63.4717 24.3662C64.4328 24.817 65.1985 25.4567 65.7685 26.2853C66.3386 27.1072 66.6634 28.0684 66.743 29.1688H63.3026C63.1634 28.433 62.832 27.8198 62.3083 27.3293C61.7913 26.8321 61.0985 26.5836 60.2302 26.5836C59.4944 26.5836 58.8481 26.7824 58.2913 27.1801C57.7344 27.5712 57.3002 28.1347 56.9887 28.8705C56.6838 29.6063 56.5313 30.4879 56.5313 31.5154C56.5313 32.5561 56.6838 33.451 56.9887 34.2C57.2936 34.9425 57.7212 35.5158 58.2714 35.9202C58.8282 36.3179 59.4811 36.5168 60.2302 36.5168C60.7605 36.5168 61.2344 36.4174 61.652 36.2185C62.0763 36.013 62.4309 35.718 62.716 35.3336C63.001 34.9491 63.1966 34.4818 63.3026 33.9316H66.743C66.6568 35.0121 66.3386 35.9699 65.7884 36.8051C65.2382 37.6337 64.4892 38.2834 63.5413 38.754C62.5933 39.218 61.4797 39.45 60.2003 39.45ZM73.298 30.2029V39.1517H69.6986V18.7881H73.2185V26.4742H73.3974C73.7554 25.6124 74.3089 24.933 75.0579 24.4358C75.8136 23.932 76.7748 23.6801 77.9415 23.6801C79.0021 23.6801 79.9268 23.9022 80.7156 24.3463C81.5044 24.7905 82.1143 25.4401 82.5452 26.2952C82.9827 27.1503 83.2014 28.1943 83.2014 29.4273V39.1517H79.602V29.9841C79.602 28.9567 79.3368 28.1579 78.8065 27.5878C78.2828 27.0111 77.5471 26.7228 76.5991 26.7228C75.9628 26.7228 75.3927 26.862 74.8889 27.1404C74.3918 27.4121 74.0007 27.8066 73.7156 28.3236C73.4372 28.8407 73.298 29.4671 73.298 30.2029ZM93.6318 39.45C92.1006 39.45 90.7781 39.1318 89.6645 38.4955C88.5575 37.8525 87.7057 36.9443 87.1091 35.7711C86.5125 34.5911 86.2142 33.2024 86.2142 31.6049C86.2142 30.0338 86.5125 28.655 87.1091 27.4685C87.7123 26.2753 88.5542 25.3473 89.6346 24.6844C90.7151 24.0149 91.9846 23.6801 93.4429 23.6801C94.3842 23.6801 95.2724 23.8326 96.1077 24.1375C96.9495 24.4358 97.6919 24.8998 98.3349 25.5296C98.9846 26.1593 99.495 26.9614 99.8662 27.9358C100.237 28.9036 100.423 30.057 100.423 31.3961V32.4997H87.9045V30.0736H96.9727C96.9661 29.3842 96.8169 28.7711 96.5253 28.2341C96.2336 27.6906 95.8259 27.263 95.3023 26.9514C94.7852 26.6399 94.182 26.4841 93.4926 26.4841C92.7568 26.4841 92.1105 26.6631 91.5537 27.0211C90.9969 27.3724 90.5627 27.8364 90.2511 28.4131C89.9462 28.9832 89.7904 29.6096 89.7838 30.2924V32.4103C89.7838 33.2985 89.9462 34.0608 90.271 34.6972C90.5958 35.3269 91.0499 35.8108 91.6332 36.1489C92.2166 36.4803 92.8993 36.6461 93.6815 36.6461C94.2052 36.6461 94.6792 36.5731 95.1034 36.4273C95.5276 36.2748 95.8955 36.0528 96.2071 35.7611C96.5186 35.4694 96.754 35.1082 96.9131 34.6773L100.274 35.0551C100.062 35.9434 99.6574 36.719 99.0608 37.3818C98.4708 38.0381 97.7151 38.5485 96.7937 38.9131C95.8723 39.2711 94.8184 39.45 93.6318 39.45ZM115.539 27.9159L112.258 28.2739C112.165 27.9425 112.003 27.6309 111.771 27.3392C111.545 27.0476 111.24 26.8122 110.856 26.6333C110.471 26.4543 110.001 26.3648 109.444 26.3648C108.695 26.3648 108.065 26.5272 107.555 26.852C107.051 27.1768 106.802 27.5978 106.809 28.1148C106.802 28.5589 106.965 28.9202 107.296 29.1986C107.634 29.477 108.191 29.7057 108.967 29.8847L111.572 30.4415C113.017 30.7531 114.091 31.2469 114.793 31.923C115.503 32.5992 115.861 33.4841 115.867 34.5779C115.861 35.539 115.579 36.3875 115.022 37.1233C114.472 37.8525 113.706 38.4226 112.725 38.8336C111.744 39.2445 110.617 39.45 109.345 39.45C107.475 39.45 105.97 39.0589 104.83 38.2767C103.69 37.4879 103.011 36.3908 102.792 34.9855L106.302 34.6475C106.461 35.3369 106.799 35.8572 107.316 36.2086C107.833 36.5599 108.506 36.7355 109.335 36.7355C110.19 36.7355 110.876 36.5599 111.393 36.2086C111.916 35.8572 112.178 35.423 112.178 34.906C112.178 34.4685 112.009 34.1072 111.671 33.8222C111.34 33.5371 110.823 33.3184 110.12 33.1659L107.515 32.6191C106.05 32.3141 104.966 31.8004 104.264 31.0779C103.561 30.3487 103.213 29.4273 103.22 28.3137C103.213 27.3724 103.468 26.557 103.985 25.8676C104.509 25.1716 105.235 24.6347 106.163 24.2568C107.097 23.8724 108.175 23.6801 109.394 23.6801C111.184 23.6801 112.593 24.0613 113.62 24.8236C114.654 25.5859 115.294 26.6167 115.539 27.9159ZM125.94 39.1517V18.7881H133.576C135.14 18.7881 136.453 19.0798 137.514 19.6631C138.581 20.2464 139.386 21.0485 139.93 22.0693C140.48 23.0836 140.755 24.237 140.755 25.5296C140.755 26.8354 140.48 27.9955 139.93 29.0097C139.38 30.0239 138.568 30.8227 137.494 31.406C136.42 31.9827 135.097 32.2711 133.526 32.2711H128.465V29.2384H133.029C133.944 29.2384 134.693 29.0793 135.276 28.7611C135.86 28.4429 136.291 28.0054 136.569 27.4486C136.854 26.8918 136.997 26.2521 136.997 25.5296C136.997 24.807 136.854 24.1707 136.569 23.6205C136.291 23.0703 135.856 22.6427 135.266 22.3378C134.683 22.0263 133.931 21.8705 133.009 21.8705H129.629V39.1517H125.94ZM143.959 39.1517V18.7881H151.596C153.16 18.7881 154.472 19.0599 155.533 19.6034C156.6 20.147 157.406 20.9093 157.949 21.8904C158.499 22.8648 158.775 24.0016 158.775 25.3009C158.775 26.6068 158.496 27.7403 157.939 28.7014C157.389 29.656 156.577 30.3951 155.503 30.9188C154.429 31.4358 153.11 31.6943 151.546 31.6943H146.107V28.6318H151.049C151.963 28.6318 152.713 28.5059 153.296 28.254C153.879 27.9955 154.31 27.621 154.588 27.1304C154.874 26.6333 155.016 26.0234 155.016 25.3009C155.016 24.5783 154.874 23.9619 154.588 23.4514C154.303 22.9344 153.869 22.5433 153.286 22.2782C152.703 22.0064 151.95 21.8705 151.029 21.8705H147.648V39.1517H143.959ZM154.479 29.9245L159.52 39.1517H155.404L150.452 29.9245H154.479ZM180.366 28.9699C180.366 31.164 179.955 33.0433 179.133 34.6077C178.318 36.1655 177.204 37.3586 175.792 38.1872C174.387 39.0158 172.793 39.4301 171.01 39.4301C169.227 39.4301 167.629 39.0158 166.217 38.1872C164.812 37.352 163.698 36.1555 162.876 34.5978C162.061 33.0334 161.653 31.1574 161.653 28.9699C161.653 26.7758 162.061 24.8998 162.876 23.3421C163.698 21.7777 164.812 20.5812 166.217 19.7526C167.629 18.924 169.227 18.5097 171.01 18.5097C172.793 18.5097 174.387 18.924 175.792 19.7526C177.204 20.5812 178.318 21.7777 179.133 23.3421C179.955 24.8998 180.366 26.7758 180.366 28.9699ZM176.657 28.9699C176.657 27.4254 176.415 26.1229 175.932 25.0622C175.454 23.995 174.791 23.1896 173.943 22.6461C173.094 22.0959 172.117 21.8208 171.01 21.8208C169.903 21.8208 168.925 22.0959 168.076 22.6461C167.228 23.1896 166.562 23.995 166.078 25.0622C165.601 26.1229 165.362 27.4254 165.362 28.9699C165.362 30.5144 165.601 31.8203 166.078 32.8875C166.562 33.9481 167.228 34.7535 168.076 35.3037C168.925 35.8473 169.903 36.1191 171.01 36.1191C172.117 36.1191 173.094 35.8473 173.943 35.3037C174.791 34.7535 175.454 33.9481 175.932 32.8875C176.415 31.8203 176.657 30.5144 176.657 28.9699ZM4.83086 52.0117H6.87086V55.1317C6.87086 59.3317 5.69086 63.4117 2.71086 65.2117L1.07086 63.2517C3.83086 61.5917 4.83086 58.2717 4.83086 55.1317V52.0117ZM5.35086 52.0117H7.41086V54.9317C7.41086 58.1317 8.25086 61.1517 10.8309 62.5717L9.29086 64.6717C6.29086 62.9917 5.35086 59.1717 5.35086 54.9317V52.0117ZM14.7909 50.4117H17.3309V68.9317H14.7909V50.4117ZM12.5709 57.6117H15.6309V59.7517H12.5709V57.6117ZM10.7909 50.6917H13.2909V68.0917H10.7909V50.6917ZM19.8293 64.7317H36.5893V66.8917H19.8293V64.7317ZM26.8493 61.2317H29.5093V65.6117H26.8493V61.2317ZM21.7093 51.6117H34.7093V57.7717H24.3893V60.8917H21.7493V55.6917H32.0693V53.7117H21.7093V51.6117ZM21.7493 59.8317H35.1293V61.9717H21.7493V59.8317ZM38.2077 59.4117H54.9877V61.5117H38.2077V59.4117ZM45.3877 60.7917H48.0877V64.6917H45.3877V60.7917ZM40.1677 66.4717H53.1477V68.6117H40.1677V66.4717ZM40.1677 63.0717H42.8477V67.0117H40.1677V63.0717ZM46.5877 50.7517C50.5677 50.7517 53.2477 52.2517 53.2477 54.5917C53.2477 56.9517 50.5677 58.4317 46.5877 58.4317C42.5877 58.4317 39.9277 56.9517 39.9277 54.5917C39.9277 52.2517 42.5877 50.7517 46.5877 50.7517ZM46.5877 52.8517C44.2477 52.8517 42.7877 53.4517 42.7877 54.5917C42.7877 55.7317 44.2477 56.3117 46.5877 56.3117C48.9277 56.3117 50.3877 55.7317 50.3877 54.5917C50.3877 53.4517 48.9277 52.8517 46.5877 52.8517ZM70.4871 53.3317H74.8271V55.4517H70.4871V53.3317ZM70.3471 57.1717H74.6871V59.2917H70.3471V57.1717ZM74.4071 50.4117H77.0671V61.0717H74.4071V50.4117ZM68.3671 51.6717H71.2071C71.2071 56.7117 68.3671 59.9517 62.7471 61.4917L61.7071 59.3917C66.4071 58.1717 68.3671 55.8517 68.3671 52.9517V51.6717ZM62.7271 51.6717H70.2271V53.7917H62.7271V51.6717ZM70.9271 61.3117C74.6871 61.3117 77.1871 62.7517 77.1871 65.0717C77.1871 67.3917 74.6871 68.8517 70.9271 68.8517C67.1671 68.8517 64.6671 67.3917 64.6671 65.0717C64.6671 62.7517 67.1671 61.3117 70.9271 61.3117ZM70.9271 63.3517C68.6671 63.3517 67.3071 63.9317 67.3071 65.0717C67.3071 66.2117 68.6671 66.7717 70.9271 66.7717C73.2071 66.7717 74.5671 66.2117 74.5671 65.0717C74.5671 63.9317 73.2071 63.3517 70.9271 63.3517ZM92.8055 50.4117H95.4655V61.5917H92.8055V50.4117ZM90.4855 55.8317H93.8855V57.9917H90.4855V55.8317ZM83.1255 62.3717H95.4655V68.7317H83.1255V62.3717ZM92.8655 64.4717H85.7455V66.6317H92.8655V64.4717ZM80.0255 52.0117H90.8455V54.1117H80.0255V52.0117ZM85.4455 54.7117C88.0255 54.7117 89.8655 56.0917 89.8655 58.0517C89.8655 60.0317 88.0255 61.3717 85.4455 61.3717C82.8655 61.3717 81.0055 60.0317 81.0055 58.0517C81.0055 56.0917 82.8655 54.7117 85.4455 54.7117ZM85.4455 56.6917C84.3055 56.6917 83.5455 57.1517 83.5455 58.0517C83.5455 58.9517 84.3055 59.4317 85.4455 59.4317C86.5655 59.4317 87.3255 58.9517 87.3255 58.0517C87.3255 57.1517 86.5655 56.6917 85.4455 56.6917ZM84.1055 50.2517H86.7655V53.5117H84.1055V50.2517ZM111.064 50.3917H113.744V68.9717H111.064V50.3917ZM103.764 51.6917C106.564 51.6917 108.624 54.2517 108.624 58.2917C108.624 62.3717 106.564 64.9317 103.764 64.9317C100.964 64.9317 98.904 62.3717 98.904 58.2917C98.904 54.2517 100.964 51.6917 103.764 51.6917ZM103.764 54.1117C102.384 54.1117 101.444 55.5717 101.444 58.2917C101.444 61.0517 102.384 62.5317 103.764 62.5317C105.144 62.5317 106.064 61.0517 106.064 58.2917C106.064 55.5717 105.144 54.1117 103.764 54.1117ZM122.983 57.9117H132.663V60.0317H122.983V57.9117ZM126.463 59.6317H129.143V63.5317H126.463V59.6317ZM122.983 52.0517H132.543V54.1517H125.643V58.5717H122.983V52.0517ZM134.523 50.3917H137.183V68.9717H134.523V50.3917ZM122.123 65.3117L121.803 63.1717C125.343 63.1717 129.703 63.1517 133.503 62.7317L133.703 64.6717C129.703 65.2917 125.563 65.3317 122.123 65.3117ZM151.962 50.3917H154.642V68.9717H151.962V50.3917ZM154.042 57.2517H157.322V59.4317H154.042V57.2517ZM140.842 62.3117H142.402C145.522 62.3117 147.982 62.2117 150.702 61.7317L150.962 63.9317C148.162 64.4317 145.622 64.5117 142.402 64.5117H140.842V62.3117ZM140.842 52.1117H149.482V54.2517H143.482V63.3717H140.842V52.1117ZM160.625 67.308C160.194 67.308 159.825 67.1565 159.517 66.8534C159.209 66.5504 159.058 66.1811 159.063 65.7455C159.058 65.3193 159.209 64.9548 159.517 64.6517C159.825 64.3487 160.194 64.1972 160.625 64.1972C161.042 64.1972 161.404 64.3487 161.712 64.6517C162.024 64.9548 162.183 65.3193 162.188 65.7455C162.183 66.0343 162.107 66.2971 161.96 66.5338C161.818 66.7706 161.629 66.96 161.392 67.102C161.16 67.2393 160.904 67.308 160.625 67.308ZM1.02086 81.8917H9.40086V82.9717H1.02086V81.8917ZM4.53086 79.8417H5.86086V82.1417H4.53086V79.8417ZM1.89086 75.4617H8.48086V80.0117H1.89086V75.4617ZM7.18086 76.5217H3.20086V78.9617H7.18086V76.5217ZM13.1901 75.3917C14.6501 75.3917 15.7401 76.3417 15.7401 77.6717C15.7401 79.0117 14.6501 79.9617 13.1901 79.9617C11.7401 79.9617 10.6301 79.0117 10.6301 77.6717C10.6301 76.3417 11.7401 75.3917 13.1901 75.3917ZM13.1901 76.5317C12.4801 76.5317 11.9401 76.9517 11.9401 77.6717C11.9401 78.4017 12.4801 78.8217 13.1901 78.8217C13.9001 78.8217 14.4401 78.4017 14.4401 77.6717C14.4401 76.9517 13.9001 76.5317 13.1901 76.5317ZM16.6101 74.7717H17.9401V84.0617H16.6101V74.7717ZM10.4101 82.1817L10.2501 81.1117C11.8801 81.1117 14.1501 81.0917 16.1001 80.8017L16.2001 81.7617C14.1901 82.1617 12.0101 82.1817 10.4101 82.1817ZM19.3993 76.1717H23.8293V77.2317H19.3993V76.1717ZM21.6293 77.6417C22.8093 77.6417 23.6593 78.5517 23.6593 79.8517C23.6593 81.1417 22.8093 82.0517 21.6293 82.0517C20.4593 82.0517 19.5993 81.1417 19.5993 79.8517C19.5993 78.5517 20.4593 77.6417 21.6293 77.6417ZM21.6293 78.7517C21.1293 78.7517 20.7793 79.1517 20.7793 79.8517C20.7793 80.5517 21.1293 80.9417 21.6293 80.9417C22.1293 80.9417 22.4893 80.5517 22.4893 79.8517C22.4893 79.1517 22.1293 78.7517 21.6293 78.7517ZM26.0993 74.7817H27.3693V84.0417H26.0993V74.7817ZM24.9893 78.5417H26.5193V79.6117H24.9893V78.5417ZM24.1593 74.9517H25.3993V83.6517H24.1593V74.9517ZM20.9793 75.0317H22.2893V76.8417H20.9793V75.0317ZM32.1885 75.3317H33.5685C33.5685 77.9117 32.3685 79.6017 29.2585 80.4917L28.7585 79.4417C31.3785 78.7317 32.1885 77.5017 32.1885 75.9117V75.3317ZM29.2285 75.3317H32.9685V76.3817H29.2285V75.3317ZM32.2485 77.0617V77.9717L28.9485 78.2117L28.7585 77.1817L32.2485 77.0617ZM34.9685 74.7917H36.3085V80.2417H34.9685V74.7917ZM33.1785 80.3917C35.1185 80.3917 36.3485 81.0717 36.3485 82.2217C36.3485 83.3717 35.1185 84.0417 33.1785 84.0417C31.2285 84.0417 30.0085 83.3717 30.0085 82.2217C30.0085 81.0717 31.2285 80.3917 33.1785 80.3917ZM33.1785 81.4317C31.9685 81.4317 31.3385 81.6817 31.3385 82.2217C31.3385 82.7517 31.9685 83.0217 33.1785 83.0217C34.3785 83.0217 35.0185 82.7517 35.0185 82.2217C35.0185 81.6817 34.3785 81.4317 33.1785 81.4317ZM39.5775 82.1574L39.5313 82.548C39.4982 82.8463 39.439 83.1494 39.3538 83.4571C39.2709 83.7673 39.1833 84.0525 39.091 84.313C38.9986 84.5734 38.9241 84.7782 38.8672 84.9273H38.0008C38.0339 84.7829 38.0789 84.5864 38.1357 84.3378C38.1949 84.0892 38.2517 83.8099 38.3062 83.4997C38.3606 83.1896 38.3973 82.8747 38.4163 82.5551L38.4411 82.1574H39.5775ZM47.8028 77.5817H49.5928V78.6517H47.8028V77.5817ZM46.4928 75.4817H47.8628C47.8628 78.0917 46.7728 79.8317 43.6628 80.8417L43.1428 79.8017C45.7628 78.9817 46.4928 77.7217 46.4928 76.0217V75.4817ZM43.6328 75.4817H47.3528V76.5417H43.6328V75.4817ZM46.6528 77.2817V78.1917L43.3528 78.4417L43.1628 77.4017L46.6528 77.2817ZM49.4328 74.7817H50.7628V81.6217H49.4328V74.7817ZM44.7128 82.8217H51.0128V83.8817H44.7128V82.8217ZM44.7128 80.9617H46.0428V83.5117H44.7128V80.9617ZM56.942 76.1317H59.222V77.1917H56.942V76.1317ZM58.632 74.7817H59.962V79.4817H58.632V74.7817ZM53.842 79.8717H59.962V82.3617H55.172V83.5217H53.862V81.4017H58.642V80.8917H53.842V79.8717ZM53.862 82.9117H60.222V83.9417H53.862V82.9117ZM54.332 75.0817H55.412V75.7417C55.412 77.4917 54.592 79.0017 52.822 79.5617L52.142 78.5117C53.682 78.0517 54.332 76.9217 54.332 75.7417V75.0817ZM54.592 75.0817H55.672V75.7417C55.672 76.8417 56.292 77.9117 57.752 78.3517L57.072 79.3817C55.382 78.8317 54.592 77.4017 54.592 75.7417V75.0817ZM61.9212 78.9317H62.7112C64.6212 78.9317 65.7312 78.9117 67.0012 78.7117L67.1312 79.7417C65.8312 79.9617 64.6612 79.9817 62.7112 79.9817H61.9212V78.9317ZM61.9212 75.4217H66.3712V76.4717H63.2412V79.3617H61.9212V75.4217ZM62.8312 77.1817H66.1012V78.2017H62.8312V77.1817ZM67.7712 74.7917H69.1112V80.3817H67.7712V74.7917ZM65.9812 80.5217C67.9312 80.5217 69.1512 81.1717 69.1512 82.2817C69.1512 83.4017 67.9312 84.0417 65.9812 84.0417C64.0212 84.0417 62.8112 83.4017 62.8112 82.2817C62.8112 81.1717 64.0212 80.5217 65.9812 80.5217ZM65.9812 81.5417C64.7712 81.5417 64.1412 81.7817 64.1412 82.2817C64.1412 82.7917 64.7712 83.0317 65.9812 83.0317C67.1812 83.0317 67.8212 82.7917 67.8212 82.2817C67.8212 81.7817 67.1812 81.5417 65.9812 81.5417ZM71.0005 75.7017H74.9905V76.7517H71.0005V75.7017ZM72.1905 78.3517H73.5005V81.4917H72.1905V78.3517ZM74.4605 75.7017H75.7705V76.4517C75.7705 77.3517 75.7705 78.4717 75.5205 80.0117L74.2205 79.8917C74.4605 78.4117 74.4605 77.3417 74.4605 76.4517V75.7017ZM76.5605 74.7817H77.8905V84.0417H76.5605V74.7817ZM77.5005 78.5017H79.1305V79.6017H77.5005V78.5017ZM70.6505 82.1717L70.5305 81.1017C72.1605 81.1017 74.3205 81.0717 76.1405 80.8417L76.2105 81.8117C74.3405 82.1317 72.2605 82.1717 70.6505 82.1717ZM83.1102 75.5617H88.9702V76.6317H83.1102V75.5617ZM82.3002 81.8517H90.6702V82.9317H82.3002V81.8517ZM84.0502 78.9317H85.3702V82.1917H84.0502V78.9317ZM88.5802 75.5617H89.9202V76.4717C89.9202 77.5917 89.9202 78.8717 89.5902 80.7517L88.2702 80.6217C88.5802 78.8617 88.5802 77.5617 88.5802 76.4717V75.5617ZM86.3402 78.9317H87.6502V82.1917H86.3402V78.9317ZM93.4594 79.6217H94.7894V81.4417H93.4594V79.6217ZM96.5494 79.6117H97.8694V81.4317H96.5494V79.6117ZM91.4894 79.1017H99.8594V80.1517H91.4894V79.1017ZM92.4194 81.0017H98.8494V84.0417H97.5194V82.0417H92.4194V81.0017ZM95.6794 74.9617C97.7094 74.9617 99.0294 75.6617 99.0294 76.7817C99.0294 77.9117 97.7094 78.6117 95.6794 78.6117C93.6394 78.6117 92.3294 77.9117 92.3294 76.7817C92.3294 75.6617 93.6394 74.9617 95.6794 74.9617ZM95.6794 75.9917C94.4094 75.9917 93.6994 76.2517 93.6994 76.7817C93.6994 77.3217 94.4094 77.5817 95.6794 77.5817C96.9394 77.5817 97.6594 77.3217 97.6594 76.7817C97.6594 76.2517 96.9394 75.9917 95.6794 75.9917ZM102.458 82.1574L102.412 82.548C102.379 82.8463 102.32 83.1494 102.235 83.4571C102.152 83.7673 102.064 84.0525 101.972 84.313C101.879 84.5734 101.805 84.7782 101.748 84.9273H100.882C100.915 84.7829 100.96 84.5864 101.017 84.3378C101.076 84.0892 101.133 83.8099 101.187 83.4997C101.241 83.1896 101.278 82.8747 101.297 82.5551L101.322 82.1574H102.458ZM106.754 75.6317H112.624V76.6817H106.754V75.6317ZM105.904 81.7517H114.274V82.8317H105.904V81.7517ZM111.924 75.6317H113.244V76.7317C113.244 78.0317 113.244 79.2917 112.914 81.1917L111.584 81.0817C111.924 79.3017 111.924 77.9817 111.924 76.7317V75.6317ZM121.473 74.7717H122.803V84.0617H121.473V74.7717ZM115.593 80.8217H116.413C118.053 80.8217 119.363 80.7617 120.833 80.5117L120.963 81.5817C119.463 81.8517 118.103 81.9017 116.413 81.9017H115.593V80.8217ZM115.583 75.5617H119.953V79.1417H116.943V81.2217H115.593V78.0917H118.593V76.6217H115.583V75.5617ZM125.152 75.5617H131.022V76.6317H125.152V75.5617ZM124.302 81.8517H132.672V82.9317H124.302V81.8517ZM127.262 78.6717H128.592V82.3817H127.262V78.6717ZM130.542 75.5617H131.872V76.4517C131.872 77.6117 131.872 78.9117 131.502 80.8917L130.172 80.7417C130.542 78.9017 130.542 77.5617 130.542 76.4517V75.5617ZM136.382 75.4517H140.342V76.5217H136.382V75.4517ZM137.522 77.6117H138.842V79.9317H137.522V77.6117ZM139.822 75.4517H141.132V76.0317C141.132 76.6817 141.132 77.6017 140.912 78.7517L139.622 78.6117C139.822 77.4717 139.822 76.6717 139.822 76.0317V75.4517ZM142.032 74.7817H143.372V81.7117H142.032V74.7817ZM142.842 77.6017H144.472V78.6917H142.842V77.6017ZM137.192 82.8217H143.662V83.8817H137.192V82.8217ZM137.192 81.0917H138.522V83.1517H137.192V81.0917ZM135.962 80.4717L135.842 79.4217C137.442 79.4217 139.672 79.3917 141.532 79.1317L141.612 80.0717C139.702 80.4317 137.552 80.4717 135.962 80.4717ZM151.551 74.7717H152.881V84.0617H151.551V74.7717ZM145.671 80.8217H146.491C148.131 80.8217 149.441 80.7617 150.911 80.5117L151.041 81.5817C149.541 81.8517 148.181 81.9017 146.491 81.9017H145.671V80.8217ZM145.661 75.5617H150.031V79.1417H147.021V81.2217H145.671V78.0917H148.671V76.6217H145.661V75.5617ZM154.37 78.9317H162.76V79.9017H154.37V78.9317ZM155.31 80.3617H161.76V82.5617H156.65V83.3517H155.33V81.7217H160.45V81.2617H155.31V80.3617ZM155.33 83.0717H162.02V83.9717H155.33V83.0717ZM155.4 74.9417H161.74V77.1217H156.73V77.8817H155.41V76.2917H160.43V75.8317H155.4V74.9417ZM155.41 77.6017H161.91V78.5017H155.41V77.6017ZM172.01 74.7917H173.34V81.7117H172.01V74.7917ZM172.96 77.6117H174.57V78.7017H172.96V77.6117ZM166.05 75.7517H171.5V76.7917H166.05V75.7517ZM168.78 77.1217C170.11 77.1217 171.05 77.8517 171.05 78.9117C171.05 79.9717 170.11 80.6917 168.78 80.6917C167.44 80.6917 166.5 79.9717 166.5 78.9117C166.5 77.8517 167.44 77.1217 168.78 77.1217ZM168.78 78.1317C168.19 78.1317 167.78 78.4117 167.78 78.9117C167.78 79.4117 168.19 79.6817 168.78 79.6817C169.37 79.6817 169.78 79.4117 169.78 78.9117C169.78 78.4117 169.37 78.1317 168.78 78.1317ZM168.11 74.7717H169.44V76.2617H168.11V74.7717ZM167.37 82.8217H173.67V83.8817H167.37V82.8217ZM167.37 81.1917H168.7V83.2817H167.37V81.1917ZM179.629 77.2417H182.009V78.3017H179.629V77.2417ZM181.669 74.7917H182.999V81.6217H181.669V74.7917ZM176.869 82.8217H183.199V83.8817H176.869V82.8217ZM176.869 80.9517H178.209V83.4317H176.869V80.9517ZM175.639 75.3917H176.959V76.8017H178.719V75.3917H180.019V80.1717H175.639V75.3917ZM176.959 77.8117V79.1217H178.719V77.8117H176.959ZM188.148 78.1917H189.668V79.2617H188.148V78.1917ZM191.138 74.7817H192.408V84.0417H191.138V74.7817ZM189.248 74.9217H190.498V83.6217H189.248V74.9217ZM186.528 75.4317C187.758 75.4317 188.548 76.7017 188.548 78.7917C188.548 80.8917 187.758 82.1617 186.528 82.1617C185.308 82.1617 184.528 80.8917 184.528 78.7917C184.528 76.7017 185.308 75.4317 186.528 75.4317ZM186.528 76.6817C186.028 76.6817 185.738 77.3817 185.738 78.7917C185.738 80.2117 186.028 80.9017 186.528 80.9017C187.048 80.9017 187.338 80.2117 187.338 78.7917C187.338 77.3817 187.048 76.6817 186.528 76.6817ZM8.11263 97.8165C7.82617 97.8165 7.56457 97.7467 7.32783 97.607C7.09109 97.4649 6.90169 97.2755 6.75965 97.0388C6.61997 96.8021 6.55013 96.5405 6.55013 96.254C6.55013 95.9652 6.61997 95.7036 6.75965 95.4692C6.90169 95.2325 7.09109 95.0443 7.32783 94.9046C7.56457 94.7625 7.82617 94.6915 8.11263 94.6915C8.40146 94.6915 8.66306 94.7625 8.89743 94.9046C9.13417 95.0443 9.32238 95.2325 9.46206 95.4692C9.60411 95.7036 9.67513 95.9652 9.67513 96.254C9.67513 96.5405 9.60411 96.8021 9.46206 97.0388C9.32238 97.2755 9.13417 97.4649 8.89743 97.607C8.66306 97.7467 8.40146 97.8165 8.11263 97.8165ZM20.2806 93.8783C20.2475 93.5682 20.1078 93.3267 19.8616 93.1539C19.6177 92.981 19.3005 92.8946 18.9099 92.8946C18.6352 92.8946 18.3997 92.9361 18.2032 93.0189C18.0067 93.1018 17.8564 93.2142 17.7522 93.3563C17.648 93.4983 17.5948 93.6605 17.5924 93.8428C17.5924 93.9943 17.6267 94.1257 17.6954 94.237C17.7664 94.3482 17.8623 94.4429 17.983 94.5211C18.1038 94.5968 18.2375 94.6607 18.3843 94.7128C18.5311 94.7649 18.679 94.8087 18.8282 94.8442L19.51 95.0147C19.7846 95.0786 20.0486 95.165 20.3019 95.2739C20.5576 95.3828 20.786 95.5201 20.9873 95.6858C21.1909 95.8515 21.3519 96.0516 21.4702 96.286C21.5886 96.5203 21.6478 96.795 21.6478 97.1098C21.6478 97.536 21.5389 97.9112 21.3211 98.2355C21.1033 98.5575 20.7884 98.8096 20.3765 98.9919C19.9669 99.1719 19.4709 99.2618 18.8886 99.2618C18.3227 99.2618 17.8315 99.1742 17.4148 98.999C17.0005 98.8238 16.6762 98.5682 16.4418 98.232C16.2098 97.8958 16.0843 97.4863 16.0654 97.0033H17.3616C17.3805 97.2566 17.4586 97.4673 17.5959 97.6354C17.7333 97.8035 17.912 97.929 18.1322 98.0118C18.3547 98.0947 18.6033 98.1361 18.8779 98.1361C19.1644 98.1361 19.4153 98.0935 19.6307 98.0083C19.8485 97.9207 20.019 97.7999 20.1421 97.6461C20.2652 97.4898 20.3279 97.3075 20.3303 97.0992C20.3279 96.9098 20.2723 96.7535 20.1634 96.6304C20.0545 96.505 19.9018 96.4008 19.7053 96.3179C19.5112 96.2327 19.2839 96.1569 19.0235 96.0907L18.1961 95.8776C17.5971 95.7237 17.1236 95.4905 16.7756 95.178C16.43 94.8631 16.2572 94.4453 16.2572 93.9245C16.2572 93.496 16.3732 93.1207 16.6052 92.7988C16.8395 92.4768 17.158 92.227 17.5604 92.0495C17.9629 91.8695 18.4186 91.7796 18.9276 91.7796C19.4437 91.7796 19.8959 91.8695 20.2842 92.0495C20.6748 92.227 20.9814 92.4744 21.2039 92.7916C21.4264 93.1065 21.5413 93.4687 21.5484 93.8783H20.2806ZM25.1803 99.2583C24.6334 99.2583 24.1611 99.1446 23.7634 98.9174C23.368 98.6877 23.0638 98.3634 22.8507 97.9443C22.6377 97.5229 22.5311 97.027 22.5311 96.4564C22.5311 95.8953 22.6377 95.4029 22.8507 94.9791C23.0662 94.553 23.3668 94.2216 23.7527 93.9848C24.1386 93.7457 24.592 93.6262 25.1128 93.6262C25.449 93.6262 25.7662 93.6806 26.0645 93.7895C26.3652 93.8961 26.6303 94.0618 26.86 94.2867C27.092 94.5116 27.2743 94.798 27.4068 95.1461C27.5394 95.4917 27.6057 95.9036 27.6057 96.3818V96.776H23.1348V95.9095H26.3735C26.3711 95.6633 26.3178 95.4443 26.2137 95.2526C26.1095 95.0585 25.9639 94.9058 25.7769 94.7945C25.5922 94.6832 25.3768 94.6276 25.1306 94.6276C24.8678 94.6276 24.637 94.6915 24.4381 94.8193C24.2392 94.9448 24.0842 95.1105 23.9729 95.3165C23.864 95.5201 23.8084 95.7438 23.806 95.9877V96.7441C23.806 97.0613 23.864 97.3336 23.98 97.5608C24.096 97.7857 24.2582 97.9586 24.4665 98.0793C24.6748 98.1977 24.9187 98.2568 25.198 98.2568C25.3851 98.2568 25.5543 98.2308 25.7058 98.1787C25.8574 98.1243 25.9888 98.045 26.1 97.9408C26.2113 97.8366 26.2953 97.7076 26.3522 97.5537L27.5524 97.6887C27.4767 98.0059 27.3323 98.2829 27.1192 98.5196C26.9085 98.754 26.6386 98.9363 26.3095 99.0665C25.9805 99.1943 25.604 99.2583 25.1803 99.2583ZM31.0725 99.2583C30.528 99.2583 30.0604 99.1387 29.6698 98.8996C29.2815 98.6605 28.9821 98.3302 28.7714 97.9088C28.563 97.4851 28.4589 96.9974 28.4589 96.4458C28.4589 95.8918 28.5654 95.4029 28.7785 94.9791C28.9915 94.553 29.2922 94.2216 29.6805 93.9848C30.0711 93.7457 30.5327 93.6262 31.0654 93.6262C31.5081 93.6262 31.8999 93.7078 32.2408 93.8712C32.5841 94.0322 32.8575 94.2606 33.0611 94.5566C33.2647 94.8501 33.3807 95.1934 33.4092 95.5864H32.1805C32.1307 95.3236 32.0124 95.1046 31.8253 94.9294C31.6407 94.7519 31.3933 94.6631 31.0832 94.6631C30.8204 94.6631 30.5895 94.7341 30.3907 94.8762C30.1918 95.0158 30.0368 95.2171 29.9255 95.4799C29.8166 95.7426 29.7621 96.0575 29.7621 96.4245C29.7621 96.7961 29.8166 97.1157 29.9255 97.3833C30.0344 97.6484 30.1871 97.8532 30.3836 97.9976C30.5824 98.1397 30.8156 98.2107 31.0832 98.2107C31.2726 98.2107 31.4418 98.1752 31.591 98.1041C31.7425 98.0308 31.8691 97.9254 31.9709 97.7881C32.0727 97.6508 32.1426 97.4839 32.1805 97.2874H33.4092C33.3784 97.6733 33.2647 98.0154 33.0682 98.3137C32.8717 98.6096 32.6042 98.8416 32.2657 99.0097C31.9271 99.1754 31.5294 99.2583 31.0725 99.2583ZM37.9413 96.8577V93.6972H39.2268V99.1517H37.9804V98.1823H37.9235C37.8004 98.4877 37.598 98.7374 37.3163 98.9316C37.0369 99.1257 36.6925 99.2228 36.2829 99.2228C35.9254 99.2228 35.6094 99.1434 35.3348 98.9848C35.0625 98.8238 34.8494 98.5907 34.6955 98.2853C34.5417 97.9775 34.4647 97.6058 34.4647 97.1702V93.6972H35.7502V96.9713C35.7502 97.317 35.8449 97.5916 36.0343 97.7952C36.2237 97.9988 36.4723 98.1006 36.7801 98.1006C36.9695 98.1006 37.1529 98.0544 37.3305 97.9621C37.508 97.8698 37.6536 97.7325 37.7673 97.5502C37.8833 97.3655 37.9413 97.1347 37.9413 96.8577ZM40.5487 99.1517V93.6972H41.7952V94.6063H41.852C41.9514 94.2914 42.1219 94.0488 42.3633 93.8783C42.6072 93.7055 42.8854 93.6191 43.1979 93.6191C43.2689 93.6191 43.3482 93.6226 43.4358 93.6297C43.5257 93.6345 43.6003 93.6427 43.6595 93.6546V94.8371C43.6051 94.8182 43.5186 94.8016 43.4003 94.7874C43.2843 94.7708 43.1718 94.7625 43.0629 94.7625C42.8285 94.7625 42.6178 94.8134 42.4308 94.9152C42.2462 95.0147 42.1006 95.1532 41.994 95.3307C41.8875 95.5083 41.8342 95.713 41.8342 95.9451V99.1517H40.5487ZM46.7037 99.2583C46.1568 99.2583 45.6845 99.1446 45.2868 98.9174C44.8915 98.6877 44.5872 98.3634 44.3742 97.9443C44.1611 97.5229 44.0546 97.027 44.0546 96.4564C44.0546 95.8953 44.1611 95.4029 44.3742 94.9791C44.5896 94.553 44.8903 94.2216 45.2762 93.9848C45.6621 93.7457 46.1154 93.6262 46.6362 93.6262C46.9724 93.6262 47.2897 93.6806 47.588 93.7895C47.8886 93.8961 48.1538 94.0618 48.3834 94.2867C48.6154 94.5116 48.7977 94.798 48.9303 95.1461C49.0629 95.4917 49.1291 95.9036 49.1291 96.3818V96.776H44.6583V95.9095H47.8969C47.8945 95.6633 47.8413 95.4443 47.7371 95.2526C47.6329 95.0585 47.4873 94.9058 47.3003 94.7945C47.1156 94.6832 46.9002 94.6276 46.654 94.6276C46.3912 94.6276 46.1604 94.6915 45.9615 94.8193C45.7627 94.9448 45.6076 95.1105 45.4963 95.3165C45.3874 95.5201 45.3318 95.7438 45.3294 95.9877V96.7441C45.3294 97.0613 45.3874 97.3336 45.5034 97.5608C45.6194 97.7857 45.7816 97.9586 45.9899 98.0793C46.1983 98.1977 46.4421 98.2568 46.7215 98.2568C46.9085 98.2568 47.0778 98.2308 47.2293 98.1787C47.3808 98.1243 47.5122 98.045 47.6235 97.9408C47.7347 97.8366 47.8188 97.7076 47.8756 97.5537L49.0759 97.6887C49.0001 98.0059 48.8557 98.2829 48.6426 98.5196C48.4319 98.754 48.1621 98.9363 47.833 99.0665C47.5039 99.1943 47.1275 99.2583 46.7037 99.2583ZM58.9791 94.3328H57.651C57.6131 94.115 57.5433 93.9221 57.4415 93.754C57.3397 93.5836 57.213 93.4391 57.0615 93.3208C56.91 93.2024 56.7372 93.1136 56.543 93.0544C56.3513 92.9929 56.1441 92.9621 55.9216 92.9621C55.5262 92.9621 55.1758 93.0615 54.8704 93.2604C54.565 93.4569 54.3259 93.7457 54.1531 94.1269C53.9803 94.5057 53.8939 94.9685 53.8939 95.5154C53.8939 96.0717 53.9803 96.5405 54.1531 96.9216C54.3283 97.3004 54.5674 97.5869 54.8704 97.781C55.1758 97.9728 55.525 98.0686 55.918 98.0686C56.1358 98.0686 56.3394 98.0402 56.5288 97.9834C56.7206 97.9242 56.8922 97.8378 57.0437 97.7242C57.1976 97.6105 57.3266 97.4709 57.4308 97.3051C57.5373 97.1394 57.6107 96.95 57.651 96.737L58.9791 96.7441C58.9294 97.0897 58.8217 97.414 58.656 97.7171C58.4926 98.0201 58.2784 98.2876 58.0132 98.5196C57.748 98.7493 57.4379 98.9292 57.0828 99.0594C56.7277 99.1872 56.3335 99.2512 55.9003 99.2512C55.2611 99.2512 54.6905 99.1032 54.1886 98.8073C53.6867 98.5113 53.2914 98.084 53.0025 97.5253C52.7137 96.9666 52.5693 96.2966 52.5693 95.5154C52.5693 94.7318 52.7149 94.0618 53.0061 93.5054C53.2973 92.9467 53.6938 92.5194 54.1957 92.2235C54.6976 91.9275 55.2658 91.7796 55.9003 91.7796C56.3051 91.7796 56.6815 91.8364 57.0295 91.95C57.3775 92.0637 57.6877 92.2306 57.9599 92.4507C58.2322 92.6685 58.4559 92.9361 58.6311 93.2533C58.8087 93.5682 58.9247 93.928 58.9791 94.3328ZM62.508 99.2583C61.9754 99.2583 61.5137 99.1411 61.1231 98.9067C60.7325 98.6723 60.4295 98.3444 60.214 97.923C60.0009 97.5016 59.8944 97.0092 59.8944 96.4458C59.8944 95.8823 60.0009 95.3887 60.214 94.9649C60.4295 94.5412 60.7325 94.2121 61.1231 93.9777C61.5137 93.7434 61.9754 93.6262 62.508 93.6262C63.0407 93.6262 63.5024 93.7434 63.893 93.9777C64.2836 94.2121 64.5855 94.5412 64.7985 94.9649C65.014 95.3887 65.1217 95.8823 65.1217 96.4458C65.1217 97.0092 65.014 97.5016 64.7985 97.923C64.5855 98.3444 64.2836 98.6723 63.893 98.9067C63.5024 99.1411 63.0407 99.2583 62.508 99.2583ZM62.5152 98.2284C62.804 98.2284 63.0455 98.1491 63.2396 97.9905C63.4337 97.8295 63.5781 97.6141 63.6728 97.3442C63.7699 97.0743 63.8184 96.7737 63.8184 96.4422C63.8184 96.1084 63.7699 95.8066 63.6728 95.5367C63.5781 95.2644 63.4337 95.0478 63.2396 94.8868C63.0455 94.7258 62.804 94.6453 62.5152 94.6453C62.2192 94.6453 61.973 94.7258 61.7765 94.8868C61.5824 95.0478 61.4368 95.2644 61.3397 95.5367C61.245 95.8066 61.1977 96.1084 61.1977 96.4422C61.1977 96.7737 61.245 97.0743 61.3397 97.3442C61.4368 97.6141 61.5824 97.8295 61.7765 97.9905C61.973 98.1491 62.2192 98.2284 62.5152 98.2284ZM68.2369 99.2476C67.8084 99.2476 67.4249 99.1375 67.0864 98.9174C66.7478 98.6972 66.4803 98.3776 66.2838 97.9586C66.0873 97.5395 65.9891 97.0305 65.9891 96.4316C65.9891 95.8255 66.0885 95.3141 66.2873 94.8975C66.4886 94.4784 66.7596 94.1624 67.1006 93.9493C67.4415 93.7339 67.8214 93.6262 68.2405 93.6262C68.5601 93.6262 68.8229 93.6806 69.0288 93.7895C69.2348 93.8961 69.3981 94.0251 69.5189 94.1766C69.6396 94.3257 69.7331 94.4666 69.7994 94.5992H69.8527V91.879H71.1418V99.1517H69.8775V98.2924H69.7994C69.7331 98.4249 69.6373 98.5658 69.5118 98.7149C69.3863 98.8617 69.2206 98.9872 69.0146 99.0914C68.8087 99.1955 68.5494 99.2476 68.2369 99.2476ZM68.5956 98.1929C68.8678 98.1929 69.0998 98.1195 69.2916 97.9728C69.4834 97.8236 69.629 97.6165 69.7284 97.3513C69.8278 97.0862 69.8775 96.7772 69.8775 96.4245C69.8775 96.0717 69.8278 95.7651 69.7284 95.5047C69.6313 95.2443 69.4869 95.0419 69.2952 94.8975C69.1058 94.7531 68.8726 94.6809 68.5956 94.6809C68.3091 94.6809 68.07 94.7554 67.8783 94.9046C67.6865 95.0537 67.5421 95.2597 67.445 95.5225C67.348 95.7853 67.2994 96.0859 67.2994 96.4245C67.2994 96.7654 67.348 97.0696 67.445 97.3371C67.5444 97.6023 67.69 97.8118 67.8818 97.9657C68.0759 98.1172 68.3139 98.1929 68.5956 98.1929ZM72.5116 99.1517V93.6972H73.7971V99.1517H72.5116ZM73.1579 92.923C72.9543 92.923 72.7791 92.8556 72.6323 92.7206C72.4856 92.5833 72.4122 92.4188 72.4122 92.227C72.4122 92.0329 72.4856 91.8684 72.6323 91.7334C72.7791 91.5961 72.9543 91.5274 73.1579 91.5274C73.3639 91.5274 73.5391 91.5961 73.6835 91.7334C73.8303 91.8684 73.9036 92.0329 73.9036 92.227C73.9036 92.4188 73.8303 92.5833 73.6835 92.7206C73.5391 92.8556 73.3639 92.923 73.1579 92.923ZM76.4045 95.9557V99.1517H75.119V93.6972H76.3477V94.624H76.4116C76.5371 94.3186 76.7372 94.076 77.0118 93.8961C77.2888 93.7161 77.6309 93.6262 78.0381 93.6262C78.4145 93.6262 78.7424 93.7067 79.0217 93.8676C79.3034 94.0286 79.5212 94.2618 79.6751 94.5672C79.8314 94.8726 79.9083 95.2431 79.906 95.6787V99.1517H78.6204V95.8776C78.6204 95.513 78.5257 95.2277 78.3364 95.0218C78.1493 94.8158 77.8901 94.7128 77.5587 94.7128C77.3337 94.7128 77.1337 94.7625 76.9585 94.862C76.7857 94.959 76.6496 95.0999 76.5501 95.2845C76.4531 95.4692 76.4045 95.6929 76.4045 95.9557ZM83.5849 101.311C83.1233 101.311 82.7267 101.248 82.3953 101.123C82.0639 101 81.7975 100.834 81.5963 100.625C81.3951 100.417 81.2554 100.186 81.1773 99.933L82.3349 99.6524C82.387 99.759 82.4628 99.8643 82.5622 99.9685C82.6616 100.075 82.7954 100.163 82.9635 100.231C83.1339 100.302 83.3482 100.338 83.6062 100.338C83.9708 100.338 84.2727 100.249 84.5118 100.071C84.7509 99.8963 84.8704 99.6075 84.8704 99.205V98.1716H84.8065C84.7402 98.3042 84.6432 98.4403 84.5153 98.58C84.3899 98.7197 84.223 98.8369 84.0146 98.9316C83.8087 99.0263 83.5494 99.0736 83.2369 99.0736C82.8179 99.0736 82.4379 98.9754 82.097 98.7789C81.7585 98.58 81.4886 98.2841 81.2873 97.8911C81.0885 97.4957 80.9891 97.0009 80.9891 96.4067C80.9891 95.8077 81.0885 95.3023 81.2873 94.8904C81.4886 94.4761 81.7596 94.1624 82.1006 93.9493C82.4415 93.7339 82.8214 93.6262 83.2405 93.6262C83.5601 93.6262 83.8229 93.6806 84.0288 93.7895C84.2372 93.8961 84.4029 94.0251 84.526 94.1766C84.6491 94.3257 84.7426 94.4666 84.8065 94.5992H84.8775V93.6972H86.1453V99.2405C86.1453 99.7069 86.034 100.093 85.8115 100.398C85.589 100.704 85.2847 100.932 84.8989 101.084C84.513 101.235 84.075 101.311 83.5849 101.311ZM83.5956 98.0651C83.8678 98.0651 84.0998 97.9988 84.2916 97.8662C84.4834 97.7336 84.629 97.5431 84.7284 97.2945C84.8278 97.0459 84.8775 96.7476 84.8775 96.3996C84.8775 96.0563 84.8278 95.7557 84.7284 95.4976C84.6313 95.2396 84.4869 95.0395 84.2952 94.8975C84.1058 94.7531 83.8726 94.6809 83.5956 94.6809C83.3091 94.6809 83.07 94.7554 82.8783 94.9046C82.6865 95.0537 82.5421 95.2585 82.445 95.5189C82.348 95.777 82.2994 96.0705 82.2994 96.3996C82.2994 96.7334 82.348 97.0258 82.445 97.2767C82.5444 97.5253 82.69 97.7194 82.8818 97.8591C83.0759 97.9964 83.3139 98.0651 83.5956 98.0651ZM90.5027 91.5617H96.3627V92.6317H90.5027V91.5617ZM89.6927 97.8517H98.0627V98.9317H89.6927V97.8517ZM91.4427 94.9317H92.7627V98.1917H91.4427V94.9317ZM95.9727 91.5617H97.3127V92.4717C97.3127 93.5917 97.3127 94.8717 96.9827 96.7517L95.6627 96.6217C95.9727 94.8617 95.9727 93.5617 95.9727 92.4717V91.5617ZM93.7327 94.9317H95.0427V98.1917H93.7327V94.9317ZM100.852 95.6217H102.182V97.4417H100.852V95.6217ZM103.942 95.6117H105.262V97.4317H103.942V95.6117ZM98.8819 95.1017H107.252V96.1517H98.8819V95.1017ZM99.8119 97.0017H106.242V100.042H104.912V98.0417H99.8119V97.0017ZM103.072 90.9617C105.102 90.9617 106.422 91.6617 106.422 92.7817C106.422 93.9117 105.102 94.6117 103.072 94.6117C101.032 94.6117 99.7219 93.9117 99.7219 92.7817C99.7219 91.6617 101.032 90.9617 103.072 90.9617ZM103.072 91.9917C101.802 91.9917 101.092 92.2517 101.092 92.7817C101.092 93.3217 101.802 93.5817 103.072 93.5817C104.332 93.5817 105.052 93.3217 105.052 92.7817C105.052 92.2517 104.332 91.9917 103.072 91.9917ZM8.11263 109.817C7.82617 109.817 7.56457 109.747 7.32783 109.607C7.09109 109.465 6.90169 109.276 6.75965 109.039C6.61997 108.802 6.55013 108.54 6.55013 108.254C6.55013 107.965 6.61997 107.704 6.75965 107.469C6.90169 107.232 7.09109 107.044 7.32783 106.905C7.56457 106.763 7.82617 106.692 8.11263 106.692C8.40146 106.692 8.66306 106.763 8.89743 106.905C9.13417 107.044 9.32238 107.232 9.46206 107.469C9.60411 107.704 9.67513 107.965 9.67513 108.254C9.67513 108.54 9.60411 108.802 9.46206 109.039C9.32238 109.276 9.13417 109.465 8.89743 109.607C8.66306 109.747 8.40146 109.817 8.11263 109.817ZM18.4009 104.542H19.4709V104.652C19.4709 106.022 18.6509 107.142 16.8709 107.502L16.3409 106.472C17.7709 106.212 18.4009 105.452 18.4009 104.652V104.542ZM18.6709 104.542H19.7409V104.652C19.7409 105.402 20.3609 106.092 21.7609 106.342L21.2409 107.362C19.4909 107.032 18.6709 105.962 18.6709 104.652V104.542ZM16.5909 103.702H21.5409V104.722H16.5909V103.702ZM18.4009 102.802H19.7409V104.432H18.4009V102.802ZM18.3909 108.042H19.7209V111.762H18.3909V108.042ZM22.4409 102.782H23.7609V112.042H22.4409V102.782ZM16.2009 108.972L16.0409 107.892C17.7209 107.892 19.9709 107.882 21.9109 107.622L22.0009 108.582C20.0009 108.942 17.8509 108.972 16.2009 108.972ZM32.0901 103.982H33.6901V105.072H32.0901V103.982ZM32.0901 105.992H33.6901V107.082H32.0901V105.992ZM31.1701 102.782H32.5001V108.242H31.1701V102.782ZM26.3201 108.622H32.5001V112.042H31.1701V109.682H26.3201V108.622ZM27.7901 103.282C29.2201 103.282 30.3101 104.232 30.3101 105.552C30.3101 106.872 29.2201 107.812 27.7901 107.812C26.3601 107.812 25.2701 106.872 25.2701 105.552C25.2701 104.232 26.3601 103.282 27.7901 103.282ZM27.7901 104.412C27.0901 104.412 26.5701 104.822 26.5701 105.552C26.5701 106.282 27.0901 106.702 27.7901 106.702C28.4901 106.702 29.0101 106.282 29.0101 105.552C29.0101 104.822 28.4901 104.412 27.7901 104.412ZM39.4193 104.912H41.1793V105.992H39.4193V104.912ZM40.8293 102.782H42.1593V108.132H40.8293V102.782ZM35.9893 108.512H42.1593V111.942H35.9893V108.512ZM40.8593 109.552H37.2993V110.892H40.8593V109.552ZM36.5493 103.642H37.6293V104.222C37.6293 105.972 36.8093 107.572 35.0293 108.152L34.3593 107.102C35.8893 106.602 36.5493 105.392 36.5493 104.222V103.642ZM36.8293 103.642H37.8993V104.222C37.8993 105.302 38.5293 106.442 39.9893 106.932L39.3393 107.982C37.6193 107.412 36.8293 105.872 36.8293 104.222V103.642ZM34.7193 103.252H39.6993V104.302H34.7193V103.252ZM46.429 106.842H47.199C48.999 106.842 50.059 106.812 51.269 106.592L51.409 107.632C50.169 107.852 49.049 107.892 47.199 107.892H46.429V106.842ZM46.429 103.312H50.779V104.362H47.759V107.252H46.429V103.312ZM47.349 105.072H50.579V106.112H47.349V105.072ZM47.359 108.602H53.379V111.942H47.359V108.602ZM52.079 109.642H48.669V110.892H52.079V109.642ZM52.049 102.782H53.379V108.192H52.049V102.782ZM53.009 104.942H54.609V106.042H53.009V104.942ZM57.5182 104.242H58.5782V105.282C58.5782 107.422 57.7082 109.512 55.9682 110.302L55.2182 109.252C56.7682 108.562 57.5182 106.852 57.5182 105.282V104.242ZM57.8182 104.242H58.8682V105.282C58.8682 106.782 59.6082 108.382 61.1582 109.022L60.4382 110.072C58.6782 109.312 57.8182 107.342 57.8182 105.282V104.242ZM55.5882 103.672H60.7782V104.762H55.5882V103.672ZM61.6382 102.782H62.9782V112.042H61.6382V102.782ZM66.5674 107.472H67.8974V109.662H66.5674V107.472ZM67.2174 103.322C68.6474 103.322 69.7374 104.272 69.7374 105.602C69.7374 106.932 68.6474 107.882 67.2174 107.882C65.7774 107.882 64.6974 106.932 64.6974 105.602C64.6974 104.272 65.7774 103.322 67.2174 103.322ZM67.2174 104.452C66.5174 104.452 65.9974 104.872 65.9974 105.602C65.9974 106.322 66.5174 106.752 67.2174 106.752C67.9174 106.752 68.4374 106.322 68.4374 105.602C68.4374 104.872 67.9174 104.452 67.2174 104.452ZM70.4674 102.782H71.7974V112.042H70.4674V102.782ZM71.3874 106.402H73.0174V107.512H71.3874V106.402ZM64.5474 110.202L64.3874 109.132C65.9874 109.122 68.1474 109.132 69.9874 108.882L70.0874 109.852C68.1674 110.212 66.1074 110.212 64.5474 110.202ZM80.9571 105.582H82.7471V106.652H80.9571V105.582ZM79.6471 103.482H81.0171C81.0171 106.092 79.9271 107.832 76.8171 108.842L76.2971 107.802C78.9171 106.982 79.6471 105.722 79.6471 104.022V103.482ZM76.7871 103.482H80.5071V104.542H76.7871V103.482ZM79.8071 105.282V106.192L76.5071 106.442L76.3171 105.402L79.8071 105.282ZM82.5871 102.782H83.9171V109.622H82.5871V102.782ZM77.8671 110.822H84.1671V111.882H77.8671V110.822ZM77.8671 108.962H79.1971V111.512H77.8671V108.962ZM90.0963 104.132H92.3763V105.192H90.0963V104.132ZM91.7863 102.782H93.1163V107.482H91.7863V102.782ZM86.9963 107.872H93.1163V110.362H88.3263V111.522H87.0163V109.402H91.7963V108.892H86.9963V107.872ZM87.0163 110.912H93.3763V111.942H87.0163V110.912ZM87.4863 103.082H88.5663V103.742C88.5663 105.492 87.7463 107.002 85.9763 107.562L85.2963 106.512C86.8363 106.052 87.4863 104.922 87.4863 103.742V103.082ZM87.7463 103.082H88.8263V103.742C88.8263 104.842 89.4463 105.912 90.9063 106.352L90.2263 107.382C88.5363 106.832 87.7463 105.402 87.7463 103.742V103.082ZM95.0755 106.932H95.8655C97.7755 106.932 98.8855 106.912 100.156 106.712L100.286 107.742C98.9855 107.962 97.8155 107.982 95.8655 107.982H95.0755V106.932ZM95.0755 103.422H99.5255V104.472H96.3955V107.362H95.0755V103.422ZM95.9855 105.182H99.2555V106.202H95.9855V105.182ZM100.926 102.792H102.266V108.382H100.926V102.792ZM99.1355 108.522C101.086 108.522 102.306 109.172 102.306 110.282C102.306 111.402 101.086 112.042 99.1355 112.042C97.1755 112.042 95.9655 111.402 95.9655 110.282C95.9655 109.172 97.1755 108.522 99.1355 108.522ZM99.1355 109.542C97.9255 109.542 97.2955 109.782 97.2955 110.282C97.2955 110.792 97.9255 111.032 99.1355 111.032C100.336 111.032 100.976 110.792 100.976 110.282C100.976 109.782 100.336 109.542 99.1355 109.542ZM107.955 102.912C110.065 102.912 111.305 103.472 111.305 104.492C111.305 105.512 110.065 106.072 107.955 106.072C105.835 106.072 104.605 105.512 104.605 104.492C104.605 103.472 105.835 102.912 107.955 102.912ZM107.955 103.882C106.615 103.882 105.985 104.082 105.985 104.492C105.985 104.922 106.615 105.102 107.955 105.102C109.295 105.102 109.925 104.922 109.925 104.492C109.925 104.082 109.295 103.882 107.955 103.882ZM103.765 106.502H112.135V107.552H103.765V106.502ZM104.725 108.072H111.125V110.452H106.045V111.272H104.735V109.532H109.815V109.062H104.725V108.072ZM104.735 110.982H111.365V111.982H104.735V110.982ZM115.454 107.132H123.834V108.192H115.454V107.132ZM118.984 105.742H120.304V107.542H118.984V105.742ZM116.464 105.322H122.884V106.372H116.464V105.322ZM116.464 103.182H122.834V104.222H117.784V105.992H116.464V103.182ZM119.614 108.652C121.614 108.652 122.824 109.262 122.824 110.352C122.824 111.442 121.614 112.052 119.614 112.052C117.614 112.052 116.394 111.442 116.394 110.352C116.394 109.262 117.614 108.652 119.614 108.652ZM119.614 109.652C118.374 109.652 117.744 109.882 117.744 110.352C117.744 110.832 118.374 111.042 119.614 111.042C120.854 111.042 121.484 110.832 121.484 110.352C121.484 109.882 120.854 109.652 119.614 109.652ZM126.904 103.492H127.984V104.842C127.984 107.222 127.164 109.372 125.324 110.222L124.534 109.122C126.144 108.422 126.904 106.642 126.904 104.842V103.492ZM127.164 103.492H128.244V104.842C128.244 106.552 128.974 108.252 130.554 108.932L129.774 110.002C127.984 109.182 127.164 107.122 127.164 104.842V103.492ZM130.994 102.772H132.334V112.062H130.994V102.772ZM137.543 106.192H139.063V107.262H137.543V106.192ZM140.533 102.782H141.803V112.042H140.533V102.782ZM138.643 102.922H139.893V111.622H138.643V102.922ZM135.923 103.432C137.153 103.432 137.943 104.702 137.943 106.792C137.943 108.892 137.153 110.162 135.923 110.162C134.703 110.162 133.923 108.892 133.923 106.792C133.923 104.702 134.703 103.432 135.923 103.432ZM135.923 104.682C135.423 104.682 135.133 105.382 135.133 106.792C135.133 108.212 135.423 108.902 135.923 108.902C136.443 108.902 136.733 108.212 136.733 106.792C136.733 105.382 136.443 104.682 135.923 104.682ZM8.11263 121.817C7.82617 121.817 7.56457 121.747 7.32783 121.607C7.09109 121.465 6.90169 121.276 6.75965 121.039C6.61997 120.802 6.55013 120.54 6.55013 120.254C6.55013 119.965 6.61997 119.704 6.75965 119.469C6.90169 119.232 7.09109 119.044 7.32783 118.905C7.56457 118.763 7.82617 118.692 8.11263 118.692C8.40146 118.692 8.66306 118.763 8.89743 118.905C9.13417 119.044 9.32238 119.232 9.46206 119.469C9.60411 119.704 9.67513 119.965 9.67513 120.254C9.67513 120.54 9.60411 120.802 9.46206 121.039C9.32238 121.276 9.13417 121.465 8.89743 121.607C8.66306 121.747 8.40146 121.817 8.11263 121.817ZM16.0209 121.892H24.4009V122.972H16.0209V121.892ZM19.5309 119.912H20.8609V122.152H19.5309V119.912ZM16.9009 115.372H18.2209V116.792H22.1709V115.372H23.4909V120.192H16.9009V115.372ZM18.2209 117.832V119.132H22.1709V117.832H18.2209ZM31.1701 114.782H32.5001V121.512H31.1701V114.782ZM32.1201 117.432H33.7301V118.522H32.1201V117.432ZM26.5301 122.822H32.8301V123.882H26.5301V122.822ZM26.5301 120.812H27.8601V123.292H26.5301V120.812ZM27.7901 115.372C29.2101 115.372 30.3101 116.362 30.3101 117.732C30.3101 119.092 29.2101 120.082 27.7901 120.082C26.3701 120.082 25.2701 119.092 25.2701 117.732C25.2701 116.362 26.3701 115.372 27.7901 115.372ZM27.7901 116.532C27.1101 116.532 26.5701 116.972 26.5701 117.732C26.5701 118.482 27.1101 118.922 27.7901 118.922C28.4801 118.922 29.0101 118.482 29.0101 117.732C29.0101 116.972 28.4801 116.532 27.7901 116.532ZM38.7798 120.632H40.1398V124.042H38.7798V120.632ZM41.9798 120.632H43.3398V124.042H41.9798V120.632ZM36.8898 119.932H45.2798V121.002H36.8898V119.932ZM41.0598 115.092C43.0398 115.092 44.4098 115.902 44.4098 117.172C44.4098 118.422 43.0398 119.232 41.0598 119.232C39.0898 119.232 37.7198 118.422 37.7198 117.172C37.7198 115.902 39.0898 115.092 41.0598 115.092ZM41.0598 116.152C39.8498 116.152 39.0798 116.512 39.0798 117.172C39.0798 117.822 39.8498 118.182 41.0598 118.182C42.2798 118.182 43.0398 117.822 43.0398 117.172C43.0398 116.512 42.2798 116.152 41.0598 116.152ZM48.319 116.242H49.379V117.282C49.379 119.422 48.509 121.512 46.769 122.302L46.019 121.252C47.569 120.562 48.319 118.852 48.319 117.282V116.242ZM48.619 116.242H49.669V117.282C49.669 118.782 50.409 120.382 51.959 121.022L51.239 122.072C49.479 121.312 48.619 119.342 48.619 117.282V116.242ZM46.389 115.672H51.579V116.762H46.389V115.672ZM52.439 114.782H53.779V124.042H52.439V114.782ZM55.2882 118.932H63.6782V119.902H55.2882V118.932ZM56.2282 120.362H62.6782V122.562H57.5682V123.352H56.2482V121.722H61.3682V121.262H56.2282V120.362ZM56.2482 123.072H62.9382V123.972H56.2482V123.072ZM56.3182 114.942H62.6582V117.122H57.6482V117.882H56.3282V116.292H61.3482V115.832H56.3182V114.942ZM56.3282 117.602H62.8282V118.502H56.3282V117.602ZM69.9679 115.152C71.3779 115.152 72.3979 115.962 72.3979 117.132C72.3979 118.282 71.3779 119.112 69.9679 119.112C68.5679 119.112 67.5479 118.282 67.5479 117.132C67.5479 115.962 68.5679 115.152 69.9679 115.152ZM69.9679 116.232C69.2979 116.232 68.8179 116.552 68.8179 117.132C68.8179 117.702 69.2979 118.022 69.9679 118.022C70.6479 118.022 71.1279 117.702 71.1279 117.132C71.1279 116.552 70.6479 116.232 69.9679 116.232ZM69.3479 120.032H70.6779V123.762H69.3479V120.032ZM73.3979 114.782H74.7179V124.042H73.3979V114.782ZM67.1579 120.732L66.9979 119.652C68.6179 119.652 70.9079 119.632 72.8679 119.332L72.9579 120.302C70.9479 120.702 68.7579 120.722 67.1579 120.732ZM82.1271 114.792H83.4571V121.712H82.1271V114.792ZM83.0771 117.612H84.6871V118.702H83.0771V117.612ZM76.1671 115.752H81.6171V116.792H76.1671V115.752ZM78.8971 117.122C80.2271 117.122 81.1671 117.852 81.1671 118.912C81.1671 119.972 80.2271 120.692 78.8971 120.692C77.5571 120.692 76.6171 119.972 76.6171 118.912C76.6171 117.852 77.5571 117.122 78.8971 117.122ZM78.8971 118.132C78.3071 118.132 77.8971 118.412 77.8971 118.912C77.8971 119.412 78.3071 119.682 78.8971 119.682C79.4871 119.682 79.8971 119.412 79.8971 118.912C79.8971 118.412 79.4871 118.132 78.8971 118.132ZM78.2271 114.772H79.5571V116.262H78.2271V114.772ZM77.4871 122.822H83.7871V123.882H77.4871V122.822ZM77.4871 121.192H78.8171V123.282H77.4871V121.192ZM87.8568 121.942H96.2368V123.022H87.8568V121.942ZM91.3668 120.192H92.6968V122.382H91.3668V120.192ZM88.7968 115.382H95.2968V118.462H90.1368V120.022H88.8168V117.422H93.9768V116.432H88.7968V115.382ZM88.8168 119.492H95.5068V120.562H88.8168V119.492ZM97.906 115.632H103.776V116.682H97.906V115.632ZM97.056 121.752H105.426V122.832H97.056V121.752ZM103.076 115.632H104.396V116.732C104.396 118.032 104.396 119.292 104.066 121.192L102.736 121.082C103.076 119.302 103.076 117.982 103.076 116.732V115.632ZM109.136 115.452H113.096V116.522H109.136V115.452ZM110.276 117.612H111.596V119.932H110.276V117.612ZM112.576 115.452H113.886V116.032C113.886 116.682 113.886 117.602 113.666 118.752L112.376 118.612C112.576 117.472 112.576 116.672 112.576 116.032V115.452ZM114.786 114.782H116.126V121.712H114.786V114.782ZM115.596 117.602H117.226V118.692H115.596V117.602ZM109.946 122.822H116.416V123.882H109.946V122.822ZM109.946 121.092H111.276V123.152H109.946V121.092ZM108.716 120.472L108.596 119.422C110.196 119.422 112.426 119.392 114.286 119.132L114.366 120.072C112.456 120.432 110.306 120.472 108.716 120.472ZM124.305 114.772H125.635V124.062H124.305V114.772ZM118.425 120.822H119.245C120.885 120.822 122.195 120.762 123.665 120.512L123.795 121.582C122.295 121.852 120.935 121.902 119.245 121.902H118.425V120.822ZM118.415 115.562H122.785V119.142H119.775V121.222H118.425V118.092H121.425V116.622H118.415V115.562ZM130.585 118.912H137.095V119.972H130.585V118.912ZM129.615 121.912H137.995V123.002H129.615V121.912ZM133.125 119.392H134.455V122.262H133.125V119.392ZM130.585 115.412H137.025V116.482H131.915V119.372H130.585V115.412ZM142.324 119.602H143.654V121.072H142.324V119.602ZM142.994 114.912C145.034 114.912 146.344 115.582 146.344 116.702C146.344 117.812 145.034 118.472 142.994 118.472C140.954 118.472 139.644 117.812 139.644 116.702C139.644 115.582 140.954 114.912 142.994 114.912ZM142.994 115.922C141.724 115.922 141.014 116.182 141.014 116.702C141.014 117.212 141.724 117.462 142.994 117.462C144.254 117.462 144.974 117.212 144.974 116.702C144.974 116.182 144.254 115.922 142.994 115.922ZM139.774 120.782H146.174V123.942H139.774V120.782ZM144.874 121.832H141.084V122.892H144.874V121.832ZM138.804 118.942H147.174V120.002H138.804V118.942ZM8.11263 133.817C7.82617 133.817 7.56457 133.747 7.32783 133.607C7.09109 133.465 6.90169 133.276 6.75965 133.039C6.61997 132.802 6.55013 132.54 6.55013 132.254C6.55013 131.965 6.61997 131.704 6.75965 131.469C6.90169 131.232 7.09109 131.044 7.32783 130.905C7.56457 130.763 7.82617 130.692 8.11263 130.692C8.40146 130.692 8.66306 130.763 8.89743 130.905C9.13417 131.044 9.32238 131.232 9.46206 131.469C9.60411 131.704 9.67513 131.965 9.67513 132.254C9.67513 132.54 9.60411 132.802 9.46206 133.039C9.32238 133.276 9.13417 133.465 8.89743 133.607C8.66306 133.747 8.40146 133.817 8.11263 133.817ZM20.6809 129.672H23.1209V130.742H20.6809V129.672ZM18.1609 127.492H19.2409V128.832C19.2409 131.162 18.4509 133.312 16.7109 134.182L15.8809 133.112C17.4609 132.382 18.1609 130.592 18.1609 128.832V127.492ZM18.4409 127.492H19.5009V128.832C19.5009 130.592 20.1709 132.282 21.7009 132.962L20.9109 134.022C19.1709 133.182 18.4409 131.142 18.4409 128.832V127.492ZM22.4609 126.772H23.7809V136.062H22.4609V126.772ZM31.5601 126.772H32.9001V136.062H31.5601V126.772ZM25.6701 127.512H26.9901V129.762H28.9001V127.512H30.2201V133.902H25.6701V127.512ZM26.9901 130.792V132.832H28.9001V130.792H26.9901ZM37.8493 127.312H39.0093V127.982C39.0093 129.992 37.5793 131.772 35.1793 132.242L34.6093 131.142C36.6993 130.782 37.8493 129.312 37.8493 127.982V127.312ZM38.1193 127.312H39.2693V127.982C39.2693 129.342 40.4093 130.782 42.5093 131.142L41.9393 132.242C39.5393 131.772 38.1193 130.022 38.1193 127.982V127.312ZM34.4193 133.832H42.7993V134.912H34.4193V133.832ZM48.349 128.292H49.439V128.632C49.439 130.252 48.579 131.692 46.789 132.192L46.169 131.162C47.689 130.732 48.349 129.672 48.349 128.632V128.292ZM48.599 128.292H49.679V128.632C49.679 129.602 50.359 130.602 51.869 130.992L51.269 132.032C49.469 131.562 48.599 130.182 48.599 128.632V128.292ZM46.479 127.702H51.539V128.742H46.479V127.702ZM48.349 126.752H49.679V128.162H48.349V126.752ZM52.449 126.792H53.789V132.212H52.449V126.792ZM47.629 132.612H53.789V135.942H47.629V132.612ZM52.479 133.652H48.929V134.892H52.479V133.652ZM61.6482 126.782H62.9882V131.762H61.6482V126.782ZM56.8282 132.162H58.1382V133.022H61.6682V132.162H62.9882V135.942H56.8282V132.162ZM58.1382 134.042V134.882H61.6682V134.042H58.1382ZM57.9482 127.162C59.3882 127.162 60.4582 128.072 60.4582 129.352C60.4582 130.632 59.3882 131.542 57.9482 131.542C56.5082 131.542 55.4282 130.632 55.4282 129.352C55.4282 128.072 56.5082 127.162 57.9482 127.162ZM57.9482 128.262C57.2382 128.262 56.7282 128.672 56.7282 129.352C56.7282 130.042 57.2382 130.442 57.9482 130.442C58.6482 130.442 59.1582 130.042 59.1582 129.352C59.1582 128.672 58.6482 128.262 57.9482 128.262ZM66.5674 128.242H67.6174V129.282C67.6174 131.372 66.7374 133.502 65.0374 134.302L64.2874 133.252C65.8174 132.532 66.5674 130.802 66.5674 129.282V128.242ZM66.8474 128.242H67.8974V129.282C67.8974 130.682 68.6174 132.322 70.1374 133.022L69.4074 134.072C67.7074 133.282 66.8474 131.252 66.8474 129.282V128.242ZM64.6474 127.672H69.7274V128.762H64.6474V127.672ZM70.4074 126.782H71.7474V136.042H70.4074V126.782ZM71.4474 130.312H73.0874V131.412H71.4474V130.312ZM76.1571 131.592H84.5371V132.642H76.1571V131.592ZM77.0971 133.232H83.5171V136.042H82.1871V134.282H77.0971V133.232ZM77.1971 130.022H83.6471V131.032H77.1971V130.022ZM77.1971 126.992H83.5771V128.002H78.5171V130.532H77.1971V126.992ZM78.1471 128.512H83.3671V129.482H78.1471V128.512ZM90.3863 129.022H92.1463V130.102H90.3863V129.022ZM91.7863 126.782H93.1163V132.282H91.7863V126.782ZM89.9763 132.482C91.9363 132.482 93.1463 133.152 93.1463 134.272C93.1463 135.402 91.9363 136.052 89.9763 136.052C88.0163 136.052 86.8063 135.402 86.8063 134.272C86.8063 133.152 88.0163 132.482 89.9763 132.482ZM89.9763 133.492C88.7763 133.492 88.1363 133.742 88.1363 134.272C88.1363 134.792 88.7763 135.042 89.9763 135.042C91.1863 135.042 91.8263 134.792 91.8263 134.272C91.8263 133.742 91.1863 133.492 89.9763 133.492ZM87.5063 127.712H88.5863V128.292C88.5863 130.062 87.7663 131.682 85.9963 132.282L85.3163 131.232C86.8463 130.712 87.5063 129.482 87.5063 128.292V127.712ZM87.7863 127.712H88.8563V128.292C88.8563 129.382 89.4863 130.512 90.9463 131.002L90.2963 132.052C88.5763 131.482 87.7863 129.942 87.7863 128.292V127.712ZM85.6763 127.342H90.6563V128.402H85.6763V127.342ZM98.026 130.912H104.536V131.972H98.026V130.912ZM97.056 133.912H105.436V135.002H97.056V133.912ZM100.566 131.392H101.896V134.262H100.566V131.392ZM98.026 127.412H104.466V128.482H99.356V131.372H98.026V127.412ZM109.765 131.602H111.095V133.072H109.765V131.602ZM110.435 126.912C112.475 126.912 113.785 127.582 113.785 128.702C113.785 129.812 112.475 130.472 110.435 130.472C108.395 130.472 107.085 129.812 107.085 128.702C107.085 127.582 108.395 126.912 110.435 126.912ZM110.435 127.922C109.165 127.922 108.455 128.182 108.455 128.702C108.455 129.212 109.165 129.462 110.435 129.462C111.695 129.462 112.415 129.212 112.415 128.702C112.415 128.182 111.695 127.922 110.435 127.922ZM107.215 132.782H113.615V135.942H107.215V132.782ZM112.315 133.832H108.525V134.892H112.315V133.832ZM106.245 130.942H114.615V132.002H106.245V130.942Z" fill="white"/>
<path d="M83.2438 3.54545V13H82.1358L76.9839 5.5767H76.8915V13H75.7466V3.54545H76.8546L82.025 10.9872H82.1174V3.54545H83.2438ZM85.5347 13V3.54545H91.2407V4.56108H86.6796V7.75568H90.9452V8.77131H86.6796V11.9844H91.3146V13H85.5347ZM95.0216 13L92.4364 3.54545H93.5997L95.5756 11.2457H95.6679L97.6807 3.54545H98.9733L100.986 11.2457H101.078L103.054 3.54545H104.218L101.632 13H100.451L98.3639 5.46591H98.2901L96.2034 13H95.0216Z" fill="white"/>
</svg>
